<?xml version="1.0" standalone="no"?>
<!DOCTYPE svg PUBLIC "-//W3C//DTD SVG 1.1//EN" "http://www.w3.org/Graphics/SVG/1.1/DTD/svg11.dtd" >
<svg>
<metadata>
Created by FontForge 20090622 at Wed Jul 15 09:02:20 2015
 By deploy user
&#194;&#169; 2000 Adobe Systems Incorporated. All Rights Reserved.
</metadata>
<defs>
<font id="TrajanPro-Regular" horiz-adv-x="535" >
  <font-face 
    font-family="Trajan Pro"
    font-weight="400"
    font-stretch="normal"
    units-per-em="1000"
    panose-1="2 2 5 2 5 5 6 2 3 1"
    ascent="750"
    descent="-250"
    x-height="640"
    cap-height="753"
    bbox="-250.267 -256 1517 998"
    underline-thickness="50"
    underline-position="-50"
    unicode-range="U+0020-U+FB02"
  />
<missing-glyph horiz-adv-x="500" 
d="M0 0h500v700h-500v-700zM250 395l-170 255h340zM280 350l170 255v-510zM80 50l170 255l170 -255h-340zM50 605l170 -255l-170 -255v510z" />
    <glyph glyph-name=".notdef" horiz-adv-x="500" 
d="M0 0h500v700h-500v-700zM250 395l-170 255h340zM280 350l170 255v-510zM80 50l170 255l170 -255h-340zM50 605l170 -255l-170 -255v510z" />
    <glyph glyph-name=".null" horiz-adv-x="0" 
 />
    <glyph glyph-name="nonmarkingreturn" horiz-adv-x="325" 
 />
    <glyph glyph-name="space" unicode=" " horiz-adv-x="325" 
 />
    <glyph glyph-name="numbersign" unicode="#" horiz-adv-x="571" 
d="M539 460v56h-112l32 238h-35l-32 -238h-160l33 238h-36l-33 -238h-132v-56h124l-25 -164h-131v-56h122l-38 -240h35l38 240h163l-37 -240h35l36 240h123v56h-114l24 164h120zM384 460l-24 -164h-161l25 164h160z" />
    <glyph glyph-name="dollar" unicode="$" horiz-adv-x="571" 
d="M280 0q26 0 62.5 10t69.5 33.5t56.5 61.5t23.5 94q0 42 -14 74.5t-38 59t-55.5 49.5t-67.5 46l29 298q18 0 40 -8.5t35 -20.5q20 -18 24.5 -39t4.5 -40q0 -9 2 -12t6 -3q7 0 8 10q1 6 1.5 22.5t1 35t1 35t0.5 24.5q0 11 -8 15q-14 5 -44.5 9.5t-67.5 4.5l9 91q0 7 -8 5
l-23 -7q-6 -2 -6 -9l-7 -80q-32 0 -68.5 -11t-67.5 -33t-51 -56t-20 -80q0 -34 11 -61.5t32 -53.5t52.5 -51.5t73.5 -54.5l-29 -320q-30 0 -59.5 10.5t-49.5 33.5q-19 22 -23 44.5t-3 48.5q1 13 0 17.5t-5 4.5q-8 0 -11 -19q-1 -5 -3 -16t-3.5 -27t-3 -35.5t-1.5 -39.5
q0 -16 4.5 -22t23.5 -14q15 -6 33.5 -10.5t37 -7.5t34.5 -4.5t26 -1.5l-8 -85q-1 -11 7 -10l19 6q9 2 10 8zM285 453q-54 38 -82 72.5t-28 79.5q0 38 16.5 61.5t38.5 37t45 18t36 4.5zM310 335q51 -33 80.5 -70t29.5 -88q0 -61 -36 -98.5t-100 -40.5z" />
    <glyph glyph-name="percent" unicode="%" horiz-adv-x="870" 
d="M647 0q45 0 77.5 17t54 44.5t31.5 61.5t10 68q0 30 -10 61t-30.5 56.5t-51.5 42t-74 16.5q-46 0 -78.5 -17t-53.5 -44t-31 -61.5t-10 -68.5q0 -29 9.5 -60.5t30 -57t51.5 -42t75 -16.5zM651 28q-27 0 -47.5 14.5t-34 37.5t-20 52t-6.5 58q0 30 6 57.5t18.5 47.5t32.5 32
t49 12q27 0 47 -14.5t34 -37.5t21 -52t7 -58q0 -30 -6 -57t-18.5 -47.5t-33 -32.5t-49.5 -12zM300 -4q5 1 10 12l294 732l8 18t3 11t-7 4q-10 0 -46.5 -3.5t-89.5 -8t-116.5 -8t-127.5 -3.5q-45 0 -78.5 -17t-55.5 -44t-33 -61.5t-11 -69.5q0 -29 9.5 -60.5t30 -57t51.5 -42
t75 -16.5t76.5 17t53.5 44.5t31.5 61.5t10.5 68q0 48 -19 86t-46 57v2q6 0 35 2l65.5 4.5t74 5.5t61.5 4q-2 -5 -19.5 -46l-44 -104l-60 -141.5l-68 -158l-67 -154.5l-57.5 -131q-2 -5 0.5 -9t10.5 -2zM220 410q-27 0 -47.5 14.5t-34 37.5t-20 52t-6.5 58q0 30 6 57.5
t18.5 48t32.5 32.5t49 12q27 0 47 -14.5t33.5 -38t20.5 -52.5t7 -58q0 -30 -5.5 -57t-18.5 -47.5t-33 -32.5t-49 -12z" />
    <glyph glyph-name="ampersand" unicode="&#x26;" horiz-adv-x="775" 
d="M293 -17q55 0 98 13.5t74 31.5t50 36l28 27q41 -33 68.5 -51.5t49 -28t42 -12t48.5 -2.5h98q7 0 12 2t5 5q0 7 -14 7q-27 0 -61 12.5t-58 26.5q-21 12 -54.5 34.5t-83.5 64.5q16 20 34 48t32 59.5t23.5 65t9.5 63.5q0 8 -3.5 13t-14.5 7q-42 5 -72 6t-48 1q-6 0 -11 -1.5
t-5 -5.5t3.5 -5.5t8.5 -1.5q11 0 25 -3t24 -13q11 -11 15 -24.5t4 -24.5q0 -46 -15 -91.5t-36 -74.5q-12 10 -38.5 34l-55.5 51.5l-55.5 53.5t-39.5 40l-68.5 76.5t-49.5 64.5t-30 58t-10 57q0 35 11.5 60t29.5 40.5t40.5 23t45.5 7.5q33 0 58 -13.5t42 -30.5
q19 -20 25 -42.5t6 -42.5q0 -11 1 -15t5 -4q3 0 5.5 3t4.5 14q1 6 2.5 20.5t2.5 31.5t1.5 34.5t0.5 28.5q0 9 -2 14.5t-11 10.5q-20 11 -51.5 18t-69.5 7q-50 0 -90 -17.5t-68 -44.5t-42.5 -59.5t-14.5 -62.5q0 -34 10.5 -66.5t38.5 -71.5q-29 -17 -56.5 -40.5t-49 -53.5
t-34.5 -66.5t-13 -80.5q0 -33 13.5 -71.5t42.5 -71.5t75 -55.5t112 -22.5zM328 36q-42 0 -78.5 16t-63.5 44.5t-42.5 68t-15.5 86.5q0 60 25.5 101t64.5 67q10 -15 26.5 -35l33.5 -40l32.5 -37.5t25.5 -27.5q10 -11 31.5 -32l47.5 -46l53.5 -49.5t48.5 -41.5
q-13 -13 -31 -26.5t-41.5 -24t-52.5 -17t-64 -6.5z" />
    <glyph glyph-name="quoteright" unicode="&#x2019;" horiz-adv-x="200" 
d="M85 732q0 -43 -11 -81t-22 -62q-4 -9 -4 -13q0 -5 5 -5q8 0 13 8q13 16 28 38.5t28 49t21.5 54.5t8.5 55q0 11 -4 16t-13 10l-15.5 5l-19.5 6t-19.5 5t-15.5 2q-3 0 -6 -2t-3 -4q0 -4 1.5 -7t7.5 -10q5 -6 12.5 -24t7.5 -41z" />
    <glyph glyph-name="parenleft" unicode="(" horiz-adv-x="360" 
d="M137 319q0 76 15.5 142.5t38 119t47 89.5t42.5 55q7 7 7 11q0 8 -7 8q-3 0 -11 -6q-23 -17 -58.5 -56.5t-68.5 -96.5t-56.5 -128t-23.5 -151t21.5 -148t53 -122.5t68 -93.5t65.5 -61q7 -5 9 -5q7 0 7 7q0 3 -2 5.5l-5 6.5q-31 37 -57 79t-45 93t-29.5 113t-10.5 139z" />
    <glyph glyph-name="parenright" unicode=")" horiz-adv-x="360" 
d="M223 301q0 -76 -15.5 -142.5t-38 -119t-47 -89.5t-42.5 -55q-7 -7 -7 -11q0 -8 7 -8q3 0 11 6q23 16 58.5 56t68.5 97t56.5 128.5t23.5 152.5q0 79 -21.5 146.5t-53 122t-68 93.5t-65.5 61q-7 5 -9 5q-7 0 -7 -7q0 -3 2 -5.5l5 -6.5q31 -37 57 -79t45 -93t29.5 -113
t10.5 -139z" />
    <glyph glyph-name="asterisk" unicode="*" horiz-adv-x="350" 
d="M207 797q0 11 -8 11q-7 0 -17.5 -3t-21 -7.5t-18 -9.5t-7.5 -9q0 -3 4 -11q2 -4 6.5 -18t9 -30t7.5 -30.5t3 -19.5t-1 -7q-4 -1 -8 1l-18 13.5t-31.5 22t-35 20t-28.5 8.5q-10 0 -10 -8q0 -6 0.5 -17t2 -22.5t3.5 -19.5t5 -8q2 0 4.5 1.5t7.5 1.5t17 -0.5t26.5 -1
t28.5 -2t23 -3.5q4 0 4 -3t-3 -6q-5 -4 -19.5 -16.5l-31 -27.5l-31 -28t-18.5 -19q-5 -6 -6 -9.5t-1 -6.5q0 -5 20 -9t43 -4q12 0 12 5q0 6 2 12t4 11t7.5 17.5l11.5 26l11.5 25t7.5 14.5q1 3 4 3q2 0 2.5 -2t1.5 -4q3 -9 8.5 -23.5t12 -29.5l12.5 -29t10 -21q8 -14 14 -14
t14.5 5.5t16.5 13.5t14 16.5t6 14.5q0 5 -11 9q-5 1 -17 9.5t-25.5 19.5t-25.5 22t-16 19q-3 5 -1 7q4 2 6 2q11 0 30 0.5t37.5 1.5t32 1.5t15.5 0.5q12 3 12 9q0 7 -3.5 18t-8 21t-9 17t-7.5 7q-2 0 -4 -2t-6 -5q-3 -3 -11.5 -10.5t-21.5 -16t-28.5 -16.5t-32.5 -12
q-4 -1 -5 0q-2 3 0 7l9 32t9 36t6.5 34t2.5 25z" />
    <glyph glyph-name="plus" unicode="+" horiz-adv-x="510" 
d="M468 243v51h-187v187h-52v-187h-187v-51h188v-187h52v187h186z" />
    <glyph glyph-name="comma" unicode="," horiz-adv-x="250" 
d="M111 -2q0 -14 -5.5 -31.5t-18.5 -39.5l-4.5 -7t-2.5 -7q0 -7 7 -7q6 0 13 9q10 12 20 26.5t18.5 29.5t15 28.5l10.5 22.5q4 10 7 21.5t3 17.5q0 7 -3.5 17.5t-13.5 25.5q-8 12 -11 15.5t-7 3.5q-10 0 -21 -4.5t-20 -12t-15 -17.5t-6 -20q0 -5 5.5 -10t11.5 -13
t11.5 -19.5t5.5 -28.5z" />
    <glyph glyph-name="hyphen" unicode="-" horiz-adv-x="390" 
d="M73 310q-12 0 -16 -1.5t-6 -6.5l-15 -56q-3 -15 5 -15q4 0 15.5 5.5t25.5 9.5q8 2 27.5 5.5t43.5 7l50.5 7.5l50 7.5l41.5 6l25 3.5q12 2 23.5 5t11.5 12q0 6 -8.5 8t-21.5 2h-252z" />
    <glyph glyph-name="period" unicode="." horiz-adv-x="250" 
d="M124 0q26 0 41 17t15 41t-16 38t-39 14q-15 0 -25 -5.5t-17 -13.5t-10 -17.5t-3 -18.5q0 -19 12.5 -37t41.5 -18z" />
    <glyph glyph-name="slash" unicode="/" horiz-adv-x="552" 
d="M55 -15q7 -4 12 5l464 746q4 6 -2 10l-30 18q-8 5 -14 -4l-461 -739q-7 -12 -1 -15z" />
    <glyph glyph-name="zero" unicode="0" horiz-adv-x="571" 
d="M42 352q0 -67 15 -133t44 -118.5t73 -85t103 -32.5q61 0 108 32.5t79 88.5t48.5 132t16.5 162q0 33 -5 73t-15.5 81t-28.5 79.5t-44.5 69t-61.5 48.5t-81 18q-60 0 -106.5 -31.5t-79 -87.5t-49 -132t-16.5 -164zM123 393q0 76 10.5 138t30 106.5t47 68.5t62.5 24
q42 0 75 -32t55 -84.5t33.5 -120t11.5 -138.5q0 -74 -11 -135.5t-31 -106t-47.5 -69t-61.5 -24.5q-46 0 -79 33.5t-54 87t-31 120t-10 132.5z" />
    <glyph glyph-name="one" unicode="1" horiz-adv-x="571" 
d="M341 486q1 115 3 184.5t2 75.5q0 8 -2.5 14.5t-8.5 6.5q-5 0 -11 -3.5t-13 -8.5l-193 -129q-7 -5 -7 -10q0 -3 2.5 -6t4.5 -3q5 0 12 4q9 4 25.5 12.5t33.5 16t32.5 13.5t22.5 6q12 0 15 -8t3 -23v-152v-175q0 -75 -0.5 -136t-2.5 -94q-2 -23 -9.5 -35t-32.5 -17
q-7 -2 -19 -3l-24 -2t-22.5 -1.5t-14.5 -0.5q-8 0 -8 -8q0 -7 17 -7q24 0 50 0.5t48.5 1t37.5 1t17 0.5t14 -0.5t31.5 -1t45 -1t53.5 -0.5q17 0 17 7q0 3 -3 5.5t-6 2.5t-12 0.5t-19 1.5l-19.5 2t-15.5 2q-24 5 -30.5 17.5t-9.5 35.5q-4 33 -5 94t0 136z" />
    <glyph glyph-name="two" unicode="2" horiz-adv-x="571" 
d="M428 0q32 0 45.5 5t19.5 25q4 13 9 32.5t9.5 39l8 36t3.5 23.5q0 5 -1 10t-5 5q-8 0 -12 -15q-9 -40 -35.5 -65.5t-81.5 -30.5q-14 -2 -40 -2.5t-53 -1.5t-50 -1h-28h-73q-4 0 -5 2t3 5l69 59t76.5 71t75 81t65 89.5t45.5 96t17 101.5q0 40 -14 76.5t-42.5 64.5
t-70.5 44.5t-99 16.5q-61 0 -104.5 -11t-71.5 -24q-7 -5 -8.5 -7.5t-1.5 -7.5q0 -12 1 -31l2 -38.5t2 -35t1 -18.5q1 -13 8 -13q9 0 9 15q0 29 8.5 54.5t26.5 42.5q22 20 46.5 29t60.5 9q25 0 53 -9t51.5 -30t39 -56.5t15.5 -89.5q0 -72 -26.5 -135.5t-73 -124t-110.5 -121
l-139 -127.5q-6 -5 -12 -11.5t-6 -12.5t4.5 -10t9.5 -4h379z" />
    <glyph glyph-name="three" unicode="3" horiz-adv-x="571" 
d="M420 203q0 -45 -14 -78t-38.5 -55t-57.5 -33t-71 -11q-39 0 -66.5 10.5t-45 28.5t-26.5 42.5t-12 53.5q-1 14 -7 14q-7 0 -8 -15q-1 -8 -2.5 -22t-2.5 -31t-1.5 -35.5t-0.5 -36.5q0 -9 2.5 -15t13.5 -13q8 -5 22 -9t31.5 -7.5t35.5 -5.5t33 -2q67 0 122 20.5t94.5 55.5
t61 81.5t21.5 99.5q0 43 -17 76.5t-42 57.5t-53.5 38t-52.5 20v5q12 5 34 20t44.5 38t39 53.5t16.5 68.5q0 19 -8 44.5t-30 49t-60.5 40t-99.5 16.5q-57 0 -98 -11.5t-64 -22.5q-9 -6 -11 -10t-2 -11q0 -17 2 -46.5t5 -53.5q1 -11 7 -11q2 0 4.5 2t2.5 10q0 58 35.5 88
t90.5 30q44 0 72 -15t44 -36.5t22 -44.5t6 -39q0 -44 -18 -75.5t-43 -52t-52.5 -32t-45.5 -14.5q-10 -2 -16.5 -4.5t-6.5 -7.5q0 -8 26 -13q24 -5 56 -17t60.5 -34.5t48.5 -57.5t20 -85z" />
    <glyph glyph-name="four" unicode="4" horiz-adv-x="571" 
d="M416 600v44q0 24 0.5 46t0.5 38v22q0 17 -10 17q-8 0 -21 -18l-37.5 -51l-69.5 -94l-84.5 -114l-82 -111l-63 -85t-26.5 -36q-3 -4 -6 -9.5t-3 -11.5q0 -7 6 -9.5t15 -2.5h305v-32v-41t-0.5 -43.5t-1.5 -37.5q-2 -23 -10 -37.5t-33 -18.5q-12 -2 -26 -2.5t-21 -0.5
q-8 0 -8 -8q0 -7 16 -7q21 0 40.5 0.5t35.5 1t26.5 1t13.5 0.5t15 -0.5t30 -1t39 -1t42 -0.5q16 0 16 7q0 8 -9 8q-8 0 -20.5 1t-23.5 3q-24 6 -32.5 19t-10.5 36q-2 16 -2.5 37.5t-0.5 43.5t0.5 41.5t0.5 31.5h92q9 0 13 2.5t8 10.5q3 9 6 22.5t3 17.5t-0.5 8t-4.5 4
q-3 0 -12 -5.5t-29 -5.5h-76v321zM340 279h-256q5 6 24.5 33l46.5 64l57.5 79.5l57 79.5l45.5 64.5l23 33.5h2v-354z" />
    <glyph glyph-name="five" unicode="5" horiz-adv-x="571" 
d="M190 687h189q30 0 47.5 -4.5t26.5 -13t11.5 -20.5t2.5 -26q0 -13 6 -13q3 0 5 3.5t3 7.5q8 55 10.5 87t2.5 39q0 10 -7 10q-2 0 -7 -1t-14 -2q-9 -2 -23 -3t-35 -1h-235q-18 0 -19 -13l-23 -255q-2 -17 26 -18q29 -2 72 -17.5t83.5 -45.5t69.5 -75t29 -105
q0 -52 -15.5 -88.5t-41 -60t-57 -34.5t-62.5 -11q-27 0 -52 5t-44 19.5t-30 39.5t-11 65q0 17 -8 17q-3 0 -5 -5t-4 -13q-2 -12 -3 -28.5t-1 -34.5v-34v-29q0 -8 3 -14.5t16 -13.5q19 -11 44 -14.5t48 -3.5q76 0 132 25t93.5 64.5t56 89t18.5 97.5q0 67 -31 115.5
t-77.5 81.5t-101 51.5t-102.5 25.5z" />
    <glyph glyph-name="six" unicode="6" horiz-adv-x="571" 
d="M446 195q0 -41 -11 -73.5t-30.5 -55t-45.5 -34t-56 -11.5q-43 0 -74.5 22.5t-52 58.5t-30.5 80.5t-10 88.5q0 89 24 163.5t62.5 133.5t86.5 102t96 70l13.5 8.5t5.5 9.5q0 9 -8 9q-5 0 -21 -7q-73 -32 -136 -85t-109.5 -118.5t-73.5 -139t-27 -146.5q0 -68 17 -121.5
t48 -90.5t74 -56.5t96 -19.5q56 0 97 16.5t76 50.5q33 32 52.5 81t19.5 109q0 33 -12 69t-36.5 66t-62.5 49t-90 19q-42 0 -71.5 -12t-44.5 -23q-9 -6 -9 -12q0 -8 4 -8q2 0 6.5 1.5t6.5 2.5q17 8 36 10.5t39 2.5q23 0 49.5 -13.5t49 -39.5t37.5 -65.5t15 -91.5z" />
    <glyph glyph-name="seven" unicode="7" horiz-adv-x="571" 
d="M202 750q-49 0 -69.5 5t-25.5 5q-10 0 -10 -14q0 -4 -2.5 -24.5t-5 -46.5l-5 -51t-2.5 -37q0 -16 6 -16q7 0 9 14q2 21 12 42.5t26 34.5q18 15 44.5 20t48.5 5h246q-57 -98 -105 -195t-86 -184t-65 -159.5t-42 -121.5q-2 -7 -4 -16.5t-2 -17.5q0 -10 9 -10q7 0 23.5 6.5
t33 16.5t29 20t12.5 18t-1 15t1 20q4 32 19 84t37.5 113.5t49.5 127.5t54.5 126.5t54 110.5t46.5 80q4 6 5 11t1 8q0 10 -18 10h-324z" />
    <glyph glyph-name="eight" unicode="8" horiz-adv-x="571" 
d="M53 177q0 -45 18 -81t48.5 -61t72 -38.5t88.5 -13.5q54 0 97.5 18t75 48.5t48.5 70t17 83.5q0 46 -18 81t-44.5 61.5t-56.5 44.5t-55 31q21 10 46 27t46.5 40.5t36 55t14.5 70.5q0 37 -14 65.5t-38.5 48t-58 29.5t-72.5 10q-55 0 -95 -17.5t-66.5 -43.5t-39 -58
t-12.5 -60q0 -33 11 -60.5t30 -50t44.5 -41.5t54.5 -36q-34 -14 -66 -34.5t-57 -48.5t-40 -63t-15 -77zM288 21q-35 0 -64 13.5t-50 36t-32.5 53t-11.5 63.5q0 37 10.5 67.5t29 55t43 42.5t52.5 32q34 -18 65.5 -36.5t56 -42t39.5 -54t15 -71.5q0 -33 -11 -62t-31 -50.5
t-48.5 -34t-62.5 -12.5zM292 733q58 0 91.5 -37t33.5 -94q0 -38 -11 -65.5t-27.5 -46.5t-35 -31.5t-33.5 -21.5q-31 16 -58 33t-47 37t-31.5 44t-11.5 56q0 21 7.5 43t23.5 40.5t40.5 30.5t58.5 12z" />
    <glyph glyph-name="nine" unicode="9" horiz-adv-x="571" 
d="M288 767q-52 0 -95.5 -17t-75.5 -48t-50 -73.5t-18 -94.5q0 -32 11.5 -66t36 -62t63 -46.5t91.5 -18.5q30 0 64 11.5t56 34.5q4 4 4 8q0 7 -5 7q-4 0 -13 -6q-10 -6 -27.5 -12t-52.5 -6q-10 0 -35 7.5t-50.5 29.5t-45 61t-19.5 101q0 30 8.5 57.5t26 48.5t43 34t59.5 13
q33 0 63 -16.5t52.5 -49.5t36 -82.5t13.5 -115.5q0 -88 -26 -163t-66 -134t-88 -102t-92 -67q-10 -5 -10 -14q0 -10 8 -10t16 4q30 15 67.5 39.5t76 58.5t75 77t65 95t45.5 113.5t17 131.5q0 57 -16 106.5t-45.5 86.5t-72 58t-95.5 21z" />
    <glyph glyph-name="colon" unicode=":" horiz-adv-x="250" 
d="M124 30q26 0 41 17t15 41t-16 38t-39 14q-15 0 -25 -5.5t-17 -13.5t-10 -17.5t-3 -18.5q0 -19 12.5 -37t41.5 -18zM124 368q26 0 41 17t15 41t-16 38t-39 14q-15 0 -25 -5.5t-17 -13.5t-10 -17.5t-3 -18.5q0 -19 12.5 -37t41.5 -18z" />
    <glyph glyph-name="semicolon" unicode=";" horiz-adv-x="250" 
d="M116 -2q0 -14 -5.5 -31.5t-18.5 -39.5l-4.5 -7t-2.5 -7q0 -7 7 -7q6 0 13 9q10 12 20 26.5t18.5 29.5t15 28.5l10.5 22.5q4 10 7 21.5t3 17.5q0 7 -3.5 17.5t-13.5 25.5q-8 12 -11 15.5t-7 3.5q-10 0 -21 -4.5t-20 -12t-15 -17.5t-6 -20q0 -5 5.5 -10t11.5 -13
t11.5 -19.5t5.5 -28.5zM124 368q26 0 41 17t15 41t-16 38t-39 14q-15 0 -25 -5.5t-17 -13.5t-10 -17.5t-3 -18.5q0 -19 12.5 -37t41.5 -18z" />
    <glyph glyph-name="less" unicode="&#x3c;" horiz-adv-x="510" 
d="M25 237l426 -198v53l-371 171l371 170v53l-426 -196v-53z" />
    <glyph glyph-name="equal" unicode="=" horiz-adv-x="510" 
d="M468 329v51h-426v-51h426zM468 153v51h-426v-51h426z" />
    <glyph glyph-name="greater" unicode="&#x3e;" horiz-adv-x="510" 
d="M468 237v53l-426 196v-53l372 -170l-372 -171v-53z" />
    <glyph glyph-name="question" unicode="?" horiz-adv-x="488" 
d="M223 733q34 0 56.5 -13.5t36 -33t19 -42t5.5 -40.5q0 -25 -4 -48.5t-14 -48t-27 -52.5t-43 -61q-17 -21 -34.5 -40.5t-34.5 -42.5q-22 -28 -22 -50q0 -14 7 -27t22 -32q9 -11 22 -23t20 -12q3 0 7 3t4 6q0 5 -9 17q-11 14 -15 27t-4 24q0 6 1 13t5.5 16t12.5 21t22 30
q36 45 67.5 79t54.5 65.5t36.5 65t13.5 77.5q0 27 -9.5 54.5t-31.5 50t-56.5 37t-83.5 14.5q-58 0 -100.5 -13t-65.5 -27q-8 -5 -9.5 -8t-1.5 -8v-33t0.5 -35t1.5 -30.5t2 -18.5q1 -10 8 -10q6 0 8 17q2 26 9.5 48.5t25.5 44.5q12 15 36.5 27t61.5 12zM224 -17
q23 0 37.5 15.5t14.5 38.5q0 22 -14.5 35t-36.5 13q-27 0 -39 -17.5t-12 -33.5q0 -17 12 -34t38 -17z" />
    <glyph glyph-name="at" unicode="@" horiz-adv-x="906" 
d="M840 391q0 62 -20 114t-60 89.5t-101 58.5t-143 21q-61 0 -117.5 -17t-106.5 -47.5t-91.5 -72.5t-71.5 -92.5t-46.5 -108t-16.5 -117.5q0 -84 26.5 -145.5t72 -102t105.5 -60t127 -19.5q50 0 95.5 9.5t83.5 25t67.5 35t49.5 38.5q11 11 14.5 17.5t1.5 9.5q-2 4 -8.5 3.5
t-18.5 -10.5q-25 -20 -50.5 -37t-56 -29t-68.5 -18.5t-88 -6.5q-63 0 -115.5 20t-90.5 58.5t-59 93.5t-21 126q0 89 26 166t74.5 134t118 89.5t157.5 32.5q70 0 123.5 -20.5t89.5 -55.5t54 -83t18 -102q0 -57 -13.5 -103.5t-35 -78.5t-50 -49.5t-58.5 -17.5
q-26 0 -39.5 11.5t-19.5 31t-6 43.5q0 25 2 52q1 15 3.5 35.5t6.5 42l8 41.5t8 34q9 32 21 53t16 27q2 5 -0.5 9t-7.5 2q-7 -2 -16 -7.5t-17 -12t-15 -13t-10 -10.5q-7 3 -20 7.5t-36 4.5q-24 0 -60 -15.5t-69 -40.5q-11 -8 -31 -26.5t-39.5 -47.5t-34 -70t-14.5 -94
q0 -39 15.5 -67t37.5 -28q32 0 82 36.5t100 111.5l3 -1q-1 -20 -1.5 -33.5t0.5 -25t2.5 -21t4.5 -20.5q7 -24 27 -37.5t43 -13.5q62 0 125 42t98.5 108t35.5 144zM545 437l-12 -37t-8.5 -31l-7.5 -31.5t-8 -38.5q-13 -22 -32.5 -46.5t-40 -45.5t-40 -35t-32.5 -14
q-6 0 -10.5 6t-7.5 15t-4.5 20t-1.5 20q0 33 8 71.5t22 72.5q21 48 49 70t65 22q16 0 34.5 -6.5t26.5 -11.5z" />
    <glyph glyph-name="A" unicode="A" horiz-adv-x="700" 
d="M95 107q-14 -38 -31.5 -63.5t-52.5 -30.5q-6 -1 -15 -1.5t-14 -0.5q-9 0 -9 -6q0 -8 19 -8q18 0 36 0.5t34 1t27.5 1t15.5 0.5t13.5 -0.5t20.5 -1l23 -1t21 -0.5q15 0 15 8q0 6 -10 6h-10q-13 0 -25.5 7t-12.5 22q0 28 14 67l60 177q3 8 10 8h215q6 0 9 -6l93 -246
q5 -12 2 -18.5t-8 -8.5q-7 -2 -7 -7t8 -5.5t22 -1.5q26 -1 51.5 -1.5t46.5 -0.5h37h22q8 0 14 1.5t6 6.5q0 6 -10 6q-8 0 -18.5 1t-21.5 5q-8 2 -17.5 7t-20 17t-23 33t-25.5 54l-37.5 95l-47 120.5l-49.5 128.5l-45.5 119.5l-35 92.5t-18.5 47q-9 23 -13 29.5t-9 6.5t-9 -7
t-13 -32zM235 328q-6 0 -3 7l88 270q7 22 15 0l95 -270q2 -7 -4 -7h-191z" />
    <glyph glyph-name="B" unicode="B" horiz-adv-x="687" 
d="M178 287q0 -72 -0.5 -128.5t-4.5 -88.5q-3 -22 -8.5 -37t-20.5 -18q-7 -2 -15 -3t-15 -1q-8 0 -8 -6q0 -8 16 -8q11 0 27 1t31 1q16 1 27 1h13q3 0 21 -0.5t40 -2.5l43 -2t29 -1q64 0 112 19t79.5 50t47.5 70t16 79q0 44 -16.5 79t-42 61.5t-56 44t-58.5 26.5
q18 18 34.5 37t30 40.5t21.5 46.5t8 56q0 19 -8 44.5t-30.5 49t-61.5 40t-100 16.5q-35 0 -63 -1.5t-46 -1.5q-2 0 -13.5 0.5t-28 1t-35.5 1t-36 0.5q-16 0 -16 -8q0 -6 8 -6q7 0 17.5 -0.5t16.5 -2.5q25 -5 33 -18t10 -39q1 -12 1.5 -25.5t0.5 -36.5v-59v-95v-176zM258 709
q0 8 12 11t26 4t22 1q37 0 62.5 -15t41.5 -39.5t23.5 -55.5t7.5 -62t-10 -57t-26 -44q-8 -9 -15.5 -14t-17 -8t-23.5 -3.5t-35 -0.5q-28 0 -42 1.5t-19 2.5q-7 3 -7 11v268zM258 392q0 7 6 7h17h23t22.5 -0.5t15.5 -1.5q18 -2 37.5 -7t45.5 -22q29 -20 47.5 -45t29.5 -52
t15.5 -54t4.5 -49q0 -42 -14.5 -69.5t-36 -43.5t-46 -22.5t-44.5 -6.5q-7 0 -17.5 0.5t-23 2t-25 4.5t-22.5 8q-12 6 -18 12t-9.5 14.5t-4.5 21t-2 30.5q0 6 -0.5 29.5t-0.5 55.5v67v64v57z" />
    <glyph glyph-name="C" unicode="C" horiz-adv-x="805" 
d="M515 -17q24 0 49.5 1.5t49.5 4t45 7t36 10.5q14 6 17.5 10.5t8.5 18.5q4 13 8 33.5t7 40.5t5 35.5t2 18.5q0 6 -1.5 10.5t-5.5 4.5q-7 0 -10 -15q-2 -14 -11.5 -40.5t-25.5 -43.5q-30 -31 -73.5 -40.5t-100.5 -9.5q-80 0 -146.5 30.5t-114 81t-74 116.5t-26.5 138
q0 77 17.5 142.5t72.5 118.5q13 13 32 26t46.5 23.5t64.5 17t87 6.5q66 0 120 -17t80 -40q20 -17 31 -45t11 -57q0 -21 8 -21t9 21q0 6 0.5 18t0.5 27t0.5 30.5t1.5 27.5q2 27 3.5 38.5t1.5 17.5q0 5 -2.5 7.5t-10.5 3.5q-24 2 -48.5 6l-53.5 9q-37 7 -76 9.5t-69 2.5
q-58 0 -104.5 -8.5t-83.5 -22.5t-66 -34t-51 -42q-33 -33 -55 -70.5t-34.5 -74t-17.5 -70t-5 -58.5q0 -36 5.5 -74.5t19 -76.5t37 -75t59.5 -70q60 -54 138.5 -81t191.5 -27z" />
    <glyph glyph-name="D" unicode="D" horiz-adv-x="917" 
d="M178 287q0 -72 -0.5 -128.5t-4.5 -88.5q-3 -22 -8.5 -37t-20.5 -18q-7 -2 -15 -3t-15 -1q-8 0 -8 -6q0 -8 16 -8q11 0 27 1t31 1q16 1 27 1h13q4 0 27 -2t56 -4q32 -2 69.5 -4t69.5 -2q64 0 113 11.5t86 29t62.5 37.5t41.5 37q21 22 40.5 51t34.5 64.5t24 77.5t9 89
q0 45 -8 83t-21.5 69.5t-31 56.5t-36.5 45q-45 46 -99 69.5t-109 33.5t-105.5 10.5t-87.5 0.5q-23 0 -45 -0.5t-40.5 -1t-32 -1t-17.5 -0.5q-2 0 -13.5 0.5t-28 1t-35.5 1t-36 0.5q-16 0 -16 -8q0 -6 8 -6q7 0 17.5 -0.5t16.5 -2.5q25 -5 33 -18t10 -39q1 -12 1.5 -25.5
t0.5 -36.5v-59v-95v-176zM262 479v61v61q0 30 0.5 54t0.5 37q0 15 12 20q3 1 10.5 2.5t17.5 2.5t19.5 1.5t17.5 0.5q45 0 88.5 -3.5t84.5 -15.5t80 -34.5t74 -59.5q15 -16 32 -39.5t31.5 -55t23.5 -70.5t9 -87q0 -35 -5 -69t-15.5 -65.5t-25.5 -58.5t-34 -46
q-45 -45 -106.5 -69t-131.5 -24q-44 0 -74.5 3.5t-50 9.5t-30 13t-15.5 14q-3 4 -5 13t-3 20l-2 22.5t-1 20.5q0 7 -0.5 27t-1 49t-0.5 65v76v124z" />
    <glyph glyph-name="E" unicode="E" horiz-adv-x="610" 
d="M178 287q0 -72 -0.5 -128.5t-4.5 -88.5q-3 -22 -8.5 -37t-20.5 -18q-7 -2 -15 -3t-15 -1q-8 0 -8 -6q0 -8 16 -8q11 0 27 1t31 1q16 1 27 1h13q11 0 30 -0.5t48 -2.5q29 -1 70.5 -2t98.5 -1q15 0 24 0.5t15 3t9 7.5t6 15q2 8 4 23l4 30.5l3.5 28t1.5 15.5q0 5 -0.5 10
t-5.5 5q-6 0 -9 -15q-5 -31 -15 -47.5t-30 -24.5t-48 -9.5t-48 -1.5q-37 0 -59 3t-34.5 12t-17 25t-5.5 42v31v50v52v38v88q0 7 7 7q6 0 25.5 -0.5t42 -1t44 -1.5t31.5 -2q29 -3 39 -13.5t13 -21.5q3 -10 3.5 -17.5t0.5 -15.5q0 -9 7 -9q5 0 6 6.5t1 12.5q0 3 0.5 10.5t1 17
l1 19t1.5 17.5q2 25 5 38t3 18q0 8 -5 8q-4 0 -15 -13q-7 -8 -18 -10t-29 -4q-9 -1 -33 -1.5t-51 -0.5h-48h-27q-6 0 -6 10v276q0 10 6 10h23q20 0 43 -0.5l44 -1t27 -1.5q40 -5 53 -13.5t18 -20.5q4 -9 5 -20t1 -16q0 -13 8 -13q3 0 4.5 3.5t2.5 7.5t1.5 13.5t1.5 20
t1.5 19.5t0.5 13q2 21 5 31.5t3 15.5q0 9 -4 9t-7 -2t-7 -3q-14 -3 -43 -5q-9 0 -44.5 -0.5t-76.5 -0.5h-73h-35l-41 2q-17 1 -36 1h-36q-16 0 -16 -8q0 -6 8 -6q7 0 17.5 -0.5t16.5 -2.5q25 -5 33 -18t10 -39q1 -12 1.5 -25.5t0.5 -36.5v-59v-95v-176z" />
    <glyph glyph-name="F" unicode="F" horiz-adv-x="592" 
d="M178 287q0 -72 -0.5 -128.5t-4.5 -88.5q-3 -22 -8.5 -37t-20.5 -18q-7 -2 -15 -3t-15 -1q-8 0 -8 -6q0 -8 16 -8q11 0 27 0.5l31 1t26.5 1t13.5 0.5t13.5 -0.5t29 -1t38.5 -1t42 -0.5q16 0 16 8q0 6 -8 6q-7 0 -20.5 1t-24.5 3q-23 3 -30 18t-9 37q-4 32 -4.5 88.5
t-0.5 128.5v85q0 9 7 9h27t45.5 -0.5l47 -1t31.5 -1.5q23 -3 35.5 -14t16.5 -22q3 -9 4 -18.5t2 -17.5q0 -9 7 -9q5 0 6 6t1 13q0 3 0.5 11t1 18l1 20t1.5 18q2 25 5 38t3 18q0 8 -5 8q-3 0 -5.5 -3t-5.5 -7q-7 -10 -17.5 -13t-28.5 -5q-11 -1 -22 -1h-23l-128 -1q-7 0 -7 9
v276q0 11 9 11l154 -3q29 -1 46 -11.5t22 -20.5t7 -21t2 -17q0 -12 7 -12q4 0 5.5 3.5t2.5 7.5t1.5 13.5t1.5 20t1.5 19.5t0.5 13q2 21 5 31.5t3 15.5q0 9 -6 9q-3 0 -6 -2t-8 -4q-7 -2 -18.5 -2.5t-25.5 -1.5q-6 0 -25 -0.5t-45 -0.5h-54h-55h-44h-23l-41 2q-17 1 -36 1
h-36q-16 0 -16 -8q0 -6 8 -6q7 0 17.5 -0.5t16.5 -2.5q25 -5 33 -18t10 -39q1 -12 1.5 -25.5t0.5 -36.5v-59v-95v-176z" />
    <glyph glyph-name="G" unicode="G" horiz-adv-x="862" 
d="M653 82q0 -24 -20 -35q-10 -6 -24 -10t-29.5 -6.5t-31.5 -3.5t-29 -1q-69 0 -135.5 24.5t-126.5 82.5q-13 13 -31.5 38t-35 60.5t-28 80.5t-11.5 98q0 88 27.5 153.5t71.5 100.5q28 22 56.5 35.5t55.5 20t52.5 8.5t49.5 2q48 0 87.5 -7.5t69 -19t49.5 -26t29 -28.5
q11 -18 15.5 -36.5t5.5 -29.5q2 -15 7 -15t7 4.5t2 16.5q0 37 1 62t2.5 41t2.5 25t1 14q0 3 -2 5.5t-10 3.5q-19 1 -42 3.5t-39 6.5q-7 1 -23 4t-37 6t-45 5t-48 2q-29 0 -61.5 -2t-66.5 -8.5t-69 -19t-69 -33.5q-33 -21 -63.5 -52.5t-53.5 -73t-36.5 -92.5t-13.5 -111
q0 -47 10 -90t26.5 -79.5t38 -66t44.5 -49.5q42 -36 87.5 -57.5t90 -32.5t83.5 -14t68 -3q22 0 48.5 2t55 7.5t56.5 14t52 21.5q4 3 7 5t4 7.5t1.5 15t0.5 26.5v112v56t2 48q2 26 9.5 39.5t27.5 17.5q9 2 14.5 2.5t10.5 0.5q8 0 8 6q0 8 -16 8q-11 0 -27 -0.5l-31 -1
t-26.5 -1t-13.5 -0.5t-13.5 0.5t-28 1t-35.5 1t-36 0.5q-16 0 -16 -8q0 -6 8 -6q7 0 17.5 -0.5t16.5 -2.5q15 -4 24 -9.5t13.5 -16t6 -29t1.5 -48.5v-170z" />
    <glyph glyph-name="H" unicode="H" horiz-adv-x="960" 
d="M782 463v95v59q0 23 0.5 36.5t1.5 25.5q2 26 9.5 39.5t27.5 17.5q9 2 14.5 2.5t10.5 0.5q8 0 8 6q0 8 -16 8q-11 0 -27 -0.5l-31 -1t-26.5 -1t-13.5 -0.5t-13.5 0.5t-28 1t-35.5 1t-36 0.5q-16 0 -16 -8q0 -6 8 -6q7 0 17.5 -0.5t16.5 -2.5q25 -5 33 -18t10 -39
q1 -12 1.5 -25.5t0.5 -36.5v-59v-95v-21q0 -6 -6 -6h-424q-6 0 -6 6v21v95v59q0 23 0.5 36.5t1.5 25.5q2 26 9.5 39.5t27.5 17.5q9 2 14.5 2.5t10.5 0.5q8 0 8 6q0 8 -16 8q-11 0 -27 -0.5l-31 -1t-26.5 -1t-13.5 -0.5t-13.5 0.5t-28 1t-35.5 1t-36 0.5q-16 0 -16 -8
q0 -6 8 -6q7 0 17.5 -0.5t16.5 -2.5q25 -5 33 -18t10 -39q1 -12 1.5 -25.5t0.5 -36.5v-59v-95v-176q0 -72 -0.5 -128.5t-4.5 -88.5q-3 -22 -8.5 -37t-20.5 -18q-7 -2 -15 -3t-15 -1q-8 0 -8 -6q0 -8 16 -8q11 0 27 0.5l31 1t26.5 1t13.5 0.5t13.5 -0.5t29 -1t38.5 -1
t42 -0.5q16 0 16 8q0 6 -8 6q-7 0 -20.5 1t-24.5 3q-23 3 -30 18t-9 37q-4 32 -4.5 88.5t-0.5 128.5v105q0 6 6 6h424q6 0 6 -6v-105q0 -72 -0.5 -128.5t-4.5 -88.5q-3 -22 -8.5 -37t-20.5 -18q-7 -2 -15 -3t-15 -1q-8 0 -8 -6q0 -8 16 -8q11 0 27 0.5l31 1t26.5 1t13.5 0.5
t13.5 -0.5t29 -1t38.5 -1t42 -0.5q16 0 16 8q0 6 -8 6q-7 0 -20.5 1t-24.5 3q-23 3 -30 18t-9 37q-4 32 -4.5 88.5t-0.5 128.5v176z" />
    <glyph glyph-name="I" unicode="I" horiz-adv-x="440" 
d="M262 463v95v59q0 23 0.5 36.5t1.5 25.5q2 26 9.5 39.5t27.5 17.5q9 2 14.5 2.5t10.5 0.5q8 0 8 6q0 8 -16 8q-11 0 -27 -0.5l-31 -1t-26.5 -1t-13.5 -0.5t-13.5 0.5t-26.5 1t-32 1t-29 0.5q-16 0 -16 -8q0 -6 8 -6q5 0 14 -1t17 -3q31 -7 34 -56q1 -12 1.5 -25.5
t0.5 -36.5v-59v-95v-176q0 -72 -0.5 -128.5t-4.5 -88.5q-3 -22 -8.5 -37t-20.5 -18q-7 -2 -15 -3t-15 -1q-8 0 -8 -6q0 -8 16 -8q11 0 27 0.5l31 1t26.5 1t13.5 0.5t13.5 -0.5t29 -1t38.5 -1t42 -0.5q16 0 16 8q0 6 -8 6q-7 0 -20.5 1t-24.5 3q-23 3 -30 18t-9 37
q-4 32 -4.5 88.5t-0.5 128.5v176z" />
    <glyph glyph-name="J" unicode="J" horiz-adv-x="414" 
d="M262 463v95v59q0 23 0.5 36.5t1.5 25.5q2 26 9.5 39.5t27.5 17.5q9 2 14.5 2.5t10.5 0.5q8 0 8 6q0 8 -16 8q-11 0 -27 -0.5l-31 -1t-26.5 -1t-13.5 -0.5t-13.5 0.5t-28 1t-35.5 1t-36 0.5q-16 0 -16 -8q0 -6 8 -6q7 0 17.5 -0.5t16.5 -2.5q25 -5 33 -18t10 -39
q1 -12 1.5 -25.5t0.5 -36.5v-59v-95v-289q0 -97 -6 -158.5t-18 -102t-30 -66t-42 -50.5q-7 -7 -16.5 -15t-18.5 -13l-10.5 -7.5t-3.5 -7.5q0 -6 7 -6q3 0 7 2q8 4 18.5 11l20.5 14q61 42 95.5 78.5t50.5 74.5q11 27 17 53.5t9 60t3.5 77t0.5 104.5v240z" />
    <glyph glyph-name="K" unicode="K" horiz-adv-x="752" 
d="M178 287q0 -72 -0.5 -128.5t-4.5 -88.5q-3 -22 -8.5 -37t-20.5 -18q-7 -2 -15 -3t-15 -1q-8 0 -8 -6q0 -8 16 -8q11 0 26.5 0.5l30 1t25.5 1t14 0.5t14.5 -0.5t27.5 -1t35.5 -1t37.5 -0.5q16 0 16 8q0 6 -8 6q-7 0 -17.5 1t-21.5 3q-23 3 -30 18t-9 37q-4 32 -4.5 88.5
t-0.5 128.5v98h5q12 -15 36 -42l54.5 -60l63.5 -68.5l62.5 -67l53.5 -55t35 -32.5l29.5 -23.5t27 -18t29 -12.5t35.5 -7q17 -2 32 -2h37h51q13 0 17.5 2t4.5 6q0 6 -13 6q-5 0 -23.5 2.5t-38.5 10.5q-18 7 -31.5 15t-29.5 20t-36.5 31l-51.5 48q-10 9 -32.5 32l-51 51.5
l-59.5 60.5l-58 60.5l-47.5 49.5t-26.5 28q5 6 21.5 23l39 39.5l48 47.5l48 47l40 39l23.5 23l30 29t25.5 23.5t25 18.5t27.5 15q31 14 56 14q10 0 10 7t-15 7q-9 0 -24.5 -0.5l-31 -1t-27 -1t-13.5 -0.5q-18 0 -39 1.5t-36 1.5q-12 0 -12 -7q0 -4 9 -8q13 -5 13 -21
q0 -13 -16.5 -31.5l-37.5 -40.5l-28.5 -30.5l-44 -45.5l-51.5 -52.5l-50 -51l-39.5 -40.5t-20.5 -22h-4v60v95v59q0 23 0.5 36.5t1.5 25.5q2 26 9.5 39.5t27.5 17.5q9 2 14.5 2.5t10.5 0.5q8 0 8 6q0 8 -16 8q-11 0 -26.5 -0.5l-30 -1t-26 -1t-14.5 -0.5q-2 0 -13.5 0.5
t-27 1t-34 1t-35.5 0.5q-16 0 -16 -8q0 -6 8 -6q7 0 17.5 -0.5t16.5 -2.5q25 -5 33 -18t10 -39q1 -12 1.5 -25.5t0.5 -36.5v-59v-95v-176z" />
    <glyph glyph-name="L" unicode="L" horiz-adv-x="592" 
d="M262 463v95v59q0 23 0.5 36.5t1.5 25.5q2 26 9.5 39.5t29.5 17.5q9 2 18.5 2.5t14.5 0.5q8 0 8 6q0 8 -16 8q-11 0 -28.5 -0.5l-34.5 -1t-30 -1t-15 -0.5t-13.5 0.5t-28 1t-35.5 1t-36 0.5q-16 0 -16 -8q0 -6 8 -6q7 0 17.5 -0.5t16.5 -2.5q25 -5 33 -18t10 -39
q1 -12 1.5 -25.5t0.5 -36.5v-59v-95v-176q0 -72 -0.5 -128.5t-4.5 -88.5q-3 -22 -8.5 -37t-20.5 -18q-7 -2 -15 -3t-15 -1q-8 0 -8 -6q0 -8 16 -8q11 0 26.5 0.5t30.5 1.5q15 0 26.5 0.5t14.5 0.5q22 0 46 -0.5t56 -2.5q32 -1 72 -2t94 -1q20 0 31.5 1t17.5 4t8.5 8t5.5 14
q3 11 5.5 26.5l5 30.5t3.5 27t1 16q0 15 -6 15q-7 0 -9 -13q-2 -14 -9 -31t-17 -29q-18 -22 -49.5 -26t-71.5 -4q-29 0 -49.5 1.5t-34 4t-22 7t-14.5 10.5q-14 13 -18 66t-4 163v178z" />
    <glyph glyph-name="M" unicode="M" horiz-adv-x="1050" 
d="M855 740q-3 27 -12 27q-8 0 -15 -16l-294 -628l-306 629q-7 15 -15 15q-9 0 -11 -18l-72 -652q-3 -29 -9 -53.5t-31 -29.5q-11 -2 -17.5 -2.5t-12.5 -0.5q-10 0 -10 -5q0 -9 17 -9q10 0 23 0.5l25.5 1t22.5 1t13 0.5t12.5 -0.5t23 -1t28.5 -1t29 -0.5q18 0 18 9q0 5 -8 5
q-5 0 -15 1t-23 4q-11 2 -18.5 11t-7.5 20v26t1 25l40 464h4l13 -29.5l24 -52.5l29.5 -64l29.5 -63.5l24 -50.5l12 -25l17 -33.5l34 -67.5l37.5 -75.5t28.5 -55.5q14 -27 20 -36.5t11 -9.5q7 0 12 10l21 43l245 520h3l48 -516q2 -14 1 -24.5t-5 -11.5q-7 -1 -7 -7
q0 -4 5.5 -6t22.5 -4q14 -1 38.5 -2l50.5 -2t48 -1.5t30 -0.5q9 0 15 2t6 7t-8 5t-25.5 1t-39.5 8q-16 5 -26 17.5t-15.5 27.5t-8.5 31t-4 30z" />
    <glyph glyph-name="N" unicode="N" horiz-adv-x="947" 
d="M192 612l38 -42.5l61 -67.5l76.5 -84.5l85.5 -92.5l84 -89l82 -85.5l64.5 -66l30.5 -30.5l32.5 -32.5t20.5 -19.5t12.5 -9.5t7.5 -2.5t4.5 2t2.5 9t1.5 21t0.5 39l2 586q0 45 6 64.5t31 24.5q9 2 14.5 2.5t9.5 0.5q11 0 11 7t-18 7q-31 0 -54 -1.5t-31 -1.5
q-4 0 -14.5 0.5t-25 1t-31 1t-33.5 0.5q-20 0 -20 -7t8 -7q6 0 20.5 -1t28.5 -4q23 -6 30.5 -26t8.5 -69l11 -508q-12 12 -37 39.5l-58 63.5l-70.5 77l-74.5 81l-112.5 121l-98.5 106l-72.5 78.5t-34.5 37.5q-8 8 -18.5 20t-16.5 12t-8.5 -10.5t-2.5 -39.5l-1 -573
q0 -68 -5.5 -95t-24.5 -32q-11 -4 -23 -5t-18 -1q-8 0 -8 -6q0 -8 16 -8q34 0 61.5 1.5t34.5 1.5t35 -1.5t71 -1.5q18 0 18 8q0 6 -8 6q-7 0 -21.5 1t-28.5 5q-10 3 -17 10t-11.5 20.5t-7 34t-3.5 51.5z" />
    <glyph glyph-name="O" unicode="O" horiz-adv-x="915" 
d="M64 376q0 -68 22 -137.5t69 -126.5t120.5 -93t176.5 -36q90 0 164 32.5t126 88t80.5 130t28.5 158.5q0 87 -30 156.5t-82.5 118t-124.5 74.5t-156 26q-69 0 -125 -17.5t-100 -47.5t-75.5 -69.5t-52.5 -83t-31 -88.5t-10 -85zM159 404q0 82 22 143.5t61 103t92.5 62
t116.5 20.5q59 0 114 -24t97 -70.5t67.5 -115.5t25.5 -159q0 -109 -30.5 -176.5t-74 -104.5t-90.5 -49.5t-81 -12.5q-68 0 -126 27t-101.5 77t-68 121t-24.5 158z" />
    <glyph glyph-name="P" unicode="P" horiz-adv-x="642" 
d="M178 287q0 -72 -0.5 -128.5t-4.5 -88.5q-3 -22 -8.5 -37t-20.5 -18q-7 -2 -15 -3t-15 -1q-8 0 -8 -6q0 -8 16 -8q11 0 27 0.5l31 1t26 1t12 0.5q2 0 13.5 -0.5t29 -1t38.5 -1t42 -0.5q16 0 16 8q0 6 -8 6q-7 0 -20.5 1t-24.5 3q-23 3 -30 18t-9 37q-4 32 -4.5 88.5
t-0.5 128.5v411q0 16 8 19q7 3 18.5 4.5t24.5 1.5h24t33.5 -4.5t39 -15t40.5 -30.5t31 -42t16.5 -43t7 -39t1.5 -30q0 -35 -13.5 -64.5t-36.5 -51.5t-55 -34.5t-68 -12.5q-16 0 -21.5 -1.5t-5.5 -7.5q0 -4 3.5 -5.5t7.5 -1.5q4 -1 10 -1h11q53 0 98 17t78 48.5t51.5 75.5
t18.5 97q0 40 -16.5 71.5t-33.5 47.5q-6 6 -18 15.5t-34 18.5t-54.5 16t-79.5 7q-35 0 -72 -1.5t-54 -1.5q-3 0 -14.5 0.5t-28 1t-35 1t-35.5 0.5q-16 0 -16 -8q0 -6 8 -6q7 0 17.5 -0.5t16.5 -2.5q25 -5 33 -18t10 -39q1 -12 1.5 -25.5t0.5 -36.5v-59v-95v-176z" />
    <glyph glyph-name="Q" unicode="Q" horiz-adv-x="920" 
d="M780 -76q122 -68 221.5 -101t190.5 -33q55 0 103.5 7t89 17.5t72 22.5t52.5 22q8 4 8 10t-6 6q-2 0 -5.5 -1t-8.5 -3q-52 -21 -105.5 -30t-91.5 -9q-19 0 -56 2.5t-91 14t-123 35.5t-151 66l-205 106q25 16 55.5 46t57.5 72.5t45.5 97t18.5 120.5q0 87 -30 156.5
t-82.5 118t-124.5 74.5t-156 26q-69 0 -125 -17.5t-100 -47.5t-75.5 -69.5t-52.5 -83t-31 -88.5t-10 -85q0 -68 22 -137.5t69.5 -126.5t121.5 -93t178 -36q20 0 42 2.5t43 7t39.5 11t32.5 13.5zM159 404q0 82 22 143.5t61 103t92.5 62t116.5 20.5q59 0 114 -24t97 -70.5
t67.5 -115.5t25.5 -159q0 -109 -30.5 -176.5t-74 -104.5t-90.5 -49.5t-81 -12.5q-68 0 -126 27t-101.5 77t-68 121t-24.5 158z" />
    <glyph glyph-name="R" unicode="R" horiz-adv-x="754" 
d="M178 287q0 -72 -0.5 -128.5t-4.5 -88.5q-3 -22 -8.5 -37t-20.5 -18q-7 -2 -15 -3t-15 -1q-8 0 -8 -6q0 -8 16 -8q11 0 27 0.5l31 1t25.5 1l10.5 0.5q2 0 13.5 -0.5t29 -1t38.5 -1t42 -0.5q16 0 16 8q0 6 -8 6q-7 0 -20.5 1t-24.5 3q-23 3 -30 18t-9 37q-4 32 -4.5 88.5
t-0.5 128.5v24q0 8 7 8l123 -2q7 0 13 -6q7 -10 19.5 -26.5l27 -36.5l30.5 -42l32 -43q43 -57 73 -93.5t62 -53.5q19 -11 42 -15t65 -4h71q14 0 19 1.5t5 6.5q0 6 -9 6q-5 0 -15 0.5t-24 2.5q-19 3 -50 16t-72 56q-44 47 -95 112l-113 144q67 62 94 118.5t27 112.5
q0 26 -7.5 48t-18 39t-22.5 29.5t-21 19.5q-40 29 -87.5 36.5t-95.5 7.5q-12 0 -30 -0.5l-36.5 -1t-33 -1t-18.5 -0.5q-2 0 -13.5 0.5t-28 1t-35.5 1t-36 0.5q-16 0 -16 -8q0 -6 8 -6q7 0 17.5 -0.5t16.5 -2.5q25 -5 33 -18t10 -39q1 -12 1.5 -25.5t0.5 -36.5v-59v-95v-176z
M258 703q0 9 8 12q8 2 26 4t41 2q81 0 127 -53t46 -147q0 -57 -17.5 -96.5t-43.5 -57.5q-17 -12 -37 -15.5t-38 -3.5q-33 0 -63.5 4.5t-41.5 11.5q-7 4 -7 12v327z" />
    <glyph glyph-name="S" unicode="S" horiz-adv-x="570" 
d="M248 -17q41 0 80 9.5t71 32.5q26 18 42.5 40.5t26 45.5t13 44t3.5 36q0 30 -6 57.5t-22.5 55t-45 57.5t-72.5 65l-28 22q-36 28 -59.5 50t-37.5 41t-19.5 37.5t-5.5 39.5q0 55 35.5 85.5t87.5 30.5q34 0 57 -6.5t37.5 -15.5t21.5 -18t9 -13q5 -8 8.5 -24.5t4.5 -25.5
q1 -6 2 -9.5t6 -3.5q7 0 7 23q0 51 2 76.5t2 29.5q0 7 -10 7q-6 0 -13.5 1t-21.5 4q-19 5 -41.5 7.5t-51.5 2.5q-48 0 -86 -13t-65 -37t-41.5 -57t-14.5 -73q0 -26 5.5 -50.5t20 -51t39.5 -54.5t65 -61l45 -37q32 -27 54 -48.5t35.5 -42t19.5 -42t6 -47.5q0 -24 -9 -48
t-26.5 -42.5t-44.5 -30.5t-63 -12q-25 0 -49 5.5t-44.5 17.5t-34.5 31.5t-20 47.5q-2 11 -2.5 20.5t-0.5 16.5q0 11 -7 11t-8 -16q-1 -12 -3 -40t-2 -66q0 -20 2 -26.5t13 -11.5q31 -15 65 -21t69 -6z" />
    <glyph glyph-name="T" unicode="T" horiz-adv-x="691" 
d="M391 710l126 -2q36 -1 59.5 -5.5t37 -11.5t19.5 -17t7 -21l1 -11q1 -11 2.5 -14t5.5 -3q7 0 7 13q0 4 0.5 17.5t1 30.5l1 34t0.5 28q0 5 -0.5 8.5t-4.5 3.5q-3 0 -10 -1.5t-18 -3.5q-12 -2 -29.5 -3.5t-41.5 -1.5h-375q-9 0 -33 1.5t-46 3.5q-20 2 -29.5 7t-14.5 5
q-3 0 -5.5 -7t-4.5 -12q-1 -3 -4.5 -18l-7.5 -33t-7 -33.5t-3 -19.5q0 -9 5 -9q6 0 10 10q2 5 5.5 11.5t11.5 19.5q6 9 14 15t20 9.5t28.5 5.5t39.5 2l148 2v-423q0 -72 -0.5 -128.5t-4.5 -88.5q-3 -22 -8.5 -37t-20.5 -18q-7 -2 -15 -3t-15 -1q-8 0 -8 -6q0 -8 16 -8
q11 0 27 0.5l31 1t26.5 1t13.5 0.5t13.5 -0.5t29 -1t38.5 -1t42 -0.5q16 0 16 8q0 6 -8 6q-7 0 -20.5 1t-24.5 3q-23 3 -30 18t-9 37q-4 32 -4.5 88.5t-0.5 128.5v423z" />
    <glyph glyph-name="U" unicode="U" horiz-adv-x="830" 
d="M120 317q0 -55 6.5 -96t18.5 -72.5t28 -54t34 -40.5q27 -25 57.5 -39.5t59.5 -21.5t52.5 -8.5t36.5 -1.5q22 0 47 2.5t51 10.5t53.5 22.5t54.5 38.5q30 27 48 61.5t28 74t13 81t3 82.5v107v95v59q0 23 0.5 36.5t1.5 25.5q2 26 9.5 39t27.5 18q9 2 14.5 2.5t10.5 0.5
q8 0 8 6q0 8 -16 8q-11 0 -24.5 -0.5l-26 -1t-21.5 -1t-12 -0.5q-2 0 -12.5 0.5t-25.5 1t-33 1t-35 0.5q-16 0 -16 -8q0 -6 8 -6q7 0 17.5 -0.5t16.5 -2.5q25 -5 33 -18t10 -39q1 -12 1.5 -25.5t0.5 -36.5v-59v-95v-125q0 -78 -11.5 -140t-46.5 -105q-27 -32 -69 -52
t-88 -20q-43 0 -78.5 10t-72.5 45q-16 15 -30 35.5t-24 49.5t-15.5 68.5t-5.5 93.5v140v95v59q0 23 0.5 36.5t1.5 25.5q2 26 9.5 40t27.5 17q9 2 14.5 2.5t10.5 0.5q8 0 8 6q0 8 -16 8q-11 0 -26.5 -0.5l-30.5 -1t-27 -1t-15 -0.5t-15.5 0.5t-29 1t-35 1t-35.5 0.5
q-16 0 -16 -8q0 -6 8 -6q7 0 17.5 -0.5t16.5 -2.5q25 -5 33 -18t10 -39q1 -12 1.5 -25.5t0.5 -36.5v-59v-95v-146z" />
    <glyph glyph-name="V" unicode="V" horiz-adv-x="742" 
d="M203 631l-19 51t-8 32q0 5 2.5 10.5t10.5 9.5q7 3 18.5 4t19.5 1q10 0 10 7t-27 7q-29 0 -57 -1.5t-36 -1.5q-5 0 -17 0.5t-28 1t-35 1t-37 0.5q-26 0 -26 -7t8 -7q5 0 16 -0.5t22 -3.5q13 -4 23 -8.5t18 -13t15.5 -21.5t15.5 -34l245 -613q14 -36 20.5 -49t15.5 -13
q7 0 14 15.5l28 60.5q17 37 50 115l79 188l37.5 90l33.5 81l26 63t15 37q10 25 18 42t14.5 27.5t12 16t10.5 8.5q14 9 28.5 10.5t19.5 1.5q12 0 12 7t-17 7q-11 0 -23.5 -0.5l-24 -1t-20 -1t-10.5 -0.5q-9 0 -38.5 1.5t-59.5 1.5q-22 0 -22 -8q0 -6 11 -6q8 0 18.5 -0.5
t19.5 -3.5q8 -4 10.5 -10.5t2.5 -12.5q0 -7 -2.5 -17t-6.5 -21l-19.5 -57l-32.5 -89.5l-41.5 -108l-44.5 -113l-42 -104.5l-34 -83z" />
    <glyph glyph-name="W" unicode="W" horiz-adv-x="1100" 
d="M599 702q-9 26 -14.5 36.5t-10.5 10.5t-9.5 -7.5t-15.5 -38.5l-212 -570h-2q-4 13 -14 49.5l-24 85l-29 103l-29 104t-24 88l-14 54.5l-13.5 57.5t-5.5 34.5t4 16t9 8q9 5 21 5.5t18 0.5q10 0 10 7q0 3 -3.5 5t-14.5 2q-38 0 -67 -1.5t-36 -1.5q-4 0 -15.5 0.5t-28 1
t-36 1t-38.5 0.5q-16 0 -16 -7t9 -7q5 0 20 -1t25 -5q19 -8 31 -23t24 -55l178 -593q7 -26 12 -41.5t9 -23.5t7 -11t7 -3q9 0 15 10.5t18 42.5l25.5 66.5l36.5 97.5l42.5 112.5l42.5 112.5l36.5 98l25.5 68h2l196 -556q11 -29 16.5 -40.5t13.5 -11.5q4 0 7.5 3t8 12t10.5 26
l16 45t24 71.5l31 94.5l35 106.5l35.5 108.5l32.5 98.5l26 77.5q14 42 28 71t37 37q8 3 19.5 4t14.5 1q9 0 9 8q0 6 -14 6q-12 0 -25 -0.5t-24.5 -1t-20 -1t-11.5 -0.5q-7 0 -35.5 1.5t-66.5 1.5q-17 0 -17 -7t9 -7q35 0 46 -8t11 -22q0 -10 -1.5 -23t-9.5 -41l-22 -76
l-27.5 -93l-30.5 -99.5l-30 -96.5l-25.5 -84l-18.5 -61h-4z" />
    <glyph glyph-name="X" unicode="X" horiz-adv-x="694" 
d="M124 97q-24 -38 -42 -56.5t-41 -24.5q-11 -3 -21.5 -4t-16.5 -1q-8 0 -8 -7t10 -7q12 0 26.5 0.5l28 1t23.5 1t13 0.5t15 -0.5t27 -1l30 -1t24 -0.5q12 0 12 7t-8 7q-4 0 -9 0.5t-10 1.5q-16 4 -16 19q0 8 3 20t10 24l156 265l88 -150l84 -148q7 -12 3 -19t-8 -9
q-6 -2 -6 -8q0 -4 5.5 -5.5t25.5 -2.5q38 -2 76 -2h84q14 0 14 8q0 6 -8 6q-5 0 -14.5 1.5t-20.5 4.5q-22 7 -34.5 18t-24.5 27q-5 7 -21.5 33l-38.5 62.5l-46.5 77.5l-46 77.5l-37.5 63.5l-21 35l161 242q22 32 38.5 53t38.5 28q8 3 18 4t15 1q11 0 11 7t-16 7
q-26 0 -51.5 -1.5t-32.5 -1.5t-33.5 1.5t-55.5 1.5q-17 0 -17 -7t9 -7q5 0 13.5 -0.5t16.5 -2.5q17 -5 17 -18q0 -9 -2.5 -17t-7.5 -19l-12.5 -21.5l-23.5 -39l-30 -48.5l-31.5 -50.5l-29 -44.5l-20.5 -31l-71 122l-64 117q-10 18 -10 33q0 13 12 17q6 2 14 2.5t13 0.5
q9 0 9 7q0 4 -3 5.5t-14 1.5q-13 0 -28 -0.5t-28.5 -1t-24 -1t-13.5 -0.5t-17.5 0.5t-33.5 1l-37.5 1t-28.5 0.5q-17 0 -17 -7t9 -7q5 0 17.5 -1.5t24.5 -5.5q26 -9 43.5 -30t34.5 -50l160 -269z" />
    <glyph glyph-name="Y" unicode="Y" horiz-adv-x="654" 
d="M289 170q0 -12 -0.5 -40t-2.5 -60q-2 -22 -9 -37t-22 -18q-7 -2 -15 -3t-15 -1q-8 0 -8 -6q0 -8 16 -8q11 0 27 0.5l31 1t26.5 1t13.5 0.5t13.5 -0.5t29 -1t38.5 -1t42 -0.5q16 0 16 8q0 6 -8 6q-7 0 -20.5 1t-24.5 3q-23 3 -31 18t-10 37q-2 32 -2.5 60t-0.5 40v86
q0 25 2 49t13 51q4 11 18 36l32.5 57l39.5 67.5l41 67l36 56t24 34.5q17 20 27.5 31t25.5 20q12 8 25 11t21 3q13 0 13 8q0 6 -13 6q-7 0 -22.5 -0.5l-31 -1t-28.5 -1t-15 -0.5q-6 0 -26 1.5t-40 1.5q-16 0 -16 -6q0 -5 15 -10q9 -2 12.5 -9.5t3.5 -18.5q0 -10 -3.5 -22.5
t-13.5 -28.5l-18 -30l-30 -51.5l-35.5 -62.5l-35.5 -62.5l-29.5 -53t-17.5 -34.5q-5 7 -19 31.5l-33 57l-40.5 69.5l-40.5 69.5l-33 57l-18 31.5q-6 11 -9.5 20.5t-3.5 18.5q0 11 13 18q7 3 11 4.5t4 4.5t-2.5 5t-10.5 2q-29 0 -54 -1.5t-30 -1.5q-2 0 -15 0.5t-29.5 1
l-32 1t-22.5 0.5q-13 0 -13 -7t10 -7q7 0 19.5 -4t23.5 -12q14 -9 31.5 -27.5t36.5 -46.5q9 -13 25 -38.5l35 -56l38.5 -63l36.5 -60t28 -47t13 -23.5q5 -11 9 -21t7 -22t5 -27t2 -35v-86z" />
    <glyph glyph-name="Z" unicode="Z" horiz-adv-x="692" 
d="M184 40l227 345l221 345q3 5 3.5 7t0.5 5q0 8 -20 8h-279h-63t-111 3q-20 1 -27.5 4t-14.5 3t-10 -19l-5.5 -31.5t-6.5 -41.5l-5.5 -38.5t-2.5 -21.5q0 -13 6 -13q4 0 6.5 3.5t4.5 14.5q2 17 16 41t41 38q12 6 29 10t36 6.5t39.5 3t39.5 0.5h217l-216 -338.5l-223 -337.5
q-9 -14 -11.5 -19t-2.5 -9q0 -8 18 -8q132 0 258 -2.5t252 -2.5q9 0 13.5 0.5t7.5 3.5t5 8t4 14l5.5 24t6.5 31.5t5.5 32t2.5 27.5q0 14 -1.5 18.5t-6.5 4.5q-6 0 -9 -16q-2 -11 -7.5 -27.5t-12.5 -26.5q-8 -11 -19 -20t-28.5 -15.5t-44.5 -10t-66 -3.5h-272z" />
    <glyph glyph-name="bracketleft" unicode="[" horiz-adv-x="360" 
d="M97 -108q0 -11 2.5 -13.5t13.5 -2.5h170q12 0 12 7t-17 8q-23 2 -54 6t-54 15q-7 29 -7 93v610q0 64 7 93q23 10 54.5 14.5t54.5 6.5q17 1 17 8t-12 7h-170q-11 0 -14 -2.5t-3 -10.5v-839z" />
    <glyph glyph-name="backslash" unicode="\" horiz-adv-x="524" 
d="M503 6q7 3 0 14l-438 702q-6 9 -14 4l-28 -17q-6 -4 -2 -10l441 -709q3 -5 5.5 -5.5t5.5 1.5z" />
    <glyph glyph-name="bracketright" unicode="]" horiz-adv-x="360" 
d="M263 728q0 11 -2.5 13.5t-13.5 2.5h-170q-12 0 -12 -7t17 -8q23 -2 54 -6t54 -15q7 -29 7 -93v-610q0 -64 -7 -93q-23 -11 -55 -15t-54 -6q-17 -1 -17 -8t12 -7h170q11 0 14 2.5t3 10.5v839z" />
    <glyph glyph-name="asciicircum" unicode="^" horiz-adv-x="510" 
d="M229 751l-199 -426h54l171 371l171 -371h54l-199 426h-52z" />
    <glyph glyph-name="underscore" unicode="_" horiz-adv-x="500" 
d="M0 -75v-50h500v50h-500z" />
    <glyph glyph-name="quoteleft" unicode="&#x2018;" horiz-adv-x="200" 
d="M115 659q0 43 11 81t22 62q4 9 4 13q0 5 -5 5q-8 0 -13 -8q-13 -16 -28 -38.5t-28 -49t-21.5 -54.5t-8.5 -55q0 -11 4 -16t13 -10l15.5 -5l19.5 -6t19.5 -5t15.5 -2q3 0 6 2t3 4q0 4 -1.5 7t-7.5 10q-5 6 -12.5 24t-7.5 41z" />
    <glyph glyph-name="a" unicode="a" horiz-adv-x="624" 
d="M82 91q-13 -32 -28.5 -53t-45.5 -25q-5 -1 -13 -1.5t-13 -0.5q-8 0 -8 -7t17 -7q13 0 27.5 0.5t27 1t22 1t12.5 0.5q4 0 13.5 -0.5t21.5 -1l24 -1t20 -0.5q13 0 13 7t-9 7h-8q-11 0 -20.5 5t-9.5 18q0 23 13 57l50 136q3 7 9 7h203q5 0 8 -5l79 -195q5 -11 0.5 -16
t-8.5 -7q-3 -2 -4.5 -2.5t-1.5 -3.5q0 -4 9 -4.5t22 -1.5q23 -1 45.5 -1.5t41.5 -0.5h33h19q8 0 14 1.5t6 5.5t-3.5 5.5t-7.5 1.5q-7 0 -16 1t-19 4q-7 2 -15 6t-17.5 14t-20 27t-22.5 46l-33.5 80.5l-41.5 102.5l-44.5 109.5l-41.5 102l-32.5 79.5t-17.5 42
q-7 14 -10.5 22.5t-10.5 8.5q-5 0 -9 -6t-12 -27zM209 269q-5 0 -3 6l82 233q7 19 15 0l87 -233q1 -6 -3 -6h-178z" />
    <glyph glyph-name="b" unicode="b" horiz-adv-x="614" 
d="M155 244q0 -62 -0.5 -110t-4.5 -74q-3 -19 -6.5 -32t-16.5 -15q-6 -1 -13.5 -2.5t-13.5 -1.5q-7 0 -7 -5q0 -7 14 -7q11 0 25 0.5t28 1.5q14 0 24 0.5t12 0.5q3 0 19.5 -0.5t37.5 -1.5q21 -2 42.5 -2.5t33.5 -0.5q56 0 97.5 16t69 42.5t41 60.5t13.5 70t-15 65.5
t-37.5 51.5t-50 37t-52.5 23l33 30.5t28.5 33.5t20 39t7.5 46q0 17 -8 39.5t-29 42.5t-57 34t-91 14q-31 0 -59 -1t-44 -1q-2 0 -12.5 0.5t-25.5 0.5t-32 0.5t-32 0.5q-14 0 -14 -7q0 -5 7 -5q6 0 15.5 -0.5t14.5 -1.5q22 -3 28 -15t8 -34q1 -10 1.5 -21.5t0.5 -31.5v-50
v-80v-150zM231 600q0 6 11 9q11 2 24 3t21 1q33 0 56.5 -12.5t38.5 -32t22 -44t7 -48.5q0 -31 -10 -53t-24 -38q-14 -15 -31.5 -18.5t-54.5 -3.5q-25 0 -37.5 1.5t-16.5 2.5q-6 1 -6 9v224zM231 329q0 6 5 6h15h20q11 0 20.5 -0.5t13.5 -1.5q16 -3 36 -5.5t43 -16.5
q26 -17 42.5 -37.5t25.5 -42t12.5 -41.5t3.5 -34q0 -41 -12 -66.5t-31 -40t-41.5 -19.5t-44.5 -5q-12 0 -35.5 2t-41.5 10q-10 5 -15.5 10t-8.5 11.5t-4 17t-2 25.5q0 5 -0.5 24.5t-0.5 45.5v56v55v47z" />
    <glyph glyph-name="c" unicode="c" horiz-adv-x="708" 
d="M452 -14q43 0 87.5 4t71.5 15q11 5 14.5 9t7.5 16q3 11 7 28.5t7 34.5t5 30.5t2 15.5q0 5 -2.5 8.5t-5.5 3.5q-5 0 -6 -2.5t-3 -9.5q-2 -12 -11 -34.5t-23 -36.5q-26 -26 -60.5 -33t-84.5 -7q-71 0 -129 25t-100 67.5t-65 98.5t-23 117q0 65 15 121t64 101
q12 11 28.5 21.5t40 19t55.5 13.5t74 5q59 0 104.5 -13.5t68.5 -33.5q17 -14 27 -37t10 -48q0 -18 7 -18q9 0 10 18q0 4 0.5 14.5t0.5 22.5q0 13 0.5 26t0.5 24q2 23 3 33t1 15q0 9 -11 9q-22 1 -43.5 4.5t-46.5 8.5q-32 5 -67 7.5t-61 2.5q-51 0 -91.5 -7t-73 -19.5
t-58 -29t-45.5 -35.5q-29 -29 -48.5 -60.5t-30.5 -62.5t-15.5 -59.5t-4.5 -49.5q0 -30 4.5 -63t16.5 -65.5t33 -64t53 -59.5q52 -45 121 -68t169 -23z" />
    <glyph glyph-name="d" unicode="d" horiz-adv-x="809" 
d="M155 244q0 -62 -0.5 -110t-4.5 -74q-3 -19 -6.5 -30.5t-16.5 -14.5q-6 -2 -13.5 -3t-13.5 -1q-7 0 -7 -7t14 -7q11 0 25 0.5t28 1.5q14 0 24 0.5t12 0.5q3 0 23 -1.5l49 -3.5t61.5 -3.5t61.5 -1.5q56 0 99.5 10t76 24.5t55 31.5t36.5 32q18 19 35.5 43.5t30.5 54.5
t21 65.5t8 75.5q0 76 -26.5 129.5t-59.5 86.5q-39 39 -86.5 59.5t-96 28.5t-93 8.5t-77.5 0.5q-20 0 -39 -0.5t-36 -0.5q-16 0 -27.5 -0.5t-15.5 -0.5q-2 0 -12.5 0.5t-25.5 0.5t-32 0.5t-32 0.5q-14 0 -14 -7t7 -7q6 0 15.5 -0.5t14.5 -1.5q22 -3 28 -14t8 -33
q1 -10 1.5 -21.5t0.5 -31.5v-50v-80v-150zM235 586q0 13 11 17q6 2 23 4t30 2q39 0 77 -3t74 -13t69.5 -29t64.5 -50q13 -14 28 -33.5t27 -46t20 -60t8 -73.5q0 -29 -4.5 -58.5t-13 -56t-21.5 -49t-30 -38.5q-40 -38 -92.5 -57.5t-113.5 -19.5q-39 0 -65 3t-42.5 8t-25.5 11
t-13 12q-5 7 -7 26t-3 35q0 6 -0.5 23t-0.5 41v56v65v284z" />
    <glyph glyph-name="e" unicode="e" horiz-adv-x="551" 
d="M155 244q0 -62 -0.5 -110t-4.5 -74q-3 -19 -6.5 -31t-16.5 -14q-6 -1 -13.5 -2.5t-13.5 -1.5q-7 0 -7 -7t14 -7q11 0 24.5 0.5t26.5 1.5q14 1 25 1h13h27q18 0 46 -2q27 -1 65 -2t88 -1q13 0 21.5 0.5t13.5 2.5t8.5 6.5t5.5 12.5q2 7 4 19.5l4 26t3 24t1 12.5q0 5 -1 9
t-5 4q-6 0 -9 -13q-4 -26 -13.5 -38.5t-26.5 -20.5q-17 -7 -44 -8t-44 -1q-33 0 -53 2.5t-31.5 10t-15.5 21t-5 34.5v25v43v44v33v71q0 6 6 6h24t39 -0.5t41 -1.5t29 -2q26 -3 34.5 -10t10.5 -16q3 -8 3.5 -15t0.5 -13q0 -8 6 -8q5 0 6.5 5.5t1.5 10.5t1 23.5t3 31.5
q2 21 4.5 32t2.5 15q0 7 -5 7q-2 0 -13 -11q-7 -7 -17 -8.5t-26 -3.5q-8 -1 -30 -1.5t-47 -0.5h-46h-24q-5 0 -5 9v231q0 9 5 9h22t39.5 -0.5t40.5 -1t25 -1.5q18 -2 29 -4.5t18 -5.5t10.5 -7t5.5 -9q3 -8 4 -16.5t1 -13.5q0 -11 7 -11q3 0 5 3t3 6q1 4 1.5 12t1.5 17
t1.5 16.5t0.5 10.5q2 18 4.5 26.5t2.5 13.5q0 8 -4 8q-3 0 -6 -1.5t-6 -2.5q-5 -1 -16 -2.5t-24 -2.5h-22h-40h-49h-47h-36h-16q-2 0 -12.5 0.5t-25.5 0.5t-32 0.5t-32 0.5q-14 0 -14 -7t7 -7q6 0 15.5 -0.5t14.5 -1.5q22 -3 28 -14t8 -33q1 -10 1.5 -21.5t0.5 -31.5v-50
v-80v-150z" />
    <glyph glyph-name="f" unicode="f" 
d="M155 244q0 -62 -0.5 -110t-4.5 -74q-3 -19 -6.5 -31t-16.5 -14q-6 -1 -13.5 -2.5t-13.5 -1.5q-7 0 -7 -7t14 -7q10 0 24 0.5l27.5 1t23.5 1t12 0.5q1 0 11.5 -0.5t26.5 -1t35 -1t37 -0.5q14 0 14 7t-7 7q-6 0 -18 1t-22 3q-18 3 -24 14.5t-8 30.5q-3 25 -3.5 73t-0.5 111
v68q0 8 6 8h25h43t44 -0.5t29 -1.5q20 -3 31 -10.5t14 -16.5q3 -8 4 -16t2 -15q0 -8 6 -8q5 0 6.5 5.5t1.5 11.5q0 5 0.5 24.5t2.5 32.5q2 21 5 32t3 15q0 7 -5 7q-4 0 -11 -9q-6 -8 -15.5 -10.5t-25.5 -4.5q-9 -1 -19 -1h-21l-120 -1q-5 0 -5.5 2t-0.5 6v232q0 9 7 9
l144 -2q26 0 41 -8.5t19 -16.5t6 -17.5t2 -14.5q0 -10 7 -10q3 0 5 3t3 6q1 4 1.5 12t1 17t1 16.5t0.5 10.5q2 18 4.5 26.5t2.5 13.5q0 8 -6 8q-2 0 -5 -2t-7 -3q-6 -2 -16.5 -2.5t-23.5 -1.5h-23h-41h-51h-51h-41h-21q-2 0 -12 0.5t-25 0.5q-14 0 -31 0.5t-32 0.5
q-14 0 -14 -7t7 -7q6 0 15.5 -0.5t14.5 -1.5q22 -3 28 -14t8 -33q1 -10 1.5 -21.5t0.5 -31.5v-50v-80v-150z" />
    <glyph glyph-name="g" unicode="g" horiz-adv-x="759" 
d="M569 67q0 -12 -5 -16.5t-13 -9.5q-17 -10 -44.5 -13t-50.5 -3q-61 0 -116.5 20t-108.5 69q-12 11 -28 32t-30.5 51t-24.5 68.5t-10 83.5q0 75 24.5 130t62.5 84q50 38 97 46.5t87 8.5q86 0 136 -21t67 -45q11 -15 15 -31.5t5 -24.5q0 -13 6 -13q5 0 7.5 3.5t2.5 14.5
q0 32 1 53t1.5 34.5t1.5 20.5t1 12q0 8 -11 8q-17 0 -37 3t-34 6l-20 3.5t-32.5 5t-40 4t-42.5 1.5q-51 0 -112.5 -9t-121.5 -45q-29 -18 -56 -44.5t-47 -61.5t-32 -78.5t-12 -94.5q0 -40 9 -76.5t23.5 -67.5t33.5 -56t39 -42q37 -31 77.5 -49t79.5 -27.5t73.5 -12
t59.5 -2.5q19 0 43 2t49 6.5t49.5 11.5t45.5 18q8 4 10 10.5t2 35.5v95v47q0 21 1 41q2 23 8.5 33.5t24.5 13.5q8 2 12 2h10q7 0 7 7t-14 7q-10 0 -24 -0.5t-28 -0.5q-13 0 -23 -0.5t-11 -0.5q-2 0 -13 0.5t-26 0.5t-32.5 0.5t-32.5 0.5q-14 0 -14 -7t7 -7q6 0 15.5 -0.5
t14.5 -1.5q13 -3 21 -7t11.5 -13t4.5 -24.5t1 -41.5v-147z" />
    <glyph glyph-name="h" unicode="h" horiz-adv-x="847" 
d="M692 394v80v50q0 20 0.5 31.5t1.5 21.5q2 23 7.5 33t22.5 14q8 2 12 2h10q8 0 8 7t-15 7q-10 0 -24 -0.5t-28 -0.5q-13 0 -23 -0.5t-12 -0.5t-12 0.5t-25 0.5t-31.5 0.5t-31.5 0.5q-14 0 -14 -7t7 -7q6 0 15.5 -0.5t14.5 -1.5q22 -3 27.5 -14t7.5 -33q0 -10 0.5 -21.5
t1 -31.5t0.5 -52v-80v-18q0 -5 -5 -5h-367q-5 0 -5 5v18v80v52t0.5 31.5t0.5 21.5q2 23 7.5 33t23.5 14q8 2 12 2h10q7 0 7 7t-14 7q-10 0 -24.5 -0.5t-28.5 -0.5q-13 0 -23 -0.5t-11 -0.5q-2 0 -12.5 0.5t-25.5 0.5q-14 0 -31 0.5t-32 0.5q-14 0 -14 -7t7 -7q6 0 15.5 -0.5
t14.5 -1.5q22 -3 28 -14t8 -33q1 -10 1.5 -21.5t0.5 -31.5v-50v-80v-150q0 -62 -0.5 -110t-4.5 -74q-3 -19 -6.5 -30.5t-16.5 -14.5q-6 -2 -13.5 -3t-13.5 -1q-7 0 -7 -7t14 -7q10 0 24.5 0.5l28 1t23.5 1t12 0.5q1 0 11.5 -0.5t26 -1t34.5 -1t37 -0.5q14 0 14 7t-7 7
q-6 0 -18 1t-22 3q-20 3 -25 14.5t-7 30.5q-3 26 -3.5 73t-0.5 109v85q0 5 5 5h367q5 0 5 -5v-85q0 -62 -0.5 -108.5t-3.5 -72.5q-2 -19 -6 -31t-18 -15q-6 -2 -13 -3t-13 -1q-7 0 -7 -7t14 -7q10 0 24 0.5l27.5 1t23.5 1t12 0.5t12.5 -0.5t26 -1t34 -1t36.5 -0.5q15 0 15 7
t-8 7q-5 0 -17.5 1t-21.5 3q-20 3 -25 14.5t-7 30.5q-3 26 -4 74t-1 110v150z" />
    <glyph glyph-name="i" unicode="i" horiz-adv-x="389" 
d="M235 394v80v50q0 20 0.5 31.5t0.5 21.5q2 23 7.5 33t23.5 14q8 2 12 2h10q7 0 7 7t-14 7q-10 0 -24.5 -0.5t-28.5 -0.5q-13 0 -23.5 -0.5t-11.5 -0.5q-2 0 -12 0.5t-24 0.5q-13 0 -27.5 0.5t-25.5 0.5q-14 0 -14 -7t7 -7q5 0 12 -0.5t15 -2.5q14 -3 20 -13.5t8 -32.5
q1 -10 1.5 -21.5t0.5 -31.5v-50v-80v-150q0 -62 -1 -110t-4 -74q-2 -19 -6 -30.5t-17 -14.5q-6 -2 -13.5 -3t-13.5 -1q-7 0 -7 -7t14 -7q10 0 24 0.5l27.5 1t23.5 1t12 0.5q1 0 11.5 -0.5t26.5 -1t35 -1t37 -0.5q14 0 14 7t-7 7q-6 0 -18 1t-22 3q-20 3 -25 14.5t-7 30.5
q-3 26 -3.5 74t-0.5 110v150z" />
    <glyph glyph-name="j" unicode="j" horiz-adv-x="369" 
d="M235 394v80v50q0 20 0.5 31.5t0.5 21.5q2 23 7.5 33t23.5 14q8 2 12 2h10q7 0 7 7t-14 7q-10 0 -24 -0.5t-28 -0.5q-13 0 -23 -0.5t-11 -0.5q-2 0 -12.5 0.5t-25.5 0.5t-32 0.5t-32 0.5q-14 0 -14 -7t7 -7q6 0 15.5 -0.5t14.5 -1.5q22 -3 28 -14t8 -33q1 -10 1.5 -21.5
t0.5 -31.5v-50v-80v-246q0 -82 -5 -134.5t-15.5 -86.5t-26.5 -56t-37 -43q-6 -5 -14.5 -11.5t-16.5 -11.5q-11 -7 -11 -14q0 -3 2 -4t4 -1t3.5 0.5t2.5 0.5l17 10t19 12q54 35 84.5 66.5t44.5 63.5q10 22 15.5 45t8.5 51.5t4 65.5t1 89v204z" />
    <glyph glyph-name="k" unicode="k" horiz-adv-x="666" 
d="M155 244q0 -62 -0.5 -110t-4.5 -74q-3 -19 -6.5 -30.5t-16.5 -14.5q-6 -2 -13.5 -3t-13.5 -1q-7 0 -7 -7t14 -7q10 0 24 0.5l27 1t23 1t13 0.5t13 -0.5t25 -1t32 -1t33 -0.5q14 0 14 7t-7 7q-6 0 -15.5 1t-18.5 3q-20 3 -26 14.5t-8 30.5q-3 26 -3.5 74t-0.5 110v83h4
q10 -13 31.5 -36l47.5 -51l55 -58l55.5 -56.5l47 -46.5t30.5 -28l26 -20t24.5 -15.5t26 -11t30.5 -5.5q15 -2 28 -2h33h45q11 0 15 2t4 5q0 7 -11 7q-5 0 -21 2.5t-33 9.5q-16 6 -27 12.5t-24 16t-30 25l-45 40.5q-9 8 -29 27.5l-45 44l-52 52l-51 51.5l-41.5 42l-23.5 24
l19.5 19.5l33.5 33.5l41 40l42 40l34.5 33t20.5 19q29 28 47 44t45 28q13 5 26 8.5t23 3.5q9 0 9 7q0 6 -13 6q-8 0 -21.5 -0.5t-27.5 -0.5q-13 0 -23.5 -0.5t-12.5 -0.5q-16 0 -34 1t-32 1q-10 0 -10 -6t8 -8q11 -2 11 -17q0 -11 -14.5 -26.5l-33.5 -34.5q-8 -9 -25.5 -26
l-39 -38.5l-44.5 -44.5l-43 -43l-34.5 -34.5t-17.5 -18.5h-4v51v80v50q0 20 0.5 31.5t1.5 21.5q2 23 8 33t23 14q8 2 12 2h10q7 0 7 7t-14 7q-10 0 -23.5 -0.5t-26.5 -0.5t-23.5 -0.5t-13.5 -0.5q-2 0 -12 0.5t-25 0.5q-14 0 -30.5 0.5t-31.5 0.5q-14 0 -14 -7t7 -7
q6 0 15.5 -0.5t14.5 -1.5q22 -3 28 -14t8 -33q1 -10 1.5 -21.5t0.5 -31.5v-50v-80v-150z" />
    <glyph glyph-name="l" unicode="l" 
d="M235 394v80v50q0 20 0.5 31.5t0.5 21.5q2 23 7.5 33.5t25.5 14.5q8 1 16 1.5t13 0.5q7 0 7 6q0 7 -14 7q-10 0 -26 -0.5t-31 -0.5t-27 -0.5t-13 -0.5q-2 0 -12 0.5t-25 0.5q-14 0 -31 0.5t-32 0.5q-14 0 -14 -7t7 -7q6 0 15.5 -0.5t14.5 -1.5q22 -3 28 -14t8 -33
q1 -10 1.5 -21.5t0.5 -31.5v-50v-80v-150q0 -62 -0.5 -110t-4.5 -74q-3 -19 -6.5 -30.5t-16.5 -14.5q-6 -2 -13.5 -3t-13.5 -1q-7 0 -7 -7t14 -7q11 0 24 0.5t27 1.5q13 1 23 1h13q20 0 43 -0.5t53 -1.5q61 -3 153 -3q18 0 28 1t15.5 3t8 6.5t4.5 12.5q3 9 5 22.5l4 26t3 23
t1 13.5q0 13 -6 13q-7 0 -9 -11q-2 -13 -7.5 -25.5t-13.5 -22.5q-16 -19 -43.5 -22.5t-62.5 -3.5q-52 0 -79 4.5t-38 15.5q-6 6 -9.5 19t-5.5 35.5t-2.5 56t-0.5 80.5v152z" />
    <glyph glyph-name="m" unicode="m" horiz-adv-x="924" 
d="M754 629q-3 23 -13 23q-7 0 -14 -14l-256 -527l-266 528q-7 13 -18 13q-8 0 -10 -15l-64 -555q-3 -24 -7.5 -44t-26.5 -24q-10 -2 -15.5 -2.5t-10.5 -0.5q-9 0 -9 -6q0 -8 15 -8q9 0 20.5 0.5l22.5 1t19.5 1t11.5 0.5t11.5 -0.5t20 -1t25 -1t25.5 -0.5q16 0 16 8
q0 6 -7 6q-5 0 -14 1t-20 4q-21 5 -21 24v22t1 21l34 384h4l20.5 -43.5l31.5 -65.5l33.5 -69l26.5 -54q8 -17 22 -44l29 -56l29 -55l23 -42q13 -23 18.5 -31t11.5 -8t11.5 8.5t19.5 36.5l212 434h2l42 -430q2 -12 1 -20.5t-5 -9.5q-6 -2 -6 -7q0 -3 4.5 -5t20.5 -4
q12 -1 34 -2t45.5 -1.5t43 -1t27.5 -0.5t13 2t5 6q0 6 -7 6t-22.5 1t-34.5 7q-14 4 -22 14.5t-13 23t-7 26t-3 24.5z" />
    <glyph glyph-name="n" unicode="n" horiz-adv-x="833" 
d="M182 514l32.5 -35l53.5 -56.5l67.5 -71l74.5 -78.5l74 -75.5l72 -73l56.5 -56l26.5 -25.5l29.5 -27t19 -15.5t11.5 -7.5t7 -2q2 0 3.5 1.5t2 8t1 18.5t0.5 33l2 498q0 19 1 32t4 21.5t9 13.5t17 7q8 2 13 2h8q5 0 7.5 3t2.5 5q0 6 -16 6q-27 0 -47 -1t-28 -1t-35 1t-57 1
q-17 0 -17 -6q0 -2 1 -5t6 -3t18 -1t25 -3q20 -4 26 -21t7 -58l9 -426l-31.5 33l-50 53l-61 64.5l-65.5 68.5l-99 102l-86 90l-63 66.5l-30 31.5l-16.5 16.5t-17.5 9.5q-5 0 -8.5 -8.5t-3.5 -34.5v-487q0 -29 -1 -48.5t-3.5 -31.5t-7.5 -18t-13 -8q-10 -3 -20.5 -4t-15.5 -1
q-7 0 -7 -7t14 -7q30 0 54.5 1.5t30.5 1.5t30.5 -1.5t62.5 -1.5q16 0 16 7t-7 7q-6 0 -19 1t-25 4q-9 2 -15 7.5t-10 17t-6 29t-3 43.5z" />
    <glyph glyph-name="o" unicode="o" horiz-adv-x="808" 
d="M55 320q0 -57 20 -116.5t62 -108t107 -79t155 -30.5q79 0 144.5 27.5t111.5 74.5t71.5 110.5t25.5 134.5q0 74 -26.5 133t-73 100.5t-110.5 63.5t-138 22q-91 0 -157 -32.5t-108.5 -82t-63 -108t-20.5 -109.5zM146 343q0 69 19 121t52.5 86.5t80 52t101.5 17.5
q52 0 99.5 -20t84 -59t58 -97.5t21.5 -134.5q0 -92 -26 -148.5t-63.5 -87.5t-78 -41.5t-70.5 -10.5q-60 0 -110.5 22.5t-88 64.5t-58.5 101.5t-21 133.5z" />
    <glyph glyph-name="p" unicode="p" horiz-adv-x="586" 
d="M155 244q0 -62 -0.5 -110t-4.5 -74q-3 -19 -6.5 -30.5t-16.5 -14.5q-6 -2 -13.5 -3t-13.5 -1q-7 0 -7 -7t14 -7q10 0 24.5 0.5l28 1t23.5 1t11 0.5t12 -0.5t26.5 -1t34.5 -1t37 -0.5q14 0 14 7t-7 7q-6 0 -18 1t-21 3q-20 3 -26.5 14.5t-8.5 30.5q-3 26 -3.5 74t-0.5 110
v346q0 15 7 16q7 2 22.5 4t26.5 2h20q14 0 30 -3.5t34 -12t35 -25.5q18 -17 28 -35.5t15 -36t6 -32.5t1 -25q0 -29 -12 -54t-34 -43.5t-51.5 -29t-65.5 -10.5q-14 0 -18.5 -2t-4.5 -7q0 -3 3 -5.5t6 -2.5q4 -1 12 -1h13q51 0 92.5 14.5t71.5 41t46.5 64t16.5 83.5
q0 35 -14.5 61.5t-29.5 40.5q-6 5 -17 13t-30.5 16t-49 13.5t-71.5 5.5q-15 0 -33.5 -0.5t-36.5 -0.5t-33 -0.5t-22 -0.5q-3 0 -13.5 0.5t-25.5 0.5q-14 0 -31 0.5t-32 0.5q-14 0 -14 -7t7 -7q6 0 15.5 -0.5t14.5 -1.5q22 -3 28 -14t8 -33q1 -10 1.5 -21.5t0.5 -31.5v-50
v-80v-150z" />
    <glyph glyph-name="q" unicode="q" horiz-adv-x="810" 
d="M684 -67q107 -58 195 -85t169 -27q49 0 91.5 6t78.5 15t63.5 19.5t46.5 18.5q7 3 7 9q0 2 -1.5 4t-3.5 2q-4 0 -13 -3q-46 -17 -92.5 -25t-79.5 -8q-17 0 -49.5 2.5t-79.5 12t-107.5 29.5t-132.5 56l-180 89q22 13 49 38.5t50.5 61.5t39.5 82.5t16 102.5q0 74 -26.5 133
t-73 100.5t-110.5 63.5t-138 22q-91 0 -157 -32.5t-108.5 -82t-63 -108t-20.5 -109.5q0 -57 19.5 -116.5t61.5 -108t107.5 -79t156.5 -30.5q18 0 37 2t38 5t35.5 8t28.5 11zM144 343q0 70 19 122t52.5 86.5t80 51.5t101.5 17q52 0 100 -20t84.5 -59.5t58 -97.5t21.5 -134
q0 -61 -12 -106.5t-32 -77.5t-45.5 -52t-52 -31.5t-52 -16t-45.5 -4.5q-60 0 -110.5 22.5t-88 64.5t-58.5 101.5t-21 133.5z" />
    <glyph glyph-name="r" unicode="r" horiz-adv-x="672" 
d="M155 244q0 -62 -0.5 -110t-4.5 -74q-3 -19 -6.5 -30.5t-16.5 -14.5q-6 -2 -13.5 -3t-13.5 -1q-7 0 -7 -7t14 -7q10 0 25 0.5t28.5 1t23.5 1l10 0.5q1 0 11.5 -0.5t26 -1t34 -1t36.5 -0.5q14 0 14 7t-7 7q-6 0 -18 1t-21 3q-20 3 -26.5 14.5t-8.5 30.5q-3 26 -3.5 73.5
t-0.5 109.5v20q0 7 6 7l112 -2q7 0 12 -5l17.5 -23l23 -30.5l26.5 -35l28 -35.5l64.5 -79t55.5 -46q17 -9 36.5 -13t57.5 -4h55q12 0 16.5 1.5t4.5 5.5q0 7 -8 7q-4 0 -11 0.5t-20 2.5q-17 2 -40 12.5t-58 46.5q-38 40 -84 96l-100 124q61 52 84.5 99.5t23.5 94.5
q0 22 -6.5 40.5t-16 33.5t-20 25.5t-18.5 16.5q-35 24 -78.5 30.5t-85.5 6.5q-10 0 -27.5 -0.5t-34.5 -0.5t-31 -0.5t-17 -0.5q-2 0 -13 0.5t-26 0.5t-32.5 0.5t-32.5 0.5q-14 0 -14 -7t7 -7q6 0 15.5 -0.5t14.5 -1.5q22 -3 28 -14t8 -33q1 -10 1.5 -21.5t0.5 -31.5v-50v-80
v-150zM231 595q0 6 7 10q7 2 25 3.5t38 1.5q71 0 111.5 -43.5t40.5 -123.5q0 -49 -15 -82t-38 -48q-16 -11 -33 -13t-33 -2q-15 0 -30 1t-28.5 3t-23.5 4t-15 5q-6 4 -6 11v273z" />
    <glyph glyph-name="s" unicode="s" horiz-adv-x="524" 
d="M209 -14q36 0 74 6t66 24q47 31 64.5 69t17.5 76q0 27 -7.5 52.5t-24.5 50t-44.5 50t-67.5 52.5l-25 17q-33 22 -54.5 39.5t-35 34t-19 33.5t-5.5 37q0 45 34.5 68.5t82.5 23.5q30 0 50.5 -5t34 -12t20.5 -14t9 -11q4 -7 8 -20.5t5 -21.5q1 -5 2 -8t6 -3q7 0 7 19
q0 44 2 65.5t2 24.5q0 6 -9 6q-5 0 -11.5 0.5t-19.5 3.5q-16 4 -40.5 7t-50.5 3q-44 0 -79.5 -11t-61.5 -31.5t-40 -50.5t-14 -67q0 -44 27.5 -86.5t98.5 -95.5l40 -30l50 -39t34.5 -33.5t20 -34.5t6.5 -41q0 -48 -33 -80.5t-99 -32.5q-22 0 -44.5 4.5t-42 14.5t-33.5 26
t-19 39q-2 9 -2.5 17.5t-0.5 13.5q0 10 -8 10q-7 0 -7 -14l-3 -34.5t-2 -55.5q0 -17 2 -22t11 -10q27 -13 62 -18t66 -5z" />
    <glyph glyph-name="t" unicode="t" horiz-adv-x="610" 
d="M347 601l110 -2q31 -1 51.5 -4.5t32 -10t16.5 -14.5t6 -18l1 -9q1 -9 2.5 -12t4.5 -3q8 0 8 11q0 4 0.5 16t1 26.5l1 29.5t0.5 25t-4 10q-3 0 -9 -1t-16 -3q-11 -2 -26 -3t-37 -1h-332q-8 0 -29 1t-40 3q-18 2 -26 6t-13 4q-2 0 -4.5 -6t-4.5 -10q0 -3 -3 -16.5l-6.5 -29
l-6.5 -29.5t-3 -17q0 -4 2 -5.5t4 -1.5q7 0 9 8l4 10.5t10 16.5q10 15 28.5 20.5t60.5 6.5l127 2v-357q0 -62 -0.5 -110t-3.5 -74q-2 -19 -7 -31t-19 -15q-6 -2 -13 -3t-13 -1q-7 0 -7 -6q0 -7 14 -7q10 0 24.5 0.5l29 1t25 1t12.5 0.5t12.5 -0.5t26 -1t34 -1t36.5 -0.5
q14 0 14 7t-7 7q-6 0 -18.5 1t-21.5 3q-20 3 -26 14.5t-8 30.5q-3 26 -3.5 74t-0.5 110v357z" />
    <glyph glyph-name="u" unicode="u" horiz-adv-x="732" 
d="M110 269q0 -47 6 -82t16.5 -61t24.5 -45.5t30 -34.5q23 -22 50.5 -34t53.5 -18t47 -7t32 -1q19 0 41.5 2t46 8.5t48 18.5t48.5 33q26 22 42 52t25 63.5t12 69t3 70.5v91v80v50v31q0 12 1 22q2 21 7.5 32t23.5 15q8 2 12 2h10q7 0 7 7t-14 7q-20 0 -44.5 -1t-29.5 -1
q-2 0 -11.5 0.5t-23.5 0.5q-13 0 -29 0.5t-31 0.5q-14 0 -14 -7t7 -7q6 0 15.5 -0.5t14.5 -1.5q22 -3 28 -15t7 -32q0 -10 0.5 -21.5t1 -31t0.5 -50.5v-80v-107q0 -66 -9.5 -117.5t-40.5 -88.5q-23 -27 -59 -43.5t-77 -16.5q-38 0 -68.5 8.5t-62.5 37.5q-14 13 -26 29.5
t-20.5 41t-13.5 58t-5 79.5v119v80v50q0 20 0.5 31.5t1.5 21.5q2 21 7.5 32.5t22.5 14.5q8 2 12 2h10q8 0 8 7t-15 7q-10 0 -24 -0.5t-28 -0.5q-13 0 -23.5 -0.5t-13.5 -0.5t-13.5 0.5t-25.5 0.5q-14 0 -30.5 0.5t-31.5 0.5q-14 0 -14 -7t7 -7q6 0 15.5 -0.5t14.5 -1.5
q22 -3 28 -15t8 -32q1 -10 1.5 -21.5t0.5 -31.5v-50v-80v-125z" />
    <glyph glyph-name="v" unicode="v" horiz-adv-x="653" 
d="M182 536l-17 44.5t-7 26.5q0 5 1.5 8.5t8.5 6.5q6 2 15 3t17 1q9 0 9 8q0 6 -24 6q-26 0 -50.5 -1t-31.5 -1q-4 0 -15 0.5t-25 0.5t-30.5 0.5t-32.5 0.5q-23 0 -23 -6q0 -2 1.5 -5t5.5 -3t13.5 -0.5t20.5 -2.5q11 -3 19 -6.5t15 -10t13 -18t14 -29.5l216 -521
q13 -31 19 -41.5t14 -10.5q7 0 13.5 13l24.5 51q15 32 43.5 98l69.5 160l33 76.5l29 68.5l22.5 53.5l13.5 31.5q9 22 16 35.5t13 22t10.5 13t9.5 7.5q12 8 24.5 9t17.5 1q10 0 10 8q0 6 -14 6q-20 0 -42.5 -1t-26.5 -1q-8 0 -34 1t-52 1q-20 0 -20 -7t10 -7q8 0 15 -0.5
t15 -2.5q7 -2 9.5 -7.5t2.5 -10.5t-2.5 -13.5l-5.5 -18.5q-5 -15 -17 -47.5l-28 -75l-35.5 -90.5l-38.5 -94.5l-36 -88t-30 -69.5z" />
    <glyph glyph-name="w" unicode="w" horiz-adv-x="968" 
d="M530 597q-8 22 -13.5 31t-10.5 9q-4 0 -9 -6.5t-15 -32.5l-184 -475h-2q-3 9 -11.5 38l-20 69.5l-25 86l-25 87l-20.5 74.5t-13 46q-8 29 -12.5 50t-4.5 29t3.5 12t8.5 6q8 4 17 4.5t14 0.5q3 0 6 2t3 6q0 6 -16 6q-33 0 -59.5 -1t-32.5 -1q-7 0 -38 1t-66 1
q-14 0 -14 -6q0 -8 8 -8q5 0 18 -1t22 -4t15 -7t11.5 -11t10 -18t9.5 -28l156 -504q7 -22 12 -35t8.5 -20t7 -9.5t6.5 -2.5q8 0 14 9t17 36l22.5 57l32 82l36.5 94.5l36.5 94.5l31.5 81t22 55l172 -465q9 -25 15.5 -34.5t13.5 -9.5q4 0 7 2.5t7 10.5t9.5 22l14.5 38
t21.5 60.5l27 80l30.5 91l31 92l28 83.5t23 66q13 35 25 59t32 31q8 2 18 3t12 1q5 0 6.5 3t1.5 6q0 5 -12 5q-10 0 -21.5 -0.5t-22.5 -0.5q-10 0 -17.5 -0.5t-9.5 -0.5q-6 0 -31 1t-59 1q-15 0 -15 -6q0 -2 2 -5t6 -3q30 0 38.5 -7t8.5 -18q0 -8 -1.5 -18.5t-8.5 -34.5
l-19 -64.5l-24 -78.5l-26.5 -84l-25.5 -81l-22 -69t-15 -48h-4z" />
    <glyph glyph-name="x" unicode="x" horiz-adv-x="611" 
d="M108 82q-21 -32 -36.5 -46.5t-35.5 -19.5q-22 -5 -33 -5q-7 0 -7 -8q0 -6 8 -6q11 0 24 0.5t24.5 1t20 1t11.5 0.5t14 -0.5t24.5 -1l27 -1t21.5 -0.5q11 0 11 6q0 8 -8 8q-6 0 -16 2q-14 3 -14 14q0 7 2.5 17t8.5 21l135 223l76.5 -126.5l72.5 -124.5q6 -11 2.5 -17
t-7.5 -7q-5 -2 -5 -7q0 -3 5 -4.5t22 -2.5q36 -2 69 -2h75q12 0 12 7t-7 7q-10 0 -30 5t-29.5 14t-20.5 23q-5 6 -19.5 28l-33.5 53l-40.5 66l-41 66l-33.5 54t-18 29l141 206q19 28 33 44.5t33 22.5q8 2 16.5 3t13.5 1t7 3t2 5q0 6 -14 6q-23 0 -45.5 -1t-28.5 -1t-29.5 1
t-48.5 1q-15 0 -15 -6q0 -8 8 -8h10q7 0 14 -2q15 -5 15 -14q0 -8 -2 -14.5t-7 -15.5q-3 -7 -19.5 -33.5l-37 -58.5l-40.5 -62l-30 -44q-35 55 -61.5 102.5l-54.5 98.5q-4 7 -6.5 14.5t-2.5 13.5q0 5 2.5 8.5t8.5 4.5q5 2 12 2h12q8 0 8 8q0 3 -3 4.5t-12 1.5
q-11 0 -25 -0.5t-27 -0.5q-12 0 -21.5 -0.5t-12.5 -0.5t-15.5 0.5t-29.5 0.5q-16 0 -32.5 0.5t-25.5 0.5q-15 0 -15 -6q0 -2 2 -5t6 -3t15 -1.5t22 -4.5q23 -7 37.5 -24t29.5 -42l140 -228z" />
    <glyph glyph-name="y" unicode="y" horiz-adv-x="576" 
d="M255 145v-35t-2 -50q-2 -19 -7 -30.5t-19 -14.5q-6 -2 -13 -3t-13 -1q-7 0 -7 -7t14 -7q10 0 24 0.5l27.5 1t23 1t11.5 0.5t12.5 -0.5t26.5 -1t35 -1t37 -0.5q14 0 14 7t-7 7q-6 0 -18.5 1t-21.5 3q-20 3 -26 14.5t-8 30.5q-2 26 -2.5 50t-0.5 35v73v41q0 21 11 44
q4 9 16.5 30l29 48.5l35.5 57.5l36.5 57l32 47.5t21.5 29.5q14 17 22.5 25.5t21.5 16.5q11 6 22 8.5t19 2.5q5 0 8 3t3 6q0 5 -11 5q-6 0 -19.5 -0.5t-27.5 -0.5t-25.5 -0.5t-13.5 -0.5q-5 0 -24.5 1t-36.5 1q-14 0 -14 -5q0 -7 13 -10q14 -4 14 -22q0 -8 -3.5 -19
t-11.5 -25l-15 -25.5l-25.5 -43l-31 -51.5l-31 -52l-26 -45t-15.5 -29l-160 265q-5 8 -8.5 16t-3.5 17t11 14q14 5 14 9q0 3 -2 4.5t-10 1.5q-26 0 -48.5 -1t-27.5 -1q-2 0 -13 0.5t-26 0.5q-14 0 -28 0.5t-20 0.5q-11 0 -11 -6q0 -8 9 -8q5 0 16 -3t21 -9q12 -8 27 -23
t31 -39l21 -33l31 -48.5l34.5 -54l32.5 -51.5l25 -40.5t12 -19.5q10 -18 14.5 -35.5t4.5 -51.5v-73z" />
    <glyph glyph-name="z" unicode="z" horiz-adv-x="609" 
d="M172 37l196 288.5l193 290.5q3 4 4 8t1 7q0 7 -18 7h-246h-56t-98 2q-17 1 -24 3.5t-13 2.5q-7 0 -8 -16q-2 -10 -5 -27.5l-6 -35t-5 -32t-2 -18.5q0 -11 5 -11q4 0 7 2.5t5 12.5q2 15 14.5 35t35.5 32q21 11 56 12.5t69 1.5h186l-187 -284l-196 -285q-8 -12 -10 -17.5
t-2 -8.5q0 -7 16 -7q116 0 227.5 -2t222.5 -2q15 0 18.5 3t7.5 19l5 20.5t6 26.5t5 27.5t2 23.5q0 12 -1.5 15.5t-5.5 3.5q-7 0 -10 -13q-2 -9 -6.5 -23.5t-11.5 -22.5q-8 -9 -17 -16t-24 -12.5t-38 -8t-58 -2.5h-234z" />
    <glyph glyph-name="braceleft" unicode="{" horiz-adv-x="360" 
d="M134 349q16 6 34.5 28t25.5 48q4 15 6 32.5t2.5 39t0 48t-0.5 60.5q0 32 9 54.5t22 37.5t26.5 22.5t22.5 10.5q16 5 16 9q0 5 -13 5q-16 0 -43.5 -10t-50.5 -31q-14 -13 -26 -28t-20.5 -35.5t-13 -47.5t-4.5 -65q0 -18 5 -48.5t5 -58.5q0 -23 -3.5 -36t-11.5 -20
t-21.5 -9t-32.5 -3q-8 -1 -10 -2.5t-2 -6.5q0 -4 2 -5t10 -3q21 -4 36 -8t23 -17q7 -11 7 -32q0 -25 -3.5 -54.5t-3.5 -52.5q0 -53 4.5 -90.5t11.5 -63.5t16 -43.5t19 -30.5q14 -19 29 -32t29 -20.5t26 -11t19 -3.5q11 0 14.5 1t3.5 4t-4 5.5t-18 7.5q-13 5 -26 17.5t-24 38
t-18 66.5t-7 104v52t-1 39.5t-3 31t-6 27.5q-8 30 -25 50.5t-33 28.5z" />
    <glyph glyph-name="bar" unicode="|" horiz-adv-x="510" 
d="M282 -250v1000h-54v-1000h54z" />
    <glyph glyph-name="braceright" unicode="}" horiz-adv-x="360" 
d="M226 349q-16 -8 -33 -28.5t-25 -50.5q-5 -16 -7 -31.5t-2.5 -32.5t-0.5 -38v-48q0 -63 -7 -104.5t-18 -67t-24 -38t-26 -16.5q-14 -5 -18 -7.5t-4 -6.5q0 -2 3.5 -3t14.5 -1q7 0 19 3.5t26 11t29 20.5t29 32q10 13 19 30.5t16 43.5t11.5 63.5t4.5 90.5q0 16 -2.5 36
t-4 39.5t-0.5 36.5t7 27q8 13 23 17t36 8q8 2 10 3t2 5q0 5 -2 6.5t-10 2.5q-11 1 -27.5 1.5t-30.5 14.5q-9 9 -10.5 29t1 44t5.5 47.5t3 38.5q0 38 -4.5 65t-13 47.5t-20.5 35.5t-26 28q-23 21 -50.5 31t-43.5 10q-13 0 -13 -6q0 -3 3.5 -4t12.5 -4t22.5 -10.5t26 -22.5
t22 -37.5t9.5 -54.5q0 -34 -0.5 -60.5t0 -48t2.5 -39t6 -32.5q7 -26 25.5 -48t34.5 -28z" />
    <glyph glyph-name="asciitilde" unicode="~" horiz-adv-x="510" 
d="M110 201q1 35 12.5 50.5t31.5 15.5t42.5 -10t49.5 -24q38 -19 62.5 -26.5t47.5 -7.5q19 0 36.5 6t30 20t19.5 36.5t6 56.5h-49q-2 -67 -41 -66q-20 0 -42 9.5t-51 23.5q-38 18 -61 26t-48 8q-41 0 -69 -29t-26 -90z" />
    <glyph glyph-name="exclamdown" unicode="&#xa1;" horiz-adv-x="320" 
d="M162 667q-23 0 -37.5 -15.5t-14.5 -38.5q0 -22 14.5 -35t36.5 -13q27 0 39 17.5t12 33.5q0 17 -12 34t-38 17zM173 444q-2 29 -4.5 40.5t-10.5 11.5t-9.5 -10.5t-2.5 -21.5q-1 -6 -2.5 -39.5t-4 -81l-5.5 -101.5t-5 -100.5t-4 -79.5t-2 -37q-4 -56 -9.5 -91.5t-5.5 -40.5
q0 -10 6 -10q5 0 15 5q21 11 42 30.5t32 37.5q5 8 5 14q0 4 -1 8.5t-3 10.5q-3 12 -5.5 40.5t-4.5 60l-3.5 57t-1.5 31.5z" />
    <glyph glyph-name="cent" unicode="&#xa2;" horiz-adv-x="571" 
d="M364 597q45 -2 74 -15t39 -24q11 -14 14.5 -28.5t5.5 -27.5q0 -12 5 -12q7 0 8 12q1 5 2 17t2 25.5t1.5 27t0.5 22.5q0 6 -1 8.5t-6 5.5q-36 14 -74.5 19.5t-63.5 5.5l13 108q2 8 -10 6l-20 -4q-6 -2 -7.5 -3.5t-2.5 -5.5l-11 -100q-33 -2 -60 -6t-50.5 -12t-43.5 -20
t-40 -29q-11 -9 -24.5 -26t-25.5 -40.5t-20 -53.5t-8 -66q0 -54 16.5 -98t45.5 -76.5t67.5 -53.5t83.5 -29l-18 -152q-2 -9 9 -6l23 5q8 2 9 11l14 135q11 -1 21 -1h22q28 0 63.5 3.5t69.5 12.5q6 2 8.5 5.5t4.5 11.5q1 7 3.5 21.5t4.5 29t3.5 26.5t1.5 15q0 12 -6 12
t-9 -15q-11 -48 -44 -62.5t-86 -14.5q-13 0 -24.5 0.5t-24.5 1.5zM281 174q-26 9 -52 27t-47 46.5t-34 68t-13 92.5q0 40 13 75t38 60.5t60 40t80 14.5z" />
    <glyph glyph-name="sterling" unicode="&#xa3;" horiz-adv-x="571" 
d="M251 0q32 0 58 -0.5t51 -1.5q25 -2 49 -2.5t52 -0.5q21 0 33 0.5t17.5 3t7 6.5t3.5 10q3 13 6 32t5.5 37.5t4 33t1.5 18.5q0 9 -2 12t-5 3q-7 0 -8 -10q-8 -45 -29.5 -63t-63.5 -19l-312 -3l-2 2q31 27 51 62.5t32.5 71.5t18.5 68.5t9 53.5l5 42h140q12 0 16 8l11 24
q4 10 -5 10q-4 0 -15 -2.5t-32 -2.5h-109l18 151q11 91 50 139.5t98 48.5q37 0 61 -10t38 -28q12 -16 18 -36t6 -31q0 -15 8 -15q6 0 8 12q1 4 1.5 15.5t1.5 27.5t1.5 34.5t0.5 36.5q0 11 -7 12t-13 2t-14 3q-16 5 -39.5 8.5t-47.5 3.5q-29 0 -69 -10t-82 -46
q-26 -22 -43.5 -51.5t-29.5 -62.5t-19.5 -67.5t-11.5 -66.5l-10 -70h-79q-5 0 -8.5 -1.5t-5.5 -6.5l-12 -21q-4 -9 3 -9q3 0 7.5 1t13.5 1h75l-13 -105q-5 -42 -13 -79.5t-22.5 -67t-38.5 -50t-61 -28.5q-8 -2 -14 -5.5t-6 -11.5q0 -7 9 -8.5t20 -1.5h233z" />
    <glyph glyph-name="fraction" unicode="&#x2044;" horiz-adv-x="80" 
d="M-227 -14q7 -5 12 3l543 713q4 6 -2 10l-19 14q-5 3 -6.5 2t-4.5 -5l-542 -707q-8 -10 -1 -13z" />
    <glyph glyph-name="yen" unicode="&#xa5;" horiz-adv-x="571" 
d="M323 306h152q12 0 14 6l6 23q4 9 -9 9h-162l24.5 42.5l34 61l39 69.5l38.5 67.5l33 56t23 34.5q15 20 25 31.5t27 19.5q10 5 22.5 8.5t20.5 3.5q12 0 12 8q0 4 -4 5.5t-9 1.5q-7 0 -21.5 -0.5l-29.5 -1t-27.5 -1t-14.5 -0.5q-5 0 -24 1.5t-38 1.5q-16 0 -16 -7q0 -5 5 -7
t11 -4q16 -7 16 -23q0 -21 -19 -53l-16.5 -30l-26.5 -49l-32 -59l-32 -58.5l-27 -49l-17 -30.5q-6 8 -19.5 31l-31 54l-37 65l-36.5 64.5l-29.5 53l-16.5 29.5q-13 24 -13 38t14 18q5 2 9.5 4t4.5 5q0 5 -4 6.5t-9 1.5q-29 0 -52 -1.5t-28 -1.5q-2 0 -14.5 0.5t-28 1
l-30.5 1t-22 0.5q-10 0 -10 -8q0 -4 3.5 -5.5t7.5 -1.5q5 0 18 -2.5t26 -10.5q12 -8 29 -27.5t33 -46.5l23 -39l33 -56l38 -64.5l38 -63.5l32 -52.5l20 -31.5h-149q-9 0 -11 -6l-7 -21q-2 -5 -1 -8t8 -3h162v-141v-54t-1 -44q-1 -23 -11 -35.5t-36 -16.5q-10 -2 -24 -2.5
t-22 -0.5q-7 0 -7 -8q0 -7 17 -7q20 0 40.5 0.5t37.5 1t28.5 1t13.5 0.5q1 0 12.5 -0.5t28.5 -1t38 -1t41 -0.5q16 0 16 7q0 3 -3 5.5t-6 2.5q-7 0 -20.5 0.5t-24.5 2.5q-26 4 -35.5 16.5t-10.5 35.5q-1 17 -0.5 44t0.5 54v141z" />
    <glyph glyph-name="florin" unicode="&#x192;" horiz-adv-x="571" 
d="M200 342l-32 -281q-5 -46 -10.5 -81t-11.5 -61t-13 -45t-16 -33q-22 -36 -50.5 -45t-66.5 -9q-7 0 -7 -10q0 -9 37 -9q17 0 37 3.5t35 11.5q51 24 81 76.5t48 141.5q6 31 12.5 76.5t12.5 93.5l11.5 93.5t10.5 76.5h70q14 0 29.5 -0.5t28.5 -1.5t22.5 -1.5t12.5 -0.5
q14 0 20 10l11 19q8 15 -5 15q-5 0 -20.5 -2t-49.5 -2h-116q4 37 9 76.5t11 76t13.5 68t16.5 52.5q19 44 50 63.5t73 19.5q32 0 53 -12.5t29 -28.5q8 -15 12 -30.5t4 -35.5q0 -19 7 -19q6 0 9 19q6 44 8.5 70.5t2.5 37.5q0 4 -2 7.5t-10 7.5q-21 9 -45 13.5t-55 4.5
q-32 0 -56.5 -6.5t-44 -17t-35 -25t-28.5 -30.5q-42 -51 -64.5 -127t-32.5 -184h-61q-18 0 -30 1.5t-16 1.5q-5 0 -8.5 -3.5t-5.5 -8.5l-10 -20q-2 -5 1 -7.5t8 -1.5q8 2 25 2.5t50 0.5h41z" />
    <glyph glyph-name="section" unicode="&#xa7;" horiz-adv-x="596" 
d="M408 93q44 25 73 65.5t29 101.5q0 28 -9.5 52t-28 46.5t-47 45.5t-65.5 49l-26 18l-57.5 40t-43.5 36t-28 37t-10 43q0 27 10.5 47t28 33t39.5 19t46 6q34 0 56.5 -5t35.5 -12t19 -14t8 -11q4 -7 8 -20.5t5 -21.5q1 -5 2 -8t6 -3q7 0 7 19q0 44 2 65.5t2 24.5q0 6 -9 6
q-5 0 -11.5 0.5t-19.5 3.5q-16 4 -35.5 7t-59.5 3q-38 0 -74.5 -9.5t-65 -29.5t-46 -50.5t-17.5 -72.5q0 -35 18 -65.5t50 -62.5q-20 -8 -40.5 -22t-37 -33.5t-27 -43.5t-10.5 -53q0 -30 8.5 -54t26.5 -46t45 -44t63 -48l32 -23l54 -40.5t41.5 -38t26.5 -41t9 -48.5
q0 -56 -38 -88.5t-99 -32.5q-52 0 -92.5 18.5t-51.5 65.5q-2 9 -2.5 17.5t-0.5 13.5q0 10 -8 10q-7 0 -7 -14l-3 -34.5t-2 -55.5q0 -17 2 -22t11 -10q27 -13 59.5 -18t84.5 -5q28 0 66 8t67 27q47 31 65 71.5t18 76.5q0 33 -11 63t-41 61zM383 116q-17 16 -39.5 32l-45.5 31
l-28 19l-56.5 39.5t-40.5 34t-24 34t-8 40.5q0 35 25.5 65t60.5 41q13 -11 25.5 -20.5l27.5 -20.5l42 -30l54 -38t41 -34t26 -36t9 -44q0 -14 -4.5 -30t-13.5 -31.5t-22 -29t-29 -22.5z" />
    <glyph glyph-name="currency" unicode="&#xa4;" horiz-adv-x="571" 
d="M487 449l-42 43l-62 -65q-18 16 -43 25t-55 9h-1q-29 0 -54.5 -9t-44.5 -26l-60 66l-41 -43l66 -61q-13 -18 -23 -44.5t-10 -61.5q0 -32 9.5 -58.5t22.5 -43.5l-63 -61l40 -43l59 66q17 -17 44.5 -26.5t53.5 -8.5q25 0 51.5 9.5t46.5 27.5l60 -68l42 43l-65 62
q12 17 20 44.5t9 62.5q0 32 -8.5 57.5t-19.5 42.5zM380 286q0 -32 -8.5 -54.5t-22.5 -36.5t-31.5 -20.5t-35.5 -6.5q-16 0 -33 6.5t-31.5 21t-23.5 36.5t-9 52q0 49 26 82.5t71 33.5h1q23 0 41 -9.5t30.5 -25.5t19 -36.5t6.5 -42.5z" />
    <glyph glyph-name="quotesingle" unicode="'" horiz-adv-x="200" 
d="M100 755q-19 0 -30.5 -1.5t-11.5 -12.5q0 -6 3.5 -19t8.5 -34t10.5 -51.5t8.5 -71.5q2 -30 4.5 -37.5t6.5 -7.5t6.5 7.5t4.5 37.5q3 41 8.5 71.5t10.5 51.5t8.5 34t3.5 19q0 11 -11.5 12.5t-30.5 1.5z" />
    <glyph glyph-name="quotedblleft" unicode="&#x201c;" horiz-adv-x="325" 
d="M243 659q0 43 11 81t22 62q4 9 4 13q0 5 -5 5q-8 0 -13 -8q-13 -16 -28 -38.5t-28 -49t-21.5 -54.5t-8.5 -55q0 -11 4 -16t13 -10l15.5 -5l19.5 -6t19.5 -5t15.5 -2q3 0 6 2t3 4q0 4 -1.5 7t-7.5 10q-5 6 -12.5 24t-7.5 41zM113 659q0 43 11 81t22 62q4 9 4 13q0 5 -5 5
q-8 0 -13 -8q-13 -16 -28 -38.5t-28 -49t-21.5 -54.5t-8.5 -55q0 -11 4 -16t13 -10l15.5 -5l19.5 -6t19.5 -5t15.5 -2q3 0 6 2t3 4q0 4 -1.5 7t-7.5 10q-5 6 -12.5 24t-7.5 41z" />
    <glyph glyph-name="guillemotleft" unicode="&#xab;" horiz-adv-x="560" 
d="M481 140q4 4 4 7q0 2 -3 4.5t-11 10.5q-18 16 -40.5 38l-43 43l-36.5 38t-22 24q7 10 21 27l30.5 36.5l33.5 40l31.5 37l24 27.5t10.5 13q6 6 6 13q0 3 -3 5.5t-6 2.5q-5 0 -18 -11l-14.5 -14.5l-31 -30.5l-39 -38.5l-40 -39l-34 -33t-19.5 -18.5q-19 -16 -19 -22
q0 -5 4 -9.5t14 -14.5q7 -8 27 -29l42 -45l42 -46l29 -32q11 -13 16 -17.5t7 -4.5q5 0 8 5zM294 140q4 4 4 7q0 2 -3 4.5t-11 10.5q-18 16 -40.5 38l-43 43l-36.5 38t-22 24q7 10 21 27l30.5 36.5l33.5 40l31.5 37l24 27.5t10.5 13q6 6 6 13q0 3 -3 5.5t-6 2.5q-5 0 -18 -11
l-14.5 -14.5l-31 -30.5l-39 -38.5l-40 -39l-34 -33t-19.5 -18.5q-19 -16 -19 -22q0 -5 4 -9.5t14 -14.5q7 -8 27 -29l42 -45l42 -46l29 -32q11 -13 16 -17.5t7 -4.5q5 0 8 5z" />
    <glyph glyph-name="guilsinglleft" unicode="&#x2039;" horiz-adv-x="375" 
d="M294 140q4 4 4 7q0 2 -3 4.5t-11 10.5q-18 16 -40.5 38l-43 43l-36.5 38t-22 24q7 10 21 27l30.5 36.5l33.5 40l31.5 37l24 27.5t10.5 13q6 6 6 13q0 3 -3 5.5t-6 2.5q-5 0 -18 -11l-14.5 -14.5l-31 -30.5l-39 -38.5l-40 -39l-34 -33t-19.5 -18.5q-19 -16 -19 -22
q0 -5 4 -9.5t14 -14.5q7 -8 27 -29l42 -45l42 -46l29 -32q11 -13 16 -17.5t7 -4.5q5 0 8 5z" />
    <glyph glyph-name="guilsinglright" unicode="&#x203a;" horiz-adv-x="375" 
d="M81 469q-4 -4 -4 -7q0 -2 3 -4.5t11 -10.5q18 -16 40.5 -38l43 -43l36.5 -38t22 -24l-21.5 -27l-30 -36.5l-33.5 -40l-31.5 -37l-24 -28t-10.5 -12.5q-6 -6 -6 -13q0 -3 3 -5.5t6 -2.5q5 0 18 11l14.5 14.5l31 30.5l39 38.5l40 39l34 33t19.5 18.5q11 9 15 14.5t4 7.5
q0 5 -4 9.5t-14 14.5q-8 7 -27.5 28.5l-41.5 45.5l-42 46l-29 32q-11 13 -16 17.5t-7 4.5q-5 0 -8 -5z" />
    <glyph glyph-name="fi" unicode="&#xfb01;" horiz-adv-x="924" 
d="M155 244q0 -62 -0.5 -110t-4.5 -74q-3 -19 -6.5 -31t-16.5 -14q-6 -1 -13.5 -2.5t-13.5 -1.5q-7 0 -7 -7t14 -7q10 0 24 0.5l27.5 1t23.5 1t12 0.5q1 0 11.5 -0.5t26.5 -1t35 -1t37 -0.5q14 0 14 7t-7 7q-6 0 -18 1t-22 3q-18 3 -24 14.5t-8 30.5q-3 25 -3.5 73t-0.5 111
v68q0 8 6 8h25h43t44 -0.5t29 -1.5q20 -3 31 -10.5t14 -16.5q3 -8 4 -16t2 -15q0 -8 6 -8q5 0 6.5 5.5t1.5 11.5q0 5 0.5 24.5t2.5 32.5q2 21 5 32t3 15q0 7 -5 7q-4 0 -11 -9q-6 -8 -15.5 -10.5t-25.5 -4.5q-9 -1 -19 -1h-21l-120 -1q-5 0 -5.5 2t-0.5 6v232q0 9 7 9
l144 -2q26 0 41 -8.5t19 -16.5t6 -17.5t2 -14.5q0 -10 7 -10q3 0 5 3t3 6q1 4 1.5 12t1 17t1 16.5t0.5 10.5q2 18 4.5 26.5t2.5 13.5q0 8 -6 8q-2 0 -5 -2t-7 -3q-6 -2 -16.5 -2.5t-23.5 -1.5h-23h-41h-51h-51h-41h-21q-2 0 -12 0.5t-25 0.5q-14 0 -31 0.5t-32 0.5
q-14 0 -14 -7t7 -7q6 0 15.5 -0.5t14.5 -1.5q22 -3 28 -14t8 -33q1 -10 1.5 -21.5t0.5 -31.5v-50v-80v-150zM770 394v80v50q0 20 0.5 31.5t0.5 21.5q2 23 7.5 33t23.5 14q8 2 12 2h10q7 0 7 7t-14 7q-10 0 -24.5 -0.5t-28.5 -0.5q-13 0 -23.5 -0.5t-11.5 -0.5q-2 0 -12 0.5
t-24 0.5q-13 0 -27.5 0.5t-25.5 0.5q-14 0 -14 -7t7 -7q5 0 12 -0.5t15 -2.5q14 -3 20 -13.5t8 -32.5q1 -10 1.5 -21.5t0.5 -31.5v-50v-80v-150q0 -62 -1 -110t-4 -74q-2 -19 -6 -30.5t-17 -14.5q-6 -2 -13.5 -3t-13.5 -1q-7 0 -7 -7t14 -7q10 0 24 0.5l27.5 1t23.5 1
t12 0.5q1 0 11.5 -0.5t26.5 -1t35 -1t37 -0.5q14 0 14 7t-7 7q-6 0 -18 1t-22 3q-20 3 -25 14.5t-7 30.5q-3 26 -3.5 74t-0.5 110v150z" />
    <glyph glyph-name="fl" unicode="&#xfb02;" horiz-adv-x="1070" 
d="M155 244q0 -62 -0.5 -110t-4.5 -74q-3 -19 -6.5 -31t-16.5 -14q-6 -1 -13.5 -2.5t-13.5 -1.5q-7 0 -7 -7t14 -7q10 0 24 0.5l27.5 1t23.5 1t12 0.5q1 0 11.5 -0.5t26.5 -1t35 -1t37 -0.5q14 0 14 7t-7 7q-6 0 -18 1t-22 3q-18 3 -24 14.5t-8 30.5q-3 25 -3.5 73t-0.5 111
v68q0 8 6 8h25h43t44 -0.5t29 -1.5q20 -3 31 -10.5t14 -16.5q3 -8 4 -16t2 -15q0 -8 6 -8q5 0 6.5 5.5t1.5 11.5q0 5 0.5 24.5t2.5 32.5q2 21 5 32t3 15q0 7 -5 7q-4 0 -11 -9q-6 -8 -15.5 -10.5t-25.5 -4.5q-9 -1 -19 -1h-21l-120 -1q-5 0 -5.5 2t-0.5 6v232q0 9 7 9
l144 -2q26 0 41 -8.5t19 -16.5t6 -17.5t2 -14.5q0 -10 7 -10q3 0 5 3t3 6q1 4 1.5 12t1 17t1 16.5t0.5 10.5q2 18 4.5 26.5t2.5 13.5q0 8 -6 8q-2 0 -5 -2t-7 -3q-6 -2 -16.5 -2.5t-23.5 -1.5h-23h-41h-51h-51h-41h-21q-2 0 -12 0.5t-25 0.5q-14 0 -31 0.5t-32 0.5
q-14 0 -14 -7t7 -7q6 0 15.5 -0.5t14.5 -1.5q22 -3 28 -14t8 -33q1 -10 1.5 -21.5t0.5 -31.5v-50v-80v-150zM770 394v80v50q0 20 0.5 31.5t0.5 21.5q2 23 7.5 33.5t25.5 14.5q8 1 16 1.5t13 0.5q7 0 7 6q0 7 -14 7q-10 0 -26 -0.5t-31 -0.5t-27 -0.5t-13 -0.5q-2 0 -12 0.5
t-25 0.5q-14 0 -31 0.5t-32 0.5q-14 0 -14 -7t7 -7q6 0 15.5 -0.5t14.5 -1.5q22 -3 28 -14t8 -33q1 -10 1.5 -21.5t0.5 -31.5v-50v-80v-150q0 -62 -0.5 -110t-4.5 -74q-3 -19 -6.5 -30.5t-16.5 -14.5q-6 -2 -13.5 -3t-13.5 -1q-7 0 -7 -7t14 -7q11 0 24 0.5t27 1.5
q13 1 23 1h13q20 0 43 -0.5t53 -1.5q61 -3 153 -3q18 0 28 1t15.5 3t8 6.5t4.5 12.5q3 9 5 22.5l4 26t3 23t1 13.5q0 13 -6 13q-7 0 -9 -11q-2 -13 -7.5 -25.5t-13.5 -22.5q-16 -19 -43.5 -22.5t-62.5 -3.5q-52 0 -79 4.5t-38 15.5q-6 6 -9.5 19t-5.5 35.5t-2.5 56
t-0.5 80.5v152z" />
    <glyph glyph-name="endash" unicode="&#x2013;" horiz-adv-x="500" 
d="M0 282h500v46h-500v-46z" />
    <glyph glyph-name="dagger" unicode="&#x2020;" horiz-adv-x="610" 
d="M267 439l-137 3q-18 1 -30 4t-16 3q-5 0 -8.5 -3.5t-5.5 -8.5l-13 -42q-4 -16 7 -14l87 8t66 4l51 1q0 -3 0.5 -28t1 -64t1.5 -88l2 -101l2 -102t2 -90.5t2 -67.5t1 -33q2 -29 6 -40.5t15 -11.5t14 10.5t4 21.5q0 4 1 33t2 74.5t2.5 105l3 124t3.5 131t4 126.5l106 -3
q13 0 27 -2t26 -4t20 -3.5t11 -1.5q6 0 12 2.5t8 7.5l16 44q6 15 -5 15q-5 0 -20.5 -3t-49.5 -4l-150 -3q1 39 2 72t1.5 57.5t1 39.5t0.5 17l6.5 91.5t2.5 40.5q0 10 -6 10q-5 0 -15 -5q-21 -11 -39.5 -28t-29.5 -32q-5 -8 -5 -14q0 -4 1 -8.5t3 -10.5q2 -7 3 -30.5t2 -56
t1.5 -70t1.5 -73.5z" />
    <glyph glyph-name="daggerdbl" unicode="&#x2021;" horiz-adv-x="610" 
d="M435 146q27 -1 52.5 -3.5t30.5 -2.5q6 0 12 2.5t8 7.5l10 33q4 15 -5 15q-5 0 -18 -2t-47 -3l-150 -3l6 257l101 -3q13 0 28 -1.5t28 -3l22 -2.5t12 -1q6 0 12 2.5t8 7.5l14 35q6 15 -5 15q-5 0 -19.5 -2t-48.5 -3l-151 -3q1 20 1.5 43.5t1.5 43.5t1.5 34t0.5 16
q2 56 4.5 91.5t2.5 40.5q0 10 -6 10q-3 0 -6 -1.5t-9 -3.5q-21 -8 -34.5 -19t-24.5 -22q-4 -4 -4.5 -7t-0.5 -7t1 -8.5t3 -10.5q2 -7 2.5 -32.5t0.5 -57.5v-62t1 -48l-140 3q-18 1 -31 3t-17 2q-5 0 -8.5 -3.5t-5.5 -8.5l-11 -34q-6 -16 7 -14q54 5 87 7t66 3l53 1
q0 -12 0.5 -37t1 -59.5t1 -75.5t1.5 -85l-136 2q-18 0 -31 2.5t-17 2.5q-5 0 -8.5 -3.5t-5.5 -8.5l-9 -33q-4 -16 7 -14q27 2 46.5 4t35.5 3t30 2t31 1l58 1l2 -114.5t2 -102t2 -76t1 -36.5q1 -29 4 -40.5t14 -11.5t14.5 10.5t4.5 21.5q0 4 1 32.5t1.5 75t2 108.5t3.5 133z
" />
    <glyph glyph-name="periodcentered" unicode="&#xb7;" horiz-adv-x="250" 
d="M124 232q26 0 41 17t15 41t-16 38t-39 14q-15 0 -25 -5.5t-17 -13.5t-10 -17.5t-3 -18.5q0 -19 12.5 -37t41.5 -18z" />
    <glyph glyph-name="paragraph" unicode="&#xb6;" horiz-adv-x="712" 
d="M384 683v-609q0 -36 -0.5 -71t-1 -65.5t-2 -55.5t-2.5 -40q-2 -21 -4 -28.5t-2 -9.5q0 -6 8 -6q11 0 25.5 6t24.5 15q7 7 6 13q-2 16 -2.5 42t-0.5 59v68v73v389v95v60v38q0 15 1 30q2 20 11 28.5t26 8.5q22 0 30.5 -11.5t8.5 -27.5v-614q0 -72 -1.5 -123.5t-3.5 -68.5
q-1 -16 -3 -25t-2 -13q0 -5 6 -5q10 0 24 6t24 15q7 7 7 14q-2 32 -2 80v120v393v95v59q0 23 0.5 36.5t1.5 25.5q2 26 9 39t27 18q12 3 28 3q8 0 8 6q0 8 -16 8q-17 0 -43 -0.5l-51 -1t-44 -1t-23 -0.5q-8 0 -23 0.5l-31 1t-30.5 1t-21.5 0.5q-45 0 -81 -6t-63.5 -16.5
t-48.5 -24t-36 -28.5q-26 -25 -47 -65.5t-21 -93.5q0 -50 18.5 -90.5t51.5 -69t78.5 -44t98.5 -15.5h10q7 0 11 1q4 0 7.5 1.5t3.5 5.5q0 8 -8 9.5t-21 9.5q-35 23 -55 73t-20 119q0 12 1.5 29.5t5 37t10.5 39.5t18 37q18 29 48.5 45t55.5 16q17 0 17 -40z" />
    <glyph glyph-name="bullet" unicode="&#x2022;" horiz-adv-x="420" 
d="M172 395q0 -15 -3 -38.5t-8 -41.5q-2 -5 -4 -11t-2 -9q0 -5 5 -5q4 0 9.5 4.5t10.5 9.5l60 56t52 63q2 4 4 9t2 11q0 11 -30 17l-39.5 8t-39.5 7t-33.5 5t-20.5 2q-12 0 -12 -8q0 -5 4 -6.5t10 -4.5q9 -5 22 -19t13 -49z" />
    <glyph glyph-name="quotesinglbase" unicode="&#x201a;" horiz-adv-x="200" 
d="M85 49q0 -43 -11 -81t-22 -62q-4 -9 -4 -13q0 -5 5 -5q8 0 13 8q13 16 28 38.5t28 49t21.5 54.5t8.5 55q0 11 -4 16t-13 10l-15.5 5l-19.5 6t-19.5 5t-15.5 2q-3 0 -6 -2t-3 -4q0 -4 1.5 -7t7.5 -10q5 -6 12.5 -24t7.5 -41z" />
    <glyph glyph-name="quotedblbase" unicode="&#x201e;" horiz-adv-x="325" 
d="M82 49q0 -43 -11 -81t-22 -62q-4 -9 -4 -13q0 -5 5 -5q8 0 13 8q13 16 28 38.5t28 49t21.5 54.5t8.5 55q0 11 -4 16t-13 10l-15.5 5l-19.5 6t-19.5 5t-15.5 2q-3 0 -6 -2t-3 -4q0 -4 1.5 -7t7.5 -10q5 -6 12.5 -24t7.5 -41zM212 49q0 -43 -11 -81t-22 -62q-4 -9 -4 -13
q0 -5 5 -5q8 0 13 8q13 16 28 38.5t28 49t21.5 54.5t8.5 55q0 11 -4 16t-13 10l-15.5 5l-19.5 6t-19.5 5t-15.5 2q-3 0 -6 -2t-3 -4q0 -4 1.5 -7t7.5 -10q5 -6 12.5 -24t7.5 -41z" />
    <glyph glyph-name="quotedblright" unicode="&#x201d;" horiz-adv-x="325" 
d="M82 732q0 -43 -11 -81t-22 -62q-4 -9 -4 -13q0 -5 5 -5q8 0 13 8q13 16 28 38.5t28 49t21.5 54.5t8.5 55q0 11 -4 16t-13 10l-15.5 5l-19.5 6t-19.5 5t-15.5 2q-3 0 -6 -2t-3 -4q0 -4 1.5 -7t7.5 -10q5 -6 12.5 -24t7.5 -41zM212 732q0 -43 -11 -81t-22 -62q-4 -9 -4 -13
q0 -5 5 -5q8 0 13 8q13 16 28 38.5t28 49t21.5 54.5t8.5 55q0 11 -4 16t-13 10l-15.5 5l-19.5 6t-19.5 5t-15.5 2q-3 0 -6 -2t-3 -4q0 -4 1.5 -7t7.5 -10q5 -6 12.5 -24t7.5 -41z" />
    <glyph glyph-name="guillemotright" unicode="&#xbb;" horiz-adv-x="560" 
d="M79 469q-4 -4 -4 -7q0 -2 3 -4.5t11 -10.5q18 -16 40.5 -38l43 -43l36.5 -38t22 -24l-21.5 -27l-30 -36.5l-33.5 -40l-31.5 -37l-24 -28t-10.5 -12.5q-6 -6 -6 -13q0 -3 3 -5.5t6 -2.5q5 0 18 11l14.5 14.5l31 30.5l39 38.5l40 39l34 33t19.5 18.5q11 9 15 14.5t4 7.5
q0 5 -4 9.5t-14 14.5q-8 7 -27.5 28.5l-41.5 45.5l-42 46l-29 32q-11 13 -16 17.5t-7 4.5q-5 0 -8 -5zM266 469q-4 -4 -4 -7q0 -2 3 -4.5t11 -10.5q18 -16 40.5 -38l43 -43l36.5 -38t22 -24l-21.5 -27l-30 -36.5l-33.5 -40l-31.5 -37l-24 -28t-10.5 -12.5q-6 -6 -6 -13
q0 -3 3 -5.5t6 -2.5q5 0 18 11l14.5 14.5l31 30.5l39 38.5l40 39l34 33t19.5 18.5q11 9 15 14.5t4 7.5q0 5 -4 9.5t-14 14.5q-8 7 -27.5 28.5l-41.5 45.5l-42 46l-29 32q-11 13 -16 17.5t-7 4.5q-5 0 -8 -5z" />
    <glyph glyph-name="ellipsis" unicode="&#x2026;" horiz-adv-x="1000" 
d="M166 0q24 0 39 16.5t15 39.5t-15.5 37t-38.5 14q-28 0 -40.5 -18.5t-12.5 -35.5q0 -18 12.5 -35.5t40.5 -17.5zM500 0q24 0 39 16.5t15 39.5t-15.5 37t-38.5 14q-28 0 -40.5 -18.5t-12.5 -35.5q0 -18 12.5 -35.5t40.5 -17.5zM834 0q24 0 39 16.5t15 39.5t-15.5 37
t-38.5 14q-28 0 -40.5 -18.5t-12.5 -35.5q0 -18 12.5 -35.5t40.5 -17.5z" />
    <glyph glyph-name="perthousand" unicode="&#x2030;" horiz-adv-x="1216" 
d="M615 0q43 0 74 16t51 42t29.5 58.5t9.5 64.5q0 28 -9.5 58t-29 54.5t-49.5 40t-70 15.5q-44 0 -75 -16t-50.5 -42t-29 -58.5t-9.5 -65.5q0 -28 9 -57.5t28.5 -54t49.5 -40t71 -15.5zM618 27q-26 0 -45 13.5t-32 35t-19 49t-6 55.5q0 29 5.5 54.5t18 45t31.5 31t46 11.5
q25 0 44.5 -13.5t32.5 -35.5t19.5 -49.5t6.5 -55.5q0 -29 -5.5 -54.5t-18 -44.5t-32 -30.5t-46.5 -11.5zM285 -4q4 1 5 3t4 9l280 695q10 23 10 28q0 3 -6 3q-9 0 -44 -3.5t-85.5 -7.5t-111 -7.5t-120.5 -3.5q-43 0 -75 -16t-53 -42t-31.5 -58.5t-10.5 -65.5q0 -28 9 -57.5
t28.5 -54t49.5 -40t71 -15.5q42 0 73 16t51 42t30 58.5t10 64.5q0 46 -18 82t-44 54v2q6 0 33.5 1.5t62 4.5t70 5.5t58.5 3.5q-2 -5 -18.5 -44l-42 -98.5l-57 -134l-64.5 -150.5l-63.5 -147l-54.5 -124q-2 -5 0 -8.5t10 -1.5zM209 389q-26 0 -45.5 13.5t-32 35.5t-19 49.5
t-6.5 55.5q0 29 5.5 55t18 45.5t31.5 31t46 11.5q25 0 44.5 -14t32.5 -36t19.5 -49.5t6.5 -55.5q0 -29 -5.5 -54.5t-17.5 -45t-31.5 -31t-46.5 -11.5zM1004 0q43 0 74 16t51 42t29.5 58.5t9.5 64.5q0 28 -9.5 58t-28.5 54.5t-49 40t-70 15.5q-44 0 -75 -16t-51 -42
t-29.5 -58.5t-9.5 -65.5q0 -28 9 -57.5t28.5 -54t49.5 -40t71 -15.5zM1008 27q-26 0 -45.5 13.5t-32 35t-19 49t-6.5 55.5q0 29 5.5 54.5t18 45t31.5 31t46 11.5q25 0 44.5 -13.5t32.5 -35.5t20 -49.5t7 -55.5q0 -29 -5.5 -54.5t-18 -44.5t-32 -30.5t-46.5 -11.5z" />
    <glyph glyph-name="questiondown" unicode="&#xbf;" horiz-adv-x="488" 
d="M265 -83q-34 0 -56.5 13t-36 32.5t-19 41.5t-5.5 40q0 27 4 50.5t14 48.5t27 52.5t43 60.5q17 21 34.5 40.5t34.5 42.5q22 28 22 50q0 14 -7 27t-22 32q-9 11 -22 23t-20 12q-3 0 -7 -3t-4 -6q0 -5 9 -17q11 -14 15 -27t4 -24q0 -6 -1 -13t-5.5 -16t-12.5 -21t-22 -30
q-36 -45 -67.5 -79t-54.5 -65.5t-36.5 -65.5t-13.5 -77q0 -26 9.5 -54t31 -50.5t56 -37t84.5 -14.5q58 0 100.5 13t65.5 27q8 5 9.5 8t1.5 8v33t-0.5 35t-1.5 30.5t-2 18.5q-1 10 -8 10q-6 0 -8 -17q-2 -26 -9.5 -48.5t-25.5 -44.5q-12 -15 -36.5 -27t-61.5 -12zM263 667
q-23 0 -37.5 -15.5t-14.5 -38.5q0 -22 14.5 -35t36.5 -13q27 0 39 17.5t12 33.5q0 17 -12 34t-38 17z" />
    <glyph glyph-name="grave" unicode="`" horiz-adv-x="911" 
d="M506 830q9 0 9 5q0 3 -5.5 6t-13.5 8l-31.5 21.5t-30 22l-23.5 18.5t-13 11q-7 7 -9 11.5t-6 4.5q-3 0 -6.5 -1.5t-9.5 -3.5q-9 -4 -26.5 -9l-33.5 -10q-11 -3 -11 -8q0 -6 29 -17q4 -2 17.5 -6.5t32.5 -11.5t40 -14l39.5 -13t32.5 -10t19 -4z" />
    <glyph glyph-name="acute" unicode="&#xb4;" horiz-adv-x="911" 
d="M583 933q-6 9 -10 9t-9.5 -2.5t-18.5 -10.5q-3 -2 -19.5 -11.5l-38 -23l-43.5 -27.5t-35 -23q-7 -4 -7 -8q0 -6 5 -6q3 0 15 5t30.5 11.5t39.5 12.5t42.5 11t39.5 7q13 2 20.5 1t9.5 -1q3 0 5.5 2.5t-1.5 9.5l-14 25.5z" />
    <glyph glyph-name="circumflex" unicode="&#x2c6;" horiz-adv-x="911" 
d="M582 845q2 2 3.5 4.5t1.5 4.5t-12 10l-20 15.5l-32 24l-31.5 23.5t-17.5 13q-6 5 -9.5 7.5t-6.5 2.5q-5 0 -16 -10q-4 -4 -20.5 -19l-35.5 -33l-35.5 -33t-20.5 -19q-2 -3 -4 -5.5t-2 -5.5q0 -8 7 -8t18 10q9 7 20 16.5t22.5 18l22.5 16t20 12.5q10 5 16 5q2 0 10 -4
l15 -11l24 -18t25 -21t20 -19q4 -5 8 -5q3 0 9 6z" />
    <glyph glyph-name="tilde" unicode="&#x2dc;" horiz-adv-x="911" 
d="M526 830q12 0 25 8.5t25 20t21 23t12 17.5q4 8 4 13q0 6 -7 6q-5 0 -12 -11q-1 -2 -5.5 -6.5t-12 -9.5t-18.5 -9t-25 -4q-12 0 -29.5 6t-28.5 11l-44.5 21t-39.5 10q-12 0 -25 -8t-25 -19.5t-21.5 -23.5t-14.5 -20q-3 -5 -5 -8t-2 -7q0 -6 6 -6t14 9q3 3 7.5 9t12 12
t18 10.5t23.5 4.5q23 0 38.5 -8.5t29.5 -14.5l32.5 -15.5t46.5 -10.5z" />
    <glyph glyph-name="macron" unicode="&#xaf;" horiz-adv-x="911" 
d="M343 900q-10 0 -11 -6l-8 -25q-1 -7 10 -7h235q7 0 9 6l8 22q4 10 -8 10h-235z" />
    <glyph glyph-name="breve" unicode="&#x2d8;" horiz-adv-x="911" 
d="M316 904q-2 -2 -4.5 -3.5t-2.5 -5.5q0 -5 12.5 -16.5t23.5 -19.5q20 -14 45 -21.5t48 -7.5q32 0 55 7.5t46 21.5q9 5 19.5 14t20 19t16 18.5t6.5 12.5q0 8 -8 8q-5 0 -12 -8t-29 -24q-14 -11 -35.5 -20t-52.5 -9q-5 0 -15.5 1t-23.5 6t-27.5 14t-27.5 26q-5 5 -6.5 10.5
t-6.5 5.5q-2 0 -4.5 -1.5t-4.5 -3.5z" />
    <glyph glyph-name="dotaccent" unicode="&#x2d9;" horiz-adv-x="911" 
d="M455 830q23 0 37.5 15.5t14.5 38.5t-15 36t-37 13q-27 0 -39 -17.5t-12 -34.5t12 -34t39 -17z" />
    <glyph glyph-name="dieresis" unicode="&#xa8;" horiz-adv-x="911" 
d="M555 830q20 0 32 13t12 33q0 19 -12.5 29.5t-30.5 10.5q-23 0 -33 -14.5t-10 -28.5t9.5 -28.5t32.5 -14.5zM354 830q20 0 32 13t12 33q0 19 -12.5 29.5t-30.5 10.5q-23 0 -33 -14.5t-10 -28.5t9.5 -28.5t32.5 -14.5z" />
    <glyph glyph-name="ring" unicode="&#x2da;" horiz-adv-x="911" 
d="M434 820q22 0 44 6t39.5 17.5t28 27.5t10.5 37q0 26 -22 41.5t-60 15.5q-26 0 -47.5 -7t-37.5 -19t-24.5 -27.5t-8.5 -32.5q0 -26 20 -42.5t58 -16.5zM450 844q-18 0 -34 12.5t-16 35.5q0 13 5.5 22t14 15t18.5 9t19 3q27 0 39.5 -14t12.5 -32q0 -21 -17 -36t-42 -15z
" />
    <glyph glyph-name="cedilla" unicode="&#xb8;" horiz-adv-x="911" 
d="M472 0l-77 -63q-13 -10 -13 -14q0 -5 15 -9q44 -13 58 -32t14 -41q0 -14 -6.5 -24.5t-17 -18t-24 -12.5t-26.5 -6q-8 -1 -14 -2.5t-6 -8.5q0 -8 13 -8q14 0 36 4.5t42 13.5q13 5 25.5 13t22.5 18.5t16.5 23t6.5 27.5q0 31 -26.5 48.5t-73.5 22.5q3 4 14 14l23 21.5t23 21
t15 11.5h-40z" />
    <glyph glyph-name="hungarumlaut" unicode="&#x2dd;" horiz-adv-x="911" 
d="M393 943l-15 -19.5l-25 -33t-23.5 -33t-11.5 -18.5q-4 -9 3 -9q4 0 14 11q18 19 46.5 40t51.5 35q11 6 19 8.5t11 4.5q2 1 2 3q0 3 -5 6l-20 12.5t-17 9.5q-8 3 -13 3q-3 0 -6 -5t-11 -15zM523 945q-3 -4 -16.5 -20l-28.5 -34t-27 -34t-13 -19q-3 -8 3 -8q2 0 5.5 1.5
t8.5 7.5q9 8 22 18l27.5 20.5t29 20t27.5 16.5q11 6 20 7.5t11 2.5q7 2 -1 10q-11 9 -19 14.5l-16 10.5q-8 4 -14 4q-3 0 -7 -4.5z" />
    <glyph glyph-name="ogonek" unicode="&#x2db;" horiz-adv-x="911" 
d="M462 0q-5 -3 -22.5 -17t-36 -35t-33.5 -48t-15 -55q0 -29 19.5 -49.5t59.5 -20.5q21 0 41 8t35.5 18.5t26.5 21l15 14.5q4 5 6 7t2 7q0 6 -8 6q-2 0 -8.5 -5.5t-16 -12.5t-20.5 -12.5t-23 -5.5q-21 0 -36 13t-15 37q0 42 18.5 75.5t39.5 53.5h-29z" />
    <glyph glyph-name="caron" unicode="&#x2c7;" horiz-adv-x="911" 
d="M329 920q-2 -2 -3.5 -4.5t-1.5 -4.5t12 -10l20 -15.5l32 -24l31.5 -23.5t17.5 -13q11 -10 15 -10q6 0 17 10q4 4 20.5 19l35.5 33l35.5 33t20.5 19q2 3 4 5.5t2 5.5q0 8 -7 8t-18 -10l-20 -17t-22.5 -17.5l-22.5 -16.5t-20 -12q-10 -5 -16 -5q-2 0 -10 4q-5 2 -16 10
t-23.5 18.5l-25 21.5t-19.5 19q-4 5 -8 5q-3 0 -9 -6z" />
    <glyph glyph-name="emdash" unicode="&#x2014;" horiz-adv-x="1000" 
d="M1000 282v46h-1000v-46h1000z" />
    <glyph glyph-name="AE" unicode="&#xc6;" horiz-adv-x="912" 
d="M473 341q9 0 9 -8v-46q0 -72 -0.5 -128.5t-4.5 -88.5q-3 -22 -8.5 -37t-20.5 -18q-7 -2 -14 -3t-14 -1q-8 0 -8 -6q0 -8 16 -8q11 0 26 0.5t29 1.5q14 0 24.5 0.5t14.5 0.5q11 0 30 -0.5t48 -2.5q29 -1 70.5 -2t98.5 -1q15 0 24 0.5t15 3t9 7.5t6 15q2 7 4 22l4 30.5
l3.5 28t1.5 15.5q0 5 -0.5 10t-5.5 5q-6 0 -9 -15q-5 -31 -15 -47t-30 -24t-48 -9.5t-48 -1.5q-37 0 -59 3t-34.5 12t-17 24.5t-5.5 41.5v31v50v52v39v45q0 9 7 9h25h42t41.5 -0.5t27.5 -1.5q30 -3 43 -13.5t16 -21.5q2 -8 2.5 -14t0.5 -10q2 -11 8 -11q5 0 6 6t1 10
q0 5 1 23.5t3 33.5q2 25 5 38t3 18q0 8 -5 8q-4 0 -15 -13q-7 -8 -18 -10t-29 -4q-9 -1 -33 -1.5t-51 -0.5h-48h-27q-6 0 -6 10v317q0 10 6 10h23q20 0 43 -0.5l44 -1t27 -1.5q40 -5 53 -13.5t18 -20.5q4 -9 5 -20t1 -16q0 -13 8 -13q3 0 4.5 3.5t2.5 7.5t1.5 13.5t1.5 20
t1.5 19.5t0.5 13q2 21 5 31.5t3 15.5q0 9 -4 9t-7 -2t-7 -3q-14 -3 -43 -5q-9 0 -44.5 -0.5t-76.5 -0.5h-73h-35q-7 0 -17 2q-5 0 -8.5 0.5t-6.5 0.5q-10 0 -13 -14l-5 -13t-17 -29l-130 -204l-110 -171.5l-82 -126.5t-45 -67l-26 -36t-24 -29t-25.5 -23.5t-29.5 -18.5
q-12 -6 -24.5 -8t-17.5 -2q-11 0 -11 -6q0 -8 13 -8q18 0 37 0.5t34.5 1t27 1t14.5 0.5q4 0 16 -0.5t29 -1t38 -1t42 -0.5q7 0 12 2t5 5q0 7 -12 7q-8 0 -21 2t-23 6q-20 8 -20 29q0 14 8.5 36.5t34.5 64.5q6 11 23 39l36 58.5l35 56l20 31.5q4 5 8 6t10 1h176zM482 385
q0 -8 -9 -8h-160q-9 0 -4 9q2 4 13.5 23.5l28.5 47l36.5 59.5l37 60.5l30.5 50t18 28.5q3 5 6 5t3 -5v-270z" />
    <glyph glyph-name="ordfeminine" unicode="&#xaa;" horiz-adv-x="400" 
d="M245 522q3 0 6 -4l40 -90q3 -8 -4 -10q-4 -2 -4 -5t17 -3q38 -2 65 -2h33q11 0 11 5q0 4 -5 4h-11q-5 0 -11 2q-9 2 -18.5 12t-24.5 38q-9 17 -21.5 43.5l-26.5 56.5l-27.5 60.5l-24.5 56l-19 43t-10 21.5q-5 11 -8 14t-6 3q-8 0 -13 -12l-127 -295q-8 -18 -18 -29
t-27 -13q-4 -1 -9 -1h-7q-5 0 -5 -4q0 -5 10 -5q20 0 37.5 1t25.5 1q7 0 21 -1t24 -1q9 0 9 5q0 4 -6 4h-5q-5 0 -9.5 3.5t-4.5 10.5q0 5 2 12l4 14l22 60q2 5 5 5h120zM137 552q-4 0 -2 4l43 112q5 12 10 0l46 -112q2 -4 -3 -4h-94z" />
    <glyph glyph-name="Lslash" unicode="&#x141;" horiz-adv-x="592" 
d="M262 381l163 80q8 3 5 9l-11 23q-2 6 -8 3l-149 -72v39v95v59q0 23 0.5 36.5t1.5 25.5q2 26 9.5 39.5t29.5 17.5q9 2 18.5 2.5t14.5 0.5q8 0 8 6q0 8 -16 8q-11 0 -28.5 -0.5l-34.5 -1t-30 -1t-15 -0.5t-13.5 0.5t-28 1t-35.5 1t-36 0.5q-16 0 -16 -8q0 -6 8 -6
q7 0 17.5 -0.5t16.5 -2.5q25 -5 33 -18t10 -39q1 -12 1.5 -25.5t0.5 -36.5v-59v-95v-78l-106 -55q-4 -1 -2 -8l10 -22q2 -4 4 -4q3 0 5 1l89 46v-56q0 -72 -0.5 -128.5t-4.5 -88.5q-3 -22 -8.5 -37t-20.5 -18q-7 -2 -15 -3t-15 -1q-8 0 -8 -6q0 -8 16 -8q11 0 26.5 0.5
t30.5 1.5q15 0 26.5 0.5t14.5 0.5q22 0 46 -0.5t56 -2.5q32 -1 72 -2t94 -1q20 0 31.5 1t17.5 4t8.5 8t5.5 14q3 11 5.5 26.5l5 30.5t3.5 27t1 16q0 15 -6 15q-7 0 -9 -13q-2 -14 -9 -31t-17 -29q-18 -22 -49.5 -26t-71.5 -4q-29 0 -49.5 1.5t-34 4t-22 7t-14.5 10.5
q-14 14 -18 70.5t-4 158.5v96z" />
    <glyph glyph-name="Oslash" unicode="&#xd8;" horiz-adv-x="915" 
d="M202 66q46 -38 108 -60.5t142 -22.5q90 0 164 32.5t126 88t80.5 130t28.5 158.5q0 83 -26 149t-74 114l81 87q6 6 0 13l-20 16q-9 7 -14 2l-82 -88q-51 40 -113.5 61t-144.5 21q-69 0 -125 -17.5t-100 -47.5t-75.5 -69.5t-52.5 -83t-31 -88.5t-10 -85q0 -73 25.5 -148
t80.5 -132l-87 -94q-4 -4 2 -10l20 -19q6 -6 10 0zM695 595q28 -44 44 -101.5t16 -129.5q0 -109 -30.5 -176.5t-74 -104.5t-90.5 -49.5t-81 -12.5q-67 0 -124 26t-101 75zM227 157q-32 48 -50 110t-18 137q0 82 22 143.5t61 103t92.5 62t115.5 20.5q61 0 117.5 -25t99.5 -76
z" />
    <glyph glyph-name="OE" unicode="&#x152;" horiz-adv-x="1187" 
d="M839 704q0 12 6 12h23q20 0 43 -0.5l44 -1t27 -1.5q40 -5 53 -13.5t18 -20.5q4 -9 5 -20t1 -16q0 -13 8 -13q3 0 4.5 3.5t2.5 7.5t1.5 13.5t1.5 20t1.5 19.5t0.5 13q2 20 5 30t3 15q0 9 -4 9t-7 -2t-7 -3q-14 -3 -43 -5q-6 0 -24.5 -0.5t-43.5 -0.5h-53h-51h-41h-18
q-6 0 -10.5 0.5t-9.5 1.5q-4 0 -6.5 0.5t-4.5 0.5q-10 0 -10 -9q0 -5 1 -15t1 -22v-65h-4q-15 19 -40 41t-60 41t-81.5 31t-106.5 12q-70 0 -127 -17.5t-101.5 -47.5t-76.5 -69t-53.5 -82.5t-31.5 -89t-10 -86.5q0 -68 22 -137.5t69.5 -126t121 -92.5t175.5 -36
q73 0 125.5 17.5t88.5 40.5t57.5 46.5l31.5 34.5h3l-2 -88q0 -11 -1.5 -17.5t-1.5 -12.5q0 -7 10 -7q4 0 7 0.5t7 1.5q5 0 9.5 0.5t10.5 0.5q11 0 30 -0.5t48 -2.5q29 -1 70.5 -2t98.5 -1q15 0 24 0.5t15 3t9 7.5t6 15q2 7 4 22l4 30.5l3.5 28t1.5 15.5q0 5 -0.5 10t-5.5 5
q-6 0 -9 -15q-5 -31 -15 -47t-30 -24t-48 -9.5t-48 -1.5q-37 0 -59 3t-34.5 12t-17 24.5t-5.5 41.5v32v54v65v62v45q0 9 7 9h25h42t41.5 -0.5t27.5 -1.5q30 -3 43 -13.5t16 -21.5q2 -8 2.5 -14t0.5 -10q2 -11 8 -11q5 0 6 6t1 10q0 5 1 23.5t3 33.5q2 25 5 38t3 18q0 8 -5 8
q-4 0 -15 -13q-7 -8 -18 -10t-29 -4q-9 -1 -33 -1.5t-51 -0.5h-48h-27q-6 0 -6 10v276zM478 21q-67 0 -125.5 27t-101.5 77t-67.5 121t-24.5 158q0 82 22 143.5t61 103t92.5 62t115.5 20.5q59 0 114 -24t97.5 -70.5t68 -115.5t25.5 -159q0 -73 -14.5 -126.5t-37.5 -91.5
t-52.5 -62.5t-60.5 -38.5t-60 -19t-52 -5z" />
    <glyph glyph-name="ordmasculine" unicode="&#xba;" horiz-adv-x="437" 
d="M216 405q46 0 83.5 15t63.5 40.5t40.5 60t14.5 73.5q0 40 -15 72.5t-41 54.5t-63 34t-80 12q-51 0 -88 -17t-62 -43t-37 -58.5t-12 -62.5q0 -34 11.5 -66.5t35.5 -58t61 -41t88 -15.5zM230 432q-28 0 -53 12.5t-44 34.5t-30.5 52t-11.5 66q0 37 10.5 64t27.5 45
t38.5 26.5t42.5 8.5q25 0 49.5 -10.5t44 -31t31.5 -50t12 -68.5q0 -48 -13 -77t-32 -45t-39 -21.5t-33 -5.5z" />
    <glyph glyph-name="ae" unicode="&#xe6;" horiz-adv-x="815" 
d="M419 286q8 0 8 -7v-35q0 -62 -0.5 -110t-3.5 -74q-2 -19 -7 -31t-19 -14q-6 -1 -13.5 -2.5t-13.5 -1.5q-7 0 -7 -7t14 -7q10 0 23 0.5t25 1.5q12 0 21.5 0.5t12.5 0.5q10 0 28 -0.5t46 -1.5q55 -3 154 -3q13 0 21 0.5t13 2.5t8 6.5t5 12.5q2 6 4 19l4 26t3 23.5t1 13.5
q0 5 -0.5 8.5t-5.5 3.5q-7 0 -10 -12q-5 -26 -12.5 -38t-24.5 -20q-17 -7 -42.5 -8t-42.5 -1q-32 0 -52.5 1.5t-32 8t-16 19t-5.5 34.5v27v43v46v33v35q0 8 6 8h23h38t38.5 -0.5t24.5 -1.5q26 -2 37 -10t13 -17q2 -7 2.5 -10.5t0.5 -5.5q0 -13 9 -13q5 0 5.5 5t0.5 8
q0 5 0.5 20.5t2.5 28.5q2 21 4.5 32t2.5 15q0 7 -4 7q-5 0 -13 -11q-5 -7 -15 -8t-26 -3q-8 -1 -30 -1.5t-46 -0.5h-44h-24q-6 0 -6 9v265q0 9 6 9h21t39 -0.5t39.5 -1t24.5 -1.5q18 -2 29 -4.5t17 -5.5t9 -7t6 -9q3 -8 4 -16.5t1 -13.5q0 -11 9 -11q2 0 3.5 3t2.5 6
q1 4 1.5 12t1.5 17t1.5 16.5t0.5 10.5q2 18 4.5 26.5t2.5 13.5q0 8 -4 8q-3 0 -6 -2t-6 -2q-5 -2 -15 -3.5t-23 -1.5h-212q-7 0 -15 1t-13 1q-8 0 -11 -12q-2 -5 -5 -11.5t-15 -24.5l-114 -172.5l-97 -146l-72 -107.5t-40 -57l-23.5 -30.5t-21 -24.5t-21.5 -20t-26 -16
q-11 -5 -21.5 -7t-15.5 -2q-10 0 -10 -5q0 -7 12 -7q16 0 32.5 0.5t30.5 1t23.5 1t12.5 0.5q7 0 40.5 -1.5t70.5 -1.5q6 0 10.5 2t4.5 4q0 8 -10 8q-8 0 -19 2t-19 5q-17 6 -17 23q0 11 8 30.5t31 55.5l20.5 32l31 48.5l30 46.5t17.5 26q3 5 6.5 5.5t8.5 0.5h156zM427 327
q0 -7 -8 -7h-141q-8 0 -3 8q2 3 12.5 20l25 40.5l31.5 50.5l32.5 51.5l27 42.5l15.5 24q3 4 5 4q3 0 3 -4v-230z" />
    <glyph glyph-name="dotlessi" unicode="&#x131;" horiz-adv-x="389" 
d="M235 394v80v50q0 20 0.5 31.5t0.5 21.5q2 23 7.5 33t23.5 14q8 2 12 2h10q7 0 7 7t-14 7q-10 0 -24.5 -0.5t-28.5 -0.5q-13 0 -23.5 -0.5t-11.5 -0.5q-2 0 -12 0.5t-24 0.5q-13 0 -27.5 0.5t-25.5 0.5q-14 0 -14 -7t7 -7q5 0 12 -0.5t15 -2.5q14 -3 20 -13.5t8 -32.5
q1 -10 1.5 -21.5t0.5 -31.5v-50v-80v-150q0 -62 -1 -110t-4 -74q-2 -19 -6 -30.5t-17 -14.5q-6 -2 -13.5 -3t-13.5 -1q-7 0 -7 -7t14 -7q10 0 24 0.5l27.5 1t23.5 1t12 0.5q1 0 11.5 -0.5t26.5 -1t35 -1t37 -0.5q14 0 14 7t-7 7q-6 0 -18 1t-22 3q-20 3 -25 14.5t-7 30.5
q-3 26 -3.5 74t-0.5 110v150z" />
    <glyph glyph-name="lslash" unicode="&#x142;" 
d="M235 322l142 67q6 3 4 8l-11 25q-2 5 -7 3l-128 -63v32v80v50q0 20 0.5 31.5t0.5 21.5q2 23 7.5 33t25.5 14q8 1 16 1.5t13 0.5q7 0 7 7t-14 7q-10 0 -25.5 -0.5t-30.5 -0.5t-26.5 -0.5t-12.5 -0.5q-2 0 -12.5 0.5t-25.5 0.5t-32 0.5t-32 0.5q-14 0 -14 -7t7 -7
q6 0 15.5 -0.5t14.5 -1.5q22 -3 28 -14t8 -33q1 -10 1.5 -21.5t0.5 -31.5v-50v-80v-65l-92 -45q-4 -2 -1 -7l10 -24q2 -3 4 -3h4l75 40v-46q0 -62 -0.5 -110t-4.5 -74q-3 -19 -6.5 -31t-16.5 -15q-6 -2 -13.5 -3t-13.5 -1q-7 0 -7 -6q0 -7 14 -7q11 0 24 1t27 1q14 1 24 1
h14q20 0 43 -0.5t52 -1.5q58 -3 151 -3q18 0 28 1t15.5 3t8 6.5t4.5 12.5q3 9 5 22.5l4 26t3 23t1 13.5q0 13 -7 13q-6 0 -8 -11q-2 -13 -8.5 -27t-14.5 -24q-16 -19 -42.5 -21t-61.5 -2q-52 0 -78 4.5t-37 15.5q-13 12 -16 58.5t-3 132.5v80z" />
    <glyph glyph-name="oslash" unicode="&#xf8;" horiz-adv-x="808" 
d="M179 56q40 -32 95 -51t126 -19q79 0 144 27.5t111.5 74.5t71.5 110.5t25 134.5t-23.5 126.5t-65.5 97.5l71 73q3 3 3.5 5t-3.5 6l-17 17q-8 8 -13 2l-73 -78q-45 34 -100.5 52t-127.5 18q-91 0 -157 -32.5t-108.5 -82t-62.5 -108t-20 -109.5q0 -63 22.5 -127t71.5 -112
l-77 -79q-4 -4 2 -9l20 -17q6 -5 9 0zM611 505q24 -38 37 -86.5t13 -109.5t-12 -106t-31.5 -77t-45 -52.5t-52 -32t-52 -16t-45.5 -4.5q-120 0 -196 84zM203 134q-58 84 -58 209q0 69 19 121t52.5 86.5t79.5 52t101 17.5q54 0 102.5 -20.5t86.5 -63.5z" />
    <glyph glyph-name="oe" unicode="&#x153;" horiz-adv-x="1057" 
d="M744 595q0 11 6 11h21t39 -0.5t40 -1t25 -1.5q32 -5 44 -10.5t17 -16.5q3 -8 4 -16.5t1 -13.5q0 -11 8 -11q2 0 4 3t3 6q1 4 1.5 12t1.5 17t1.5 17t0.5 11q2 17 4.5 25t2.5 13q0 8 -4 8q-3 0 -6 -1.5t-6 -2.5l-15 -3t-23 -2h-214q-11 0 -15.5 1t-8.5 1q-8 0 -8 -8
q0 -5 0.5 -12.5t0.5 -18.5v-60h-3q-15 18 -37.5 38t-54 36t-73 26.5t-94.5 10.5q-92 0 -158.5 -32.5t-109.5 -81.5t-63.5 -107.5t-20.5 -111.5q0 -58 19.5 -117t61.5 -107t106.5 -78.5t154.5 -30.5q64 0 110.5 15t78.5 35t52 40.5t30 32.5h3l-2 -80q0 -9 -1 -15t-1 -11
q0 -6 8 -6q6 0 10.5 1.5t15.5 1.5t28 -0.5t43 -1.5t67 -2t91 -1q13 0 21 0.5t13 2.5t8 6.5t5 12.5q2 6 4 19l4 26t3 23.5t1 13.5q0 5 -1 8.5t-6 3.5q-6 0 -9 -12q-5 -26 -14 -38t-24 -20q-8 -4 -19 -6t-22.5 -2.5t-22.5 -0.5h-20q-32 0 -52.5 2t-32 8.5t-16.5 19t-6 34.5v27
v47v56v53v36q0 8 6 8h23h38q21 0 39.5 -0.5t24.5 -1.5q26 -2 37 -10.5t13 -17.5q2 -7 2.5 -12t0.5 -8q0 -9 8 -9q5 0 6 5t1 8q0 5 0.5 20.5t2.5 28.5q2 21 4.5 32t2.5 15q0 7 -4 7t-13 -11q-6 -7 -15.5 -8t-25.5 -3q-8 -1 -30 -1.5t-46 -0.5h-45h-24q-6 0 -6 9v230zM422 21
q-59 0 -110 23t-88 65.5t-58 102t-21 131.5q0 69 19 121t52.5 86.5t79.5 52t101 17.5q52 0 101 -21t87 -60.5t61 -97.5t23 -132q0 -91 -27.5 -147t-66.5 -87.5t-81 -42.5t-72 -11z" />
    <glyph glyph-name="germandbls" unicode="&#xdf;" horiz-adv-x="1048" 
d="M209 -14q36 0 74 6t66 24q47 31 64.5 69t17.5 76q0 27 -7.5 52.5t-24.5 50t-44.5 50t-67.5 52.5l-25 17q-33 22 -54.5 39.5t-35 34t-19 33.5t-5.5 37q0 45 34.5 68.5t82.5 23.5q30 0 50.5 -5t34 -12t20.5 -14t9 -11q4 -7 8 -20.5t5 -21.5q1 -5 2 -8t6 -3q7 0 7 19
q0 44 2 65.5t2 24.5q0 6 -9 6q-5 0 -11.5 0.5t-19.5 3.5q-16 4 -40.5 7t-50.5 3q-44 0 -79.5 -11t-61.5 -31.5t-40 -50.5t-14 -67q0 -44 27.5 -86.5t98.5 -95.5l40 -30l50 -39t34.5 -33.5t20 -34.5t6.5 -41q0 -48 -33 -80.5t-99 -32.5q-22 0 -44.5 4.5t-42 14.5t-33.5 26
t-19 39q-2 9 -2.5 17.5t-0.5 13.5q0 10 -8 10q-7 0 -7 -14l-3 -34.5t-2 -55.5q0 -17 2 -22t11 -10q27 -13 62 -18t66 -5zM733 -14q36 0 74 6t66 24q47 31 64.5 69t17.5 76q0 27 -7.5 52.5t-24.5 50t-44.5 50t-67.5 52.5l-25 17q-33 22 -54.5 39.5t-35 34t-19 33.5t-5.5 37
q0 45 34.5 68.5t82.5 23.5q30 0 50.5 -5t34 -12t20.5 -14t9 -11q4 -7 8 -20.5t5 -21.5q1 -5 2 -8t6 -3q7 0 7 19q0 44 2 65.5t2 24.5q0 6 -9 6q-5 0 -11.5 0.5t-19.5 3.5q-16 4 -40.5 7t-50.5 3q-44 0 -79.5 -11t-61.5 -31.5t-40 -50.5t-14 -67q0 -44 27.5 -86.5t98.5 -95.5
l40 -30l50 -39t34.5 -33.5t20 -34.5t6.5 -41q0 -48 -33 -80.5t-99 -32.5q-22 0 -44.5 4.5t-42 14.5t-33.5 26t-19 39q-2 9 -2.5 17.5t-0.5 13.5q0 10 -8 10q-7 0 -7 -14l-3 -34.5t-2 -55.5q0 -17 2 -22t11 -10q27 -13 62 -18t66 -5z" />
    <glyph glyph-name="onesuperior" unicode="&#xb9;" horiz-adv-x="330" 
d="M200 595q0 74 1.5 114.5t1.5 44.5q0 13 -6 13q-4 0 -9 -3t-9 -6q-2 -1 -13 -8l-27 -17l-34 -21l-33.5 -20.5l-26.5 -16.5t-12 -8q-3 -3 -3 -7q0 -6 6 -6q2 0 4.5 1t4.5 2q6 3 18 8l25 10t24 8.5t16 3.5q8 0 9.5 -4.5t2.5 -11.5q1 -8 1 -30v-46v-110q0 -41 -0.5 -76
t-2.5 -55q-2 -13 -7 -20.5t-23 -11.5q-5 -1 -13.5 -2t-17 -1.5t-16 -1t-10.5 -0.5q-8 0 -8 -7t12 -7q18 0 38 0.5t36 0.5q17 0 28 0.5t13 0.5q3 0 33.5 -1t71.5 -1q12 0 12 8q0 6 -9 6q-5 0 -21 1.5t-25 3.5q-17 4 -22 11.5t-7 20.5q-2 20 -2.5 55t-0.5 76v110z" />
    <glyph glyph-name="logicalnot" unicode="&#xac;" horiz-adv-x="510" 
d="M465 159v212h-420v-51h368v-161h52z" />
    <glyph glyph-name="mu" unicode="&#xb5;" horiz-adv-x="576" 
d="M70 150q0 -56 -1 -104.5t-2.5 -95t-3.5 -94t-5 -101.5l12 -5l90 50q-4 19 -7.5 46t-7 59t-6 66.5t-4.5 68.5q19 -30 48 -42.5t67 -12.5q34 0 59.5 9t45.5 24.5t34.5 36.5t25.5 45q2 -36 8.5 -58t16 -35t22.5 -17.5t28 -4.5q30 0 50 20.5t26 55.5l-15 7q-6 -15 -14 -24
t-20 -9q-14 0 -23 13t-9 43v359h-75v-250q0 -47 -12 -76t-30.5 -45.5t-42 -22.5t-45.5 -6q-64 0 -99.5 40.5t-35.5 134.5v225h-75v-300z" />
    <glyph glyph-name="mu" unicode="&#x3bc;" horiz-adv-x="576" 
d="M70 150q0 -56 -1 -104.5t-2.5 -95t-3.5 -94t-5 -101.5l12 -5l90 50q-4 19 -7.5 46t-7 59t-6 66.5t-4.5 68.5q19 -30 48 -42.5t67 -12.5q34 0 59.5 9t45.5 24.5t34.5 36.5t25.5 45q2 -36 8.5 -58t16 -35t22.5 -17.5t28 -4.5q30 0 50 20.5t26 55.5l-15 7q-6 -15 -14 -24
t-20 -9q-14 0 -23 13t-9 43v359h-75v-250q0 -47 -12 -76t-30.5 -45.5t-42 -22.5t-45.5 -6q-64 0 -99.5 40.5t-35.5 134.5v225h-75v-300z" />
    <glyph glyph-name="trademark" unicode="&#x2122;" horiz-adv-x="281" 
d="M27 756q-2 0 -6 0.5t-8 0.5t-5 1t-3 1l-0.5 -0.5t-0.5 -2.5q0 -1 -2 -9t-2 -12t2 -4t3 4q2 10 18 10h24v-68q0 -14 -0.5 -21.5t-0.5 -12.5q0 -3 -1.5 -6.5t-7.5 -4.5h-5q-4 0 -4 -2t4 -2q6 0 14 0.5t10 0.5t10 -0.5t13 -0.5t5 2t-5 2l-5 1q-8 2 -8 10v34v68h20
q12 0 14.5 -2t3.5 -6l1 -4q1 -4 2 -4q3 0 3 5v18v6q-1 0 -2.5 -0.5t-3.5 -0.5t-4.5 -0.5t-7.5 -0.5h-65zM141 717h1l39 -79q4 -10 7 -10q2 0 7 10l39 78h-1l9 -82q0 -4 4 -4q3 -1 15 -1.5t17 -0.5q3 0 3 2t-4 2h-2q-7 0 -10 3.5t-5 14.5l-13 103q0 7 -3 7q-4 0 -5 -4
l-47 -99l-47 98q-2 5 -5 5q-5 0 -5 -7l-14 -107q-1 -14 -10 -14h-3q-4 0 -4 -2t3 -2q5 0 10 0.5t7 0.5t8.5 -0.5t11.5 -0.5q3 0 3 2t-7 2q-6 0 -6 7q0 5 0.5 8t0.5 6z" />
    <glyph glyph-name="Eth" unicode="&#xd0;" horiz-adv-x="917" 
d="M178 397h-79q-10 0 -13 -9l-3 -16q-1 -5 0 -8t7 -3h88v-74q0 -72 -0.5 -128.5t-4.5 -88.5q-3 -22 -8.5 -37t-20.5 -18q-7 -2 -15 -3t-15 -1q-8 0 -8 -6q0 -8 16 -8q11 0 27 1t31 1q16 1 27 1h13q4 0 27 -2t56 -4q32 -2 69.5 -4t69.5 -2q64 0 113 11.5t86 29t62.5 37.5
t41.5 37q21 22 40.5 51t34.5 64.5t24 77.5t9 89q0 45 -8 83t-21.5 69.5t-31 56.5t-36.5 45q-45 46 -99 69.5t-109 33.5t-105.5 10.5t-87.5 0.5q-23 0 -45 -0.5t-40.5 -1t-32 -1t-17.5 -0.5q-2 0 -13.5 0.5t-28 1t-35.5 1t-36 0.5q-16 0 -16 -8q0 -6 8 -6q7 0 17.5 -0.5
t16.5 -2.5q25 -5 33 -18t10 -39q1 -12 1.5 -25.5t0.5 -36.5v-59v-95v-66zM262 360h195q5 0 8.5 1.5t4.5 6.5l4 19q2 11 -7 11h-205l1 294q0 15 12 20q6 3 26.5 5t37.5 2q45 0 89 -3.5t85 -15.5t80 -34.5t74 -59.5q15 -16 32 -39.5t31.5 -55t23.5 -70.5t9 -87q0 -35 -5 -69
t-15.5 -65.5t-25.5 -58.5t-34 -46q-45 -45 -106.5 -69t-131.5 -24q-44 0 -74.5 3.5t-50 9.5t-30 13t-15.5 14q-3 4 -5 13t-3 20l-2 22.5t-1 20.5q-1 12 -1.5 58.5t-0.5 110.5v53z" />
    <glyph glyph-name="onehalf" unicode="&#xbd;" horiz-adv-x="851" 
d="M190 565q0 70 1.5 108.5t1.5 42.5q0 13 -6 13q-4 0 -8.5 -3t-8.5 -6q-2 -1 -12.5 -7.5l-25.5 -16l-32.5 -20l-32 -19.5l-25 -15.5t-11.5 -7.5q-3 -3 -3 -7q0 -6 6 -6q2 0 4.5 1t4.5 2q6 3 17.5 7.5l23.5 9.5t23 8.5t15 3.5q8 0 9 -4.5t2 -11.5t1 -28v-44v-104
q0 -38 -0.5 -72t-2.5 -53q-2 -12 -6.5 -19t-21.5 -11q-5 -1 -13 -2t-16.5 -1.5t-15.5 -1t-10 -0.5q-7 0 -7 -7q0 -6 11 -6q18 0 36.5 0.5t33.5 0.5q16 0 26.5 0.5t12.5 0.5q3 0 32.5 -1t67.5 -1q12 0 12 7q0 6 -9 6q-5 0 -20.5 1.5t-23.5 3.5q-17 4 -21 11t-6 19
q-2 19 -2.5 53t-0.5 72v104zM128 -14q7 -6 13 3l542 713q4 6 -2 10l-18 14q-5 4 -7.5 1.5t-5.5 -6.5l-540 -705q-7 -10 -2 -13zM743 0q11 0 20.5 3.5t14.5 12.5q4 7 8 18.5t7 23t5 21t2 13.5q0 9 -5 9q-4 0 -8 -10q-7 -23 -22.5 -34t-50.5 -14q-4 0 -20 -1t-34.5 -1.5
t-34.5 -1t-20 -0.5h-31q-3 0 -2.5 1.5t-0.5 2.5q35 27 72.5 59t68 67.5t50.5 75t20 81.5q0 22 -9 42t-27 36t-45 25.5t-63 9.5q-34 0 -61 -7t-48 -17q-5 -2 -6 -4t-1 -9q0 -6 0.5 -16.5l1 -21t1.5 -18.5t1 -10q2 -10 6 -10q8 0 8 10q0 18 6 31t14 22q14 15 30 20t37 5
q14 0 30 -5t30 -17.5t23 -33t9 -51.5q0 -42 -20 -81t-51.5 -74t-70 -67.5l-74.5 -61.5q-3 -3 -7 -6.5t-4 -8.5q0 -8 11 -8h240z" />
    <glyph glyph-name="plusminus" unicode="&#xb1;" horiz-adv-x="510" 
d="M230 524v-187h-188v-51h188v-189h52v189h186v51h-187v187h-51zM468 50h-426v-50h426v50z" />
    <glyph glyph-name="Thorn" unicode="&#xde;" horiz-adv-x="647" 
d="M178 287q0 -72 -0.5 -128.5t-4.5 -88.5q-3 -22 -8.5 -37t-20.5 -18q-7 -2 -15 -3t-15 -1q-8 0 -8 -6q0 -8 16 -8q11 0 27 0.5l31 1t26 1t12 0.5q2 0 13.5 -0.5t29 -1t38.5 -1t42 -0.5q16 0 16 8q0 6 -8 6q-7 0 -20.5 1t-24.5 3q-23 3 -30 18t-9 37q-4 32 -4.5 88.5
t-0.5 128.5v251q0 16 8 19q7 3 18.5 4.5t24.5 1.5h24t33.5 -4.5t39 -15t40.5 -30.5t31 -42t16.5 -43t7 -39t1.5 -30q0 -35 -13.5 -64.5t-36.5 -51.5t-55 -34.5t-68 -12.5q-16 0 -21.5 -1.5t-5.5 -7.5q0 -4 3.5 -5.5t7.5 -1.5q4 -1 10 -1h11q53 0 98 17t78 48.5t51.5 75.5
t18.5 97q0 39 -16 71t-33 47q-6 6 -18.5 15.5t-34 18.5t-54 16t-79.5 7q-29 0 -47 -1t-40 -3q0 15 0.5 38.5t1.5 55.5q1 22 11 35t34 18q11 2 21.5 3t17.5 1q8 0 8 7t-16 7q-18 0 -38 -0.5t-37 -1t-29 -1t-14 -0.5q-3 0 -14.5 0.5t-28 1t-35 1t-35.5 0.5q-16 0 -16 -8
q0 -6 8 -6q7 0 17.5 -0.5t16.5 -2.5q25 -5 33 -18t10 -39q1 -12 1.5 -25.5t0.5 -36.5v-59v-95v-176z" />
    <glyph glyph-name="onequarter" unicode="&#xbc;" horiz-adv-x="793" 
d="M660 160v270q0 5 -0.5 7.5t-5.5 2.5q-7 0 -16 -11l-24.5 -29l-46.5 -54l-57 -65.5l-55.5 -63.5l-42.5 -48.5t-18 -20.5q-2 -2 -5.5 -6.5t-3.5 -9.5q0 -8 13 -8h209v-35t-1 -44q-1 -13 -6 -21t-21 -10q-7 -1 -15.5 -1.5t-12.5 -0.5q-8 0 -8 -7q0 -6 8 -6q26 0 49 1t26 1
q2 0 11 -0.5t21 -0.5q13 0 27 -0.5t27 -0.5q9 0 9 7q0 6 -6 6q-5 0 -12.5 0.5t-14.5 1.5q-15 2 -20 10t-7 21q-2 20 -1.5 44t0.5 35h65q9 0 12 8q2 8 4 17t2 11q0 6 -6 6q-2 0 -8.5 -3t-19.5 -3h-49zM607 160h-165q4 5 17 20l30.5 35l36.5 42.5l36 42l29 33.5t15 17h1v-190z
M190 565q0 70 1.5 108.5t1.5 42.5q0 13 -6 13q-4 0 -8.5 -3t-8.5 -6q-2 -1 -12.5 -7.5l-25.5 -16l-32.5 -20l-32 -19.5l-25 -15.5t-11.5 -7.5q-3 -3 -3 -7q0 -6 6 -6q2 0 4.5 1t4.5 2q6 3 17.5 7.5l23.5 9.5t23 8.5t15 3.5q8 0 9 -4.5t2 -11.5t1 -28v-44v-104
q0 -38 -0.5 -72t-2.5 -53q-2 -12 -6.5 -19t-21.5 -11q-5 -1 -13 -2t-16.5 -1.5t-15.5 -1t-10 -0.5q-7 0 -7 -7q0 -6 11 -6q18 0 36.5 0.5t33.5 0.5q16 0 26.5 0.5t12.5 0.5q3 0 32.5 -1t67.5 -1q12 0 12 7q0 6 -9 6q-5 0 -20.5 1.5t-23.5 3.5q-17 4 -21 11t-6 19
q-2 19 -2.5 53t-0.5 72v104zM161 -14q7 -5 12 3l542 713q4 6 -2 10l-18 14q-5 4 -7.5 1.5t-5.5 -6.5l-540 -705q-7 -10 -1 -13z" />
    <glyph glyph-name="divide" unicode="&#xf7;" horiz-adv-x="510" 
d="M257 370q23 0 37 14.5t13 36.5q0 21 -14.5 35t-36.5 14q-21 0 -34.5 -14t-13.5 -37q0 -21 13.5 -35.5t34.5 -14.5zM468 294h-426v-51h426v51zM256 67q23 0 37.5 14.5t13.5 36.5q0 21 -14.5 35t-36.5 14q-21 0 -34.5 -14t-13.5 -37q0 -21 13.5 -35.5t34.5 -14.5v1z" />
    <glyph glyph-name="brokenbar" unicode="&#xa6;" horiz-adv-x="510" 
d="M282 325v350h-54v-350h54zM282 -175v350h-54v-350h54z" />
    <glyph glyph-name="degree" unicode="&#xb0;" horiz-adv-x="308" 
d="M253 595q0 20 -7.5 38.5t-21 32.5t-32.5 22t-43 8h-2q-45 0 -75 -30t-30 -75q0 -41 28.5 -71t75.5 -30q21 0 40 7.5t33.5 21.5t23.5 33.5t9 43.5zM206 595q0 -27 -17 -45.5t-43 -18.5t-43 18t-17 44q0 23 15 44t44 21q32 0 46.5 -20.5t14.5 -42.5z" />
    <glyph glyph-name="thorn" unicode="&#xfe;" horiz-adv-x="586" 
d="M155 244q0 -62 -0.5 -110t-4.5 -74q-3 -19 -7 -30.5t-17 -14.5q-6 -2 -13 -3t-13 -1q-7 0 -7 -7t14 -7q10 0 24 0.5l27.5 1t23 1t10.5 0.5t12 -0.5t26.5 -1t34.5 -1t37 -0.5q14 0 14 7t-7 7q-6 0 -17.5 1t-20.5 3q-20 3 -26 14.5t-8 30.5q-3 26 -3.5 74t-0.5 110v210
q0 13 7 16q7 2 16 4t20 2h22t32.5 -3.5t36.5 -12t36 -24.5q16 -16 26 -34t15 -34.5t6.5 -30.5t1.5 -22q0 -32 -13 -58.5t-34.5 -46t-50.5 -30.5t-61 -11q-14 0 -18.5 -2.5t-4.5 -7.5q0 -3 3 -4.5t6 -1.5q4 -1 10 -1h11q47 0 88.5 14t73 40t50 62.5t18.5 81.5
q0 34 -15.5 62.5t-30.5 41.5q-8 7 -21 15.5t-33.5 16t-50 12.5t-70.5 5q-26 0 -42.5 -0.5t-33.5 -2.5q0 13 0.5 33t1.5 47q0 37 37 43q9 2 19 2.5t15 0.5q3 0 5.5 3t2.5 5q0 6 -15 6q-16 0 -34 -0.5t-33 -0.5t-25.5 -0.5t-12.5 -0.5q-3 0 -13 0.5t-25 0.5q-14 0 -30.5 0.5
t-31.5 0.5q-14 0 -14 -7t7 -7q6 0 15.5 -0.5t14.5 -1.5q20 -3 27 -14t9 -33q1 -10 1.5 -21.5t0.5 -31.5v-50v-80v-150z" />
    <glyph glyph-name="threequarters" unicode="&#xbe;" horiz-adv-x="807" 
d="M674 160v270q0 10 -7 10q-6 0 -15 -11l-24.5 -29l-46.5 -54l-57 -65.5l-55.5 -63.5l-42.5 -48.5t-18 -20.5q-2 -2 -6 -6.5t-4 -9.5q0 -8 13 -8h209v-35t-1 -44q-1 -13 -6 -21t-21 -10q-7 -1 -15.5 -1.5t-12.5 -0.5q-7 0 -7 -7q0 -2 1 -4t6 -2q26 0 49 1t26 1q2 0 11 -0.5
t21 -0.5q13 0 27 -0.5t27 -0.5q9 0 9 7q0 6 -5 6t-13 0.5t-15 1.5q-15 2 -20 10t-7 21q-2 20 -1 44t1 35h64q9 0 12 8q2 8 4 17t2 11q0 6 -6 6q-2 0 -8.5 -3t-19.5 -3h-48zM620 160h-165q4 5 17 20l30.5 35l36.5 42.5l36 42l29 33.5t15 17h1v-190zM221 544q10 4 25 12.5
t29 22t24.5 31t10.5 38.5q0 10 -5 24t-19 27t-38.5 21.5t-62.5 8.5q-41 0 -66.5 -5.5t-40.5 -12.5q-7 -3 -8 -7t-1 -8q0 -10 2 -26.5t4 -29.5q1 -10 7 -10q4 0 4 12q0 26 25 44t58 18q25 0 41 -8t25.5 -19.5t13 -23.5t3.5 -19q0 -23 -11 -40.5t-26.5 -29.5t-31.5 -19t-26 -8
q-17 -3 -17 -11q0 -3 4 -4.5t15 -3.5q18 -2 37.5 -9t36 -19t27.5 -30t11 -42q0 -51 -30 -77.5t-73 -26.5q-27 0 -45.5 6t-29.5 16t-16.5 23t-6.5 27q-1 7 -5 7q-5 0 -6 -8q-2 -9 -2.5 -29t-0.5 -32q0 -13 1 -17t9 -9q10 -6 34.5 -9t49.5 -3q39 0 72.5 12t58.5 32t39 46.5
t14 56.5q0 26 -12.5 45.5t-30.5 33t-37.5 21t-32.5 9.5v2zM159 -14q7 -5 12 3l542 713q4 6 -1 10l-19 14q-5 4 -7.5 1.5t-5.5 -6.5l-539 -705q-7 -10 -2 -13z" />
    <glyph glyph-name="twosuperior" unicode="&#xb2;" horiz-adv-x="444" 
d="M316 305q12 0 22 3.5t15 13.5q4 7 8 19t7.5 24t5.5 22.5t2 14.5q0 9 -5 9t-9 -10q-8 -24 -23.5 -36t-52.5 -15q-4 0 -21 -1t-36.5 -1.5t-36.5 -1t-21 -0.5h-33q-3 0 -2.5 1.5t-0.5 2.5l76 62.5t71.5 71t53.5 78.5t21 86q0 23 -9.5 44.5t-28.5 38t-47.5 26.5t-65.5 10
q-35 0 -64 -7t-51 -18q-5 -2 -6 -4.5t-1 -9.5q0 -6 0.5 -17l1 -22t1.5 -19.5t1 -10.5q2 -11 6 -11q8 0 8 11q0 19 6.5 32t15.5 23q15 16 31.5 21.5t38.5 5.5q15 0 32 -5.5t31.5 -18.5t24 -34.5t9.5 -54.5q0 -45 -21 -85.5t-54 -78t-73.5 -71l-78.5 -64.5q-3 -3 -7.5 -7
t-4.5 -9q0 -8 11 -8h253z" />
    <glyph glyph-name="registered" unicode="&#xae;" horiz-adv-x="206" 
d="M103 592q40 0 66 25t26 62q0 38 -26 63t-66 25t-66 -25t-26 -63q0 -37 26 -62t66 -25zM104 607q-33 0 -54.5 20.5t-21.5 52.5t21.5 52t53.5 20t53.5 -20t21.5 -52t-21 -52.5t-53 -20.5zM69 672q0 -12 -0.5 -18t-0.5 -10q-1 -5 -2 -5.5t-8 -0.5q-4 0 -4 -3q0 -2 4 -2h5
q2 0 7.5 0.5t7.5 0.5q4 0 9 -0.5t7 -0.5h4q4 0 4 3q0 2 -3 2q-6 0 -10 2q-1 1 -1.5 4t-0.5 18v9h18l14 -19q11 -15 18 -17t17 -2q7 0 7 3q0 2 -3 2q-2 0 -5.5 2.5t-13.5 14.5l-17 21q11 9 14.5 15.5t3.5 14.5q0 18 -14.5 22.5t-27.5 4.5q-6 0 -10 -0.5t-11 -0.5
q-2 0 -6.5 0.5t-6.5 0.5h-5q-5 0 -5 -3q0 -2 3 -2q11 0 11 -7q0 -4 0.5 -10t0.5 -17v-22zM87 722q2 2 5 2h4q12 0 18.5 -6.5t6.5 -17.5q0 -13 -9 -18q-5 -3 -10 -3q-11 0 -15 3v40z" />
    <glyph glyph-name="minus" unicode="&#x2212;" horiz-adv-x="510" 
d="M468 294h-426v-51h426v51z" />
    <glyph glyph-name="eth" unicode="&#xf0;" horiz-adv-x="809" 
d="M155 338h-68q-10 0 -11 -7l-3 -17q-2 -9 6 -9h76v-61q0 -62 -0.5 -110t-4.5 -74q-3 -19 -6.5 -30.5t-16.5 -14.5q-6 -2 -13.5 -3t-13.5 -1q-7 0 -7 -7t14 -7q11 0 24.5 0.5t27.5 1.5q14 0 23.5 0.5t11.5 0.5q3 0 23.5 -1.5l49.5 -3.5t62 -3.5t62 -1.5q56 0 99.5 10
t76 24.5t55 31.5t36.5 32q18 19 35.5 43.5t30.5 54.5t21 65.5t8 75.5q0 76 -26.5 129.5t-59.5 86.5q-39 39 -86.5 59.5t-96 28.5t-93 8.5t-77.5 0.5q-20 0 -39.5 -0.5t-36.5 -0.5q-16 0 -28 -0.5t-16 -0.5q-2 0 -12 0.5t-25 0.5q-14 0 -31 0.5t-32 0.5q-14 0 -14 -7t7 -7
q6 0 15.5 -0.5t14.5 -1.5q22 -3 28 -14t8 -33q1 -10 1.5 -21.5t0.5 -31.5v-50v-80v-56zM235 304h169q4 0 7.5 1t4.5 6l3 19q3 9 -6 9h-178v246q0 13 11 17q4 3 20.5 4.5t31.5 1.5q40 0 78 -3t74 -13t70 -29t65 -50q13 -14 27.5 -33.5t26.5 -45.5t20 -59.5t8 -73.5
q0 -29 -4 -58t-12.5 -55.5t-21.5 -49t-30 -38.5q-39 -38 -92.5 -58t-114.5 -20q-39 0 -65 3t-42.5 8t-25.5 11t-13 12q-5 7 -7 26t-3 35q-1 11 -1 49v93v45z" />
    <glyph glyph-name="multiply" unicode="&#xd7;" horiz-adv-x="510" 
d="M56 430l162 -167l-163 -166l38 -37l162 166l163 -166l37 37l-163 166l163 167l-38 37l-163 -167l-162 167z" />
    <glyph glyph-name="threesuperior" unicode="&#xb3;" horiz-adv-x="413" 
d="M158 301q41 0 76.5 12.5t61.5 34t41 49.5t15 59q0 28 -13.5 48.5t-32 34.5t-39 22t-34.5 10v2q10 4 26 13.5t31 23t25.5 32t10.5 40.5q0 11 -5.5 25.5t-20 28t-40 22.5t-65.5 9q-43 0 -70 -6t-43 -13q-7 -3 -8 -7t-1 -8q0 -11 2 -28t4 -31q1 -11 7 -11q5 0 5 13
q0 28 26 46.5t61 18.5q26 0 43 -8.5t26.5 -20.5t13.5 -24.5t4 -20.5q0 -24 -11.5 -42.5t-28 -31t-33.5 -20t-27 -8.5q-18 -3 -18 -11q0 -3 4 -5t16 -4q19 -2 40 -9.5t38 -20t28.5 -31.5t11.5 -44q0 -54 -31.5 -81.5t-76.5 -27.5q-29 0 -48 6t-31 16.5t-17.5 24t-6.5 28.5
q-1 8 -6 8t-6 -9q-2 -10 -2.5 -30.5t-0.5 -33.5q0 -14 1.5 -18t9.5 -9q11 -6 36.5 -9.5t51.5 -3.5z" />
    <glyph glyph-name="copyright" unicode="&#xa9;" horiz-adv-x="906" 
d="M454 -17q81 0 152 30.5t124 83.5t83.5 124.5t30.5 152.5q0 82 -30.5 153.5t-83.5 124.5t-124 84t-152 31t-152.5 -31t-125 -84t-84 -124.5t-30.5 -153.5q0 -81 30.5 -152.5t84 -124.5t125 -83.5t152.5 -30.5zM454 27q-72 0 -133.5 27.5t-106 75t-70 111t-25.5 134.5
q0 72 25.5 135t70 110.5t106 75t133.5 27.5t133 -27.5t105.5 -75t69.5 -110.5t25 -135q0 -71 -25 -134.5t-69.5 -111t-105.5 -75t-133 -27.5zM477 150q12 0 43 1.5t64 10.5q12 3 15 8.5t7 22.5q5 23 7.5 44t2.5 27q0 4 -1.5 6.5t-7.5 2.5q-8 0 -11 -10q-3 -12 -7.5 -24.5
t-15.5 -22.5q-9 -9 -28 -17t-61 -8q-35 0 -68.5 14t-59 41t-41 67.5t-15.5 93.5q0 79 40 121t115 42q31 0 53 -4.5t36.5 -10t22.5 -11.5t11 -9q11 -12 13 -24t3 -23q0 -11 9 -11t10 8q1 7 2 22.5l2 31.5t1.5 28.5t0.5 14.5q0 5 -2 5t-5 -0.5t-6 -0.5q-1 0 -8 1.5l-17 3.5
l-19.5 4t-15.5 3q-26 5 -48.5 6.5t-33.5 1.5q-57 0 -99 -15.5t-72 -44.5q-9 -9 -21 -23.5t-22.5 -35t-17.5 -46.5t-7 -57q0 -53 18.5 -96.5t52 -74t79.5 -47t102 -16.5z" />
    <glyph glyph-name="Aacute" unicode="&#xc1;" horiz-adv-x="700" 
d="M95 107q-14 -38 -31.5 -63.5t-52.5 -30.5q-6 -1 -15 -1.5t-14 -0.5q-9 0 -9 -6q0 -8 19 -8q18 0 36 0.5t34 1t27.5 1t15.5 0.5t13.5 -0.5t20.5 -1l23 -1t21 -0.5q15 0 15 8q0 6 -10 6h-10q-13 0 -25.5 7t-12.5 22q0 28 14 67l60 177q3 8 10 8h215q6 0 9 -6l93 -246
q5 -12 2 -18.5t-8 -8.5q-7 -2 -7 -7t8 -5.5t22 -1.5q26 -1 51.5 -1.5t46.5 -0.5h37h22q8 0 14 1.5t6 6.5q0 6 -10 6q-8 0 -18.5 1t-21.5 5q-8 2 -17.5 7t-20 17t-23 33t-25.5 54l-37.5 95l-47 120.5l-49.5 128.5l-45.5 119.5l-35 92.5t-18.5 47q-9 23 -13 29.5t-9 6.5t-9 -7
t-13 -32zM235 328q-6 0 -3 7l88 270q7 22 15 0l95 -270q2 -7 -4 -7h-191zM478 933q-6 9 -10 9t-9.5 -2.5t-18.5 -10.5q-3 -2 -19.5 -11.5l-38 -23l-43.5 -27.5t-35 -23q-7 -4 -7 -8q0 -6 5 -6q3 0 15 5t30.5 11.5t39.5 12.5t42.5 11t39.5 7q13 2 20.5 1t9.5 -1q3 0 5.5 2.5
t-1.5 9.5l-14 25.5z" />
    <glyph glyph-name="Acircumflex" unicode="&#xc2;" horiz-adv-x="700" 
d="M95 107q-14 -38 -31.5 -63.5t-52.5 -30.5q-6 -1 -15 -1.5t-14 -0.5q-9 0 -9 -6q0 -8 19 -8q18 0 36 0.5t34 1t27.5 1t15.5 0.5t13.5 -0.5t20.5 -1l23 -1t21 -0.5q15 0 15 8q0 6 -10 6h-10q-13 0 -25.5 7t-12.5 22q0 28 14 67l60 177q3 8 10 8h215q6 0 9 -6l93 -246
q5 -12 2 -18.5t-8 -8.5q-7 -2 -7 -7t8 -5.5t22 -1.5q26 -1 51.5 -1.5t46.5 -0.5h37h22q8 0 14 1.5t6 6.5q0 6 -10 6q-8 0 -18.5 1t-21.5 5q-8 2 -17.5 7t-20 17t-23 33t-25.5 54l-37.5 95l-47 120.5l-49.5 128.5l-45.5 119.5l-35 92.5t-18.5 47q-9 23 -13 29.5t-9 6.5t-9 -7
t-13 -32zM235 328q-6 0 -3 7l88 270q7 22 15 0l95 -270q2 -7 -4 -7h-191zM477 845q2 2 3.5 4.5t1.5 4.5t-12 10l-20 15.5l-32 24l-31.5 23.5t-17.5 13q-6 5 -9.5 7.5t-6.5 2.5q-5 0 -16 -10q-4 -4 -20.5 -19l-35.5 -33l-35.5 -33t-20.5 -19q-2 -3 -4 -5.5t-2 -5.5q0 -8 7 -8
t18 10q9 7 20 16.5t22.5 18l22.5 16t20 12.5q10 5 16 5q2 0 10 -4l15 -11l24 -18t25 -21t20 -19q4 -5 8 -5q3 0 9 6z" />
    <glyph glyph-name="Adieresis" unicode="&#xc4;" horiz-adv-x="700" 
d="M95 107q-14 -38 -31.5 -63.5t-52.5 -30.5q-6 -1 -15 -1.5t-14 -0.5q-9 0 -9 -6q0 -8 19 -8q18 0 36 0.5t34 1t27.5 1t15.5 0.5t13.5 -0.5t20.5 -1l23 -1t21 -0.5q15 0 15 8q0 6 -10 6h-10q-13 0 -25.5 7t-12.5 22q0 28 14 67l60 177q3 8 10 8h215q6 0 9 -6l93 -246
q5 -12 2 -18.5t-8 -8.5q-7 -2 -7 -7t8 -5.5t22 -1.5q26 -1 51.5 -1.5t46.5 -0.5h37h22q8 0 14 1.5t6 6.5q0 6 -10 6q-8 0 -18.5 1t-21.5 5q-8 2 -17.5 7t-20 17t-23 33t-25.5 54l-37.5 95l-47 120.5l-49.5 128.5l-45.5 119.5l-35 92.5t-18.5 47q-9 23 -13 29.5t-9 6.5t-9 -7
t-13 -32zM235 328q-6 0 -3 7l88 270q7 22 15 0l95 -270q2 -7 -4 -7h-191zM450 830q20 0 32 13t12 33q0 19 -12.5 29.5t-30.5 10.5q-23 0 -33 -14.5t-10 -28.5t9.5 -28.5t32.5 -14.5zM249 830q20 0 32 13t12 33q0 19 -12.5 29.5t-30.5 10.5q-23 0 -33 -14.5t-10 -28.5
t9.5 -28.5t32.5 -14.5z" />
    <glyph glyph-name="Agrave" unicode="&#xc0;" horiz-adv-x="700" 
d="M95 107q-14 -38 -31.5 -63.5t-52.5 -30.5q-6 -1 -15 -1.5t-14 -0.5q-9 0 -9 -6q0 -8 19 -8q18 0 36 0.5t34 1t27.5 1t15.5 0.5t13.5 -0.5t20.5 -1l23 -1t21 -0.5q15 0 15 8q0 6 -10 6h-10q-13 0 -25.5 7t-12.5 22q0 28 14 67l60 177q3 8 10 8h215q6 0 9 -6l93 -246
q5 -12 2 -18.5t-8 -8.5q-7 -2 -7 -7t8 -5.5t22 -1.5q26 -1 51.5 -1.5t46.5 -0.5h37h22q8 0 14 1.5t6 6.5q0 6 -10 6q-8 0 -18.5 1t-21.5 5q-8 2 -17.5 7t-20 17t-23 33t-25.5 54l-37.5 95l-47 120.5l-49.5 128.5l-45.5 119.5l-35 92.5t-18.5 47q-9 23 -13 29.5t-9 6.5t-9 -7
t-13 -32zM235 328q-6 0 -3 7l88 270q7 22 15 0l95 -270q2 -7 -4 -7h-191zM401 830q9 0 9 5q0 3 -5.5 6t-13.5 8l-31.5 21.5t-30 22l-23.5 18.5t-13 11q-7 7 -9 11.5t-6 4.5q-3 0 -6.5 -1.5t-9.5 -3.5q-9 -4 -26.5 -9l-33.5 -10q-11 -3 -11 -8q0 -6 29 -17q4 -2 17.5 -6.5
t32.5 -11.5t40 -14l39.5 -13t32.5 -10t19 -4z" />
    <glyph glyph-name="Aring" unicode="&#xc5;" horiz-adv-x="700" 
d="M95 107q-14 -38 -31.5 -63.5t-52.5 -30.5q-6 -1 -15 -1.5t-14 -0.5q-9 0 -9 -6q0 -8 19 -8q18 0 36 0.5t34 1t27.5 1t15.5 0.5t13.5 -0.5t20.5 -1l23 -1t21 -0.5q15 0 15 8q0 6 -10 6h-10q-13 0 -25.5 7t-12.5 22q0 28 14 67l60 177q3 8 10 8h215q6 0 9 -6l93 -246
q5 -12 2 -18.5t-8 -8.5q-7 -2 -7 -7t8 -5.5t22 -1.5q26 -1 51.5 -1.5t46.5 -0.5h37h22q8 0 14 1.5t6 6.5q0 6 -10 6q-8 0 -18.5 1t-21.5 5q-8 2 -17.5 7t-20 17t-23 33t-25.5 54l-37.5 95l-47 120.5l-49.5 128.5l-45.5 119.5l-35 92.5t-18.5 47q-9 23 -13 29.5t-9 6.5t-9 -7
t-13 -32zM235 328q-6 0 -3 7l88 270q7 22 15 0l95 -270q2 -7 -4 -7h-191zM329 820q22 0 44 6t39.5 17.5t28 27.5t10.5 37q0 26 -22 41.5t-60 15.5q-26 0 -47.5 -7t-37.5 -19t-24.5 -27.5t-8.5 -32.5q0 -26 20 -42.5t58 -16.5zM345 844q-18 0 -34 12.5t-16 35.5q0 13 5.5 22
t14 15t18.5 9t19 3q27 0 39.5 -14t12.5 -32q0 -21 -17 -36t-42 -15z" />
    <glyph glyph-name="Atilde" unicode="&#xc3;" horiz-adv-x="700" 
d="M95 107q-14 -38 -31.5 -63.5t-52.5 -30.5q-6 -1 -15 -1.5t-14 -0.5q-9 0 -9 -6q0 -8 19 -8q18 0 36 0.5t34 1t27.5 1t15.5 0.5t13.5 -0.5t20.5 -1l23 -1t21 -0.5q15 0 15 8q0 6 -10 6h-10q-13 0 -25.5 7t-12.5 22q0 28 14 67l60 177q3 8 10 8h215q6 0 9 -6l93 -246
q5 -12 2 -18.5t-8 -8.5q-7 -2 -7 -7t8 -5.5t22 -1.5q26 -1 51.5 -1.5t46.5 -0.5h37h22q8 0 14 1.5t6 6.5q0 6 -10 6q-8 0 -18.5 1t-21.5 5q-8 2 -17.5 7t-20 17t-23 33t-25.5 54l-37.5 95l-47 120.5l-49.5 128.5l-45.5 119.5l-35 92.5t-18.5 47q-9 23 -13 29.5t-9 6.5t-9 -7
t-13 -32zM235 328q-6 0 -3 7l88 270q7 22 15 0l95 -270q2 -7 -4 -7h-191zM421 830q12 0 25 8.5t25 20t21 23t12 17.5q4 8 4 13q0 6 -7 6q-5 0 -12 -11q-1 -2 -5.5 -6.5t-12 -9.5t-18.5 -9t-25 -4q-12 0 -29.5 6t-28.5 11l-44.5 21t-39.5 10q-12 0 -25 -8t-25 -19.5
t-21.5 -23.5t-14.5 -20q-3 -5 -5 -8t-2 -7q0 -6 6 -6t14 9q3 3 7.5 9t12 12t18 10.5t23.5 4.5q23 0 38.5 -8.5t29.5 -14.5l32.5 -15.5t46.5 -10.5z" />
    <glyph glyph-name="Ccedilla" unicode="&#xc7;" horiz-adv-x="805" 
d="M154 395q0 77 17.5 142.5t72.5 118.5q13 13 32 26t46.5 23.5t64.5 17t87 6.5q66 0 120 -17t80 -40q20 -17 31 -45t11 -57q0 -21 8 -21t9 21q0 6 0.5 18t0.5 27t0.5 30.5t1.5 27.5q2 27 3.5 38.5t1.5 17.5q0 5 -2.5 7.5t-10.5 3.5q-24 2 -48.5 6l-53.5 9q-37 7 -76 9.5
t-69 2.5q-58 0 -104.5 -8.5t-83.5 -22.5t-66 -34t-51 -42q-33 -33 -55 -70.5t-34.5 -74t-17.5 -70t-5 -58.5q0 -36 5.5 -74.5t19 -76.5t37 -75t59.5 -70q51 -46 116 -72.5t153 -32.5l-59 -49q-13 -10 -13 -14q0 -5 15 -9q44 -13 58 -32t14 -41q0 -14 -6.5 -24.5t-17 -18
t-24 -12.5t-26.5 -6q-8 -1 -14 -2.5t-6 -8.5q0 -8 13 -8q14 0 36 4.5t42 13.5q13 5 25.5 13t22.5 18.5t16.5 23t6.5 27.5q0 31 -26.5 48.5t-73.5 22.5l9.5 9.5l14.5 14l17 15.5l15 13q5 -1 10 -1h12q24 0 49.5 1.5t49.5 4t45 7t36 10.5q14 6 17.5 10.5t8.5 18.5q4 13 8 33.5
t7 40.5t5 35.5t2 18.5q0 6 -1.5 10.5t-5.5 4.5q-7 0 -10 -15q-2 -14 -11.5 -40.5t-25.5 -43.5q-30 -31 -73.5 -40.5t-100.5 -9.5q-80 0 -146.5 30.5t-114 81t-74 116.5t-26.5 138z" />
    <glyph glyph-name="Eacute" unicode="&#xc9;" horiz-adv-x="610" 
d="M178 287q0 -72 -0.5 -128.5t-4.5 -88.5q-3 -22 -8.5 -37t-20.5 -18q-7 -2 -15 -3t-15 -1q-8 0 -8 -6q0 -8 16 -8q11 0 27 1t31 1q16 1 27 1h13q11 0 30 -0.5t48 -2.5q29 -1 70.5 -2t98.5 -1q15 0 24 0.5t15 3t9 7.5t6 15q2 8 4 23l4 30.5l3.5 28t1.5 15.5q0 5 -0.5 10
t-5.5 5q-6 0 -9 -15q-5 -31 -15 -47.5t-30 -24.5t-48 -9.5t-48 -1.5q-37 0 -59 3t-34.5 12t-17 25t-5.5 42v31v50v52v38v88q0 7 7 7q6 0 25.5 -0.5t42 -1t44 -1.5t31.5 -2q29 -3 39 -13.5t13 -21.5q3 -10 3.5 -17.5t0.5 -15.5q0 -9 7 -9q5 0 6 6.5t1 12.5q0 3 0.5 10.5t1 17
l1 19t1.5 17.5q2 25 5 38t3 18q0 8 -5 8q-4 0 -15 -13q-7 -8 -18 -10t-29 -4q-9 -1 -33 -1.5t-51 -0.5h-48h-27q-6 0 -6 10v276q0 10 6 10h23q20 0 43 -0.5l44 -1t27 -1.5q40 -5 53 -13.5t18 -20.5q4 -9 5 -20t1 -16q0 -13 8 -13q3 0 4.5 3.5t2.5 7.5t1.5 13.5t1.5 20
t1.5 19.5t0.5 13q2 21 5 31.5t3 15.5q0 9 -4 9t-7 -2t-7 -3q-14 -3 -43 -5q-9 0 -44.5 -0.5t-76.5 -0.5h-73h-35l-41 2q-17 1 -36 1h-36q-16 0 -16 -8q0 -6 8 -6q7 0 17.5 -0.5t16.5 -2.5q25 -5 33 -18t10 -39q1 -12 1.5 -25.5t0.5 -36.5v-59v-95v-176zM442 933q-6 9 -10 9
t-9.5 -2.5t-18.5 -10.5q-3 -2 -19.5 -11.5l-38 -23l-43.5 -27.5t-35 -23q-7 -4 -7 -8q0 -6 5 -6q3 0 15 5t30.5 11.5t39.5 12.5t42.5 11t39.5 7q13 2 20.5 1t9.5 -1q3 0 5.5 2.5t-1.5 9.5l-14 25.5z" />
    <glyph glyph-name="Ecircumflex" unicode="&#xca;" horiz-adv-x="610" 
d="M178 287q0 -72 -0.5 -128.5t-4.5 -88.5q-3 -22 -8.5 -37t-20.5 -18q-7 -2 -15 -3t-15 -1q-8 0 -8 -6q0 -8 16 -8q11 0 27 1t31 1q16 1 27 1h13q11 0 30 -0.5t48 -2.5q29 -1 70.5 -2t98.5 -1q15 0 24 0.5t15 3t9 7.5t6 15q2 8 4 23l4 30.5l3.5 28t1.5 15.5q0 5 -0.5 10
t-5.5 5q-6 0 -9 -15q-5 -31 -15 -47.5t-30 -24.5t-48 -9.5t-48 -1.5q-37 0 -59 3t-34.5 12t-17 25t-5.5 42v31v50v52v38v88q0 7 7 7q6 0 25.5 -0.5t42 -1t44 -1.5t31.5 -2q29 -3 39 -13.5t13 -21.5q3 -10 3.5 -17.5t0.5 -15.5q0 -9 7 -9q5 0 6 6.5t1 12.5q0 3 0.5 10.5t1 17
l1 19t1.5 17.5q2 25 5 38t3 18q0 8 -5 8q-4 0 -15 -13q-7 -8 -18 -10t-29 -4q-9 -1 -33 -1.5t-51 -0.5h-48h-27q-6 0 -6 10v276q0 10 6 10h23q20 0 43 -0.5l44 -1t27 -1.5q40 -5 53 -13.5t18 -20.5q4 -9 5 -20t1 -16q0 -13 8 -13q3 0 4.5 3.5t2.5 7.5t1.5 13.5t1.5 20
t1.5 19.5t0.5 13q2 21 5 31.5t3 15.5q0 9 -4 9t-7 -2t-7 -3q-14 -3 -43 -5q-9 0 -44.5 -0.5t-76.5 -0.5h-73h-35l-41 2q-17 1 -36 1h-36q-16 0 -16 -8q0 -6 8 -6q7 0 17.5 -0.5t16.5 -2.5q25 -5 33 -18t10 -39q1 -12 1.5 -25.5t0.5 -36.5v-59v-95v-176zM451 845q2 2 3.5 4.5
t1.5 4.5t-12 10l-20 15.5l-32 24l-31.5 23.5t-17.5 13q-6 5 -9.5 7.5t-6.5 2.5q-5 0 -16 -10q-4 -4 -20.5 -19l-35.5 -33l-35.5 -33t-20.5 -19q-2 -3 -4 -5.5t-2 -5.5q0 -8 7 -8t18 10q9 7 20 16.5t22.5 18l22.5 16t20 12.5q10 5 16 5q2 0 10 -4l15 -11l24 -18t25 -21
t20 -19q4 -5 8 -5q3 0 9 6z" />
    <glyph glyph-name="Edieresis" unicode="&#xcb;" horiz-adv-x="610" 
d="M178 287q0 -72 -0.5 -128.5t-4.5 -88.5q-3 -22 -8.5 -37t-20.5 -18q-7 -2 -15 -3t-15 -1q-8 0 -8 -6q0 -8 16 -8q11 0 27 1t31 1q16 1 27 1h13q11 0 30 -0.5t48 -2.5q29 -1 70.5 -2t98.5 -1q15 0 24 0.5t15 3t9 7.5t6 15q2 8 4 23l4 30.5l3.5 28t1.5 15.5q0 5 -0.5 10
t-5.5 5q-6 0 -9 -15q-5 -31 -15 -47.5t-30 -24.5t-48 -9.5t-48 -1.5q-37 0 -59 3t-34.5 12t-17 25t-5.5 42v31v50v52v38v88q0 7 7 7q6 0 25.5 -0.5t42 -1t44 -1.5t31.5 -2q29 -3 39 -13.5t13 -21.5q3 -10 3.5 -17.5t0.5 -15.5q0 -9 7 -9q5 0 6 6.5t1 12.5q0 3 0.5 10.5t1 17
l1 19t1.5 17.5q2 25 5 38t3 18q0 8 -5 8q-4 0 -15 -13q-7 -8 -18 -10t-29 -4q-9 -1 -33 -1.5t-51 -0.5h-48h-27q-6 0 -6 10v276q0 10 6 10h23q20 0 43 -0.5l44 -1t27 -1.5q40 -5 53 -13.5t18 -20.5q4 -9 5 -20t1 -16q0 -13 8 -13q3 0 4.5 3.5t2.5 7.5t1.5 13.5t1.5 20
t1.5 19.5t0.5 13q2 21 5 31.5t3 15.5q0 9 -4 9t-7 -2t-7 -3q-14 -3 -43 -5q-9 0 -44.5 -0.5t-76.5 -0.5h-73h-35l-41 2q-17 1 -36 1h-36q-16 0 -16 -8q0 -6 8 -6q7 0 17.5 -0.5t16.5 -2.5q25 -5 33 -18t10 -39q1 -12 1.5 -25.5t0.5 -36.5v-59v-95v-176zM424 830q20 0 32 13
t12 33q0 19 -12.5 29.5t-30.5 10.5q-23 0 -33 -14.5t-10 -28.5t9.5 -28.5t32.5 -14.5zM223 830q20 0 32 13t12 33q0 19 -12.5 29.5t-30.5 10.5q-23 0 -33 -14.5t-10 -28.5t9.5 -28.5t32.5 -14.5z" />
    <glyph glyph-name="Egrave" unicode="&#xc8;" horiz-adv-x="610" 
d="M178 287q0 -72 -0.5 -128.5t-4.5 -88.5q-3 -22 -8.5 -37t-20.5 -18q-7 -2 -15 -3t-15 -1q-8 0 -8 -6q0 -8 16 -8q11 0 27 1t31 1q16 1 27 1h13q11 0 30 -0.5t48 -2.5q29 -1 70.5 -2t98.5 -1q15 0 24 0.5t15 3t9 7.5t6 15q2 8 4 23l4 30.5l3.5 28t1.5 15.5q0 5 -0.5 10
t-5.5 5q-6 0 -9 -15q-5 -31 -15 -47.5t-30 -24.5t-48 -9.5t-48 -1.5q-37 0 -59 3t-34.5 12t-17 25t-5.5 42v31v50v52v38v88q0 7 7 7q6 0 25.5 -0.5t42 -1t44 -1.5t31.5 -2q29 -3 39 -13.5t13 -21.5q3 -10 3.5 -17.5t0.5 -15.5q0 -9 7 -9q5 0 6 6.5t1 12.5q0 3 0.5 10.5t1 17
l1 19t1.5 17.5q2 25 5 38t3 18q0 8 -5 8q-4 0 -15 -13q-7 -8 -18 -10t-29 -4q-9 -1 -33 -1.5t-51 -0.5h-48h-27q-6 0 -6 10v276q0 10 6 10h23q20 0 43 -0.5l44 -1t27 -1.5q40 -5 53 -13.5t18 -20.5q4 -9 5 -20t1 -16q0 -13 8 -13q3 0 4.5 3.5t2.5 7.5t1.5 13.5t1.5 20
t1.5 19.5t0.5 13q2 21 5 31.5t3 15.5q0 9 -4 9t-7 -2t-7 -3q-14 -3 -43 -5q-9 0 -44.5 -0.5t-76.5 -0.5h-73h-35l-41 2q-17 1 -36 1h-36q-16 0 -16 -8q0 -6 8 -6q7 0 17.5 -0.5t16.5 -2.5q25 -5 33 -18t10 -39q1 -12 1.5 -25.5t0.5 -36.5v-59v-95v-176zM375 830q9 0 9 5
q0 3 -5.5 6t-13.5 8l-31.5 21.5t-30 22l-23.5 18.5t-13 11q-7 7 -9 11.5t-6 4.5q-3 0 -6.5 -1.5t-9.5 -3.5q-9 -4 -26.5 -9l-33.5 -10q-11 -3 -11 -8q0 -6 29 -17q4 -2 17.5 -6.5t32.5 -11.5t40 -14l39.5 -13t32.5 -10t19 -4z" />
    <glyph glyph-name="Iacute" unicode="&#xcd;" horiz-adv-x="440" 
d="M262 463v95v59q0 23 0.5 36.5t1.5 25.5q2 26 9.5 39.5t27.5 17.5q9 2 14.5 2.5t10.5 0.5q8 0 8 6q0 8 -16 8q-11 0 -27 -0.5l-31 -1t-26.5 -1t-13.5 -0.5t-13.5 0.5t-26.5 1t-32 1t-29 0.5q-16 0 -16 -8q0 -6 8 -6q5 0 14 -1t17 -3q31 -7 34 -56q1 -12 1.5 -25.5
t0.5 -36.5v-59v-95v-176q0 -72 -0.5 -128.5t-4.5 -88.5q-3 -22 -8.5 -37t-20.5 -18q-7 -2 -15 -3t-15 -1q-8 0 -8 -6q0 -8 16 -8q11 0 27 0.5l31 1t26.5 1t13.5 0.5t13.5 -0.5t29 -1t38.5 -1t42 -0.5q16 0 16 8q0 6 -8 6q-7 0 -20.5 1t-24.5 3q-23 3 -30 18t-9 37
q-4 32 -4.5 88.5t-0.5 128.5v176zM348 933q-6 9 -10 9t-9.5 -2.5t-18.5 -10.5q-3 -2 -19.5 -11.5l-38 -23l-43.5 -27.5t-35 -23q-7 -4 -7 -8q0 -6 5 -6q3 0 15 5t30.5 11.5t39.5 12.5t42.5 11t39.5 7q13 2 20.5 1t9.5 -1q3 0 5.5 2.5t-1.5 9.5l-14 25.5z" />
    <glyph glyph-name="Icircumflex" unicode="&#xce;" horiz-adv-x="440" 
d="M262 463v95v59q0 23 0.5 36.5t1.5 25.5q2 26 9.5 39.5t27.5 17.5q9 2 14.5 2.5t10.5 0.5q8 0 8 6q0 8 -16 8q-11 0 -27 -0.5l-31 -1t-26.5 -1t-13.5 -0.5t-13.5 0.5t-26.5 1t-32 1t-29 0.5q-16 0 -16 -8q0 -6 8 -6q5 0 14 -1t17 -3q31 -7 34 -56q1 -12 1.5 -25.5
t0.5 -36.5v-59v-95v-176q0 -72 -0.5 -128.5t-4.5 -88.5q-3 -22 -8.5 -37t-20.5 -18q-7 -2 -15 -3t-15 -1q-8 0 -8 -6q0 -8 16 -8q11 0 27 0.5l31 1t26.5 1t13.5 0.5t13.5 -0.5t29 -1t38.5 -1t42 -0.5q16 0 16 8q0 6 -8 6q-7 0 -20.5 1t-24.5 3q-23 3 -30 18t-9 37
q-4 32 -4.5 88.5t-0.5 128.5v176zM347 845q2 2 3.5 4.5t1.5 4.5t-12 10l-20 15.5l-32 24l-31.5 23.5t-17.5 13q-6 5 -9.5 7.5t-6.5 2.5q-5 0 -16 -10q-4 -4 -20.5 -19l-35.5 -33l-35.5 -33t-20.5 -19q-2 -3 -4 -5.5t-2 -5.5q0 -8 7 -8t18 10q9 7 20 16.5t22.5 18l22.5 16
t20 12.5q10 5 16 5q2 0 10 -4l15 -11l24 -18t25 -21t20 -19q4 -5 8 -5q3 0 9 6z" />
    <glyph glyph-name="Idieresis" unicode="&#xcf;" horiz-adv-x="440" 
d="M262 463v95v59q0 23 0.5 36.5t1.5 25.5q2 26 9.5 39.5t27.5 17.5q9 2 14.5 2.5t10.5 0.5q8 0 8 6q0 8 -16 8q-11 0 -27 -0.5l-31 -1t-26.5 -1t-13.5 -0.5t-13.5 0.5t-26.5 1t-32 1t-29 0.5q-16 0 -16 -8q0 -6 8 -6q5 0 14 -1t17 -3q31 -7 34 -56q1 -12 1.5 -25.5
t0.5 -36.5v-59v-95v-176q0 -72 -0.5 -128.5t-4.5 -88.5q-3 -22 -8.5 -37t-20.5 -18q-7 -2 -15 -3t-15 -1q-8 0 -8 -6q0 -8 16 -8q11 0 27 0.5l31 1t26.5 1t13.5 0.5t13.5 -0.5t29 -1t38.5 -1t42 -0.5q16 0 16 8q0 6 -8 6q-7 0 -20.5 1t-24.5 3q-23 3 -30 18t-9 37
q-4 32 -4.5 88.5t-0.5 128.5v176zM320 830q20 0 32 13t12 33q0 19 -12.5 29.5t-30.5 10.5q-23 0 -33 -14.5t-10 -28.5t9.5 -28.5t32.5 -14.5zM119 830q20 0 32 13t12 33q0 19 -12.5 29.5t-30.5 10.5q-23 0 -33 -14.5t-10 -28.5t9.5 -28.5t32.5 -14.5z" />
    <glyph glyph-name="Igrave" unicode="&#xcc;" horiz-adv-x="440" 
d="M262 463v95v59q0 23 0.5 36.5t1.5 25.5q2 26 9.5 39.5t27.5 17.5q9 2 14.5 2.5t10.5 0.5q8 0 8 6q0 8 -16 8q-11 0 -27 -0.5l-31 -1t-26.5 -1t-13.5 -0.5t-13.5 0.5t-26.5 1t-32 1t-29 0.5q-16 0 -16 -8q0 -6 8 -6q5 0 14 -1t17 -3q31 -7 34 -56q1 -12 1.5 -25.5
t0.5 -36.5v-59v-95v-176q0 -72 -0.5 -128.5t-4.5 -88.5q-3 -22 -8.5 -37t-20.5 -18q-7 -2 -15 -3t-15 -1q-8 0 -8 -6q0 -8 16 -8q11 0 27 0.5l31 1t26.5 1t13.5 0.5t13.5 -0.5t29 -1t38.5 -1t42 -0.5q16 0 16 8q0 6 -8 6q-7 0 -20.5 1t-24.5 3q-23 3 -30 18t-9 37
q-4 32 -4.5 88.5t-0.5 128.5v176zM271 830q9 0 9 5q0 3 -5.5 6t-13.5 8l-31.5 21.5t-30 22l-23.5 18.5t-13 11q-7 7 -9 11.5t-6 4.5q-3 0 -6.5 -1.5t-9.5 -3.5q-9 -4 -26.5 -9l-33.5 -10q-11 -3 -11 -8q0 -6 29 -17q4 -2 17.5 -6.5t32.5 -11.5t40 -14l39.5 -13t33 -10
t18.5 -4z" />
    <glyph glyph-name="Ntilde" unicode="&#xd1;" horiz-adv-x="947" 
d="M192 612l38 -42.5l61 -67.5l76.5 -84.5l85.5 -92.5l84 -89l82 -85.5l64.5 -66l30.5 -30.5l32.5 -32.5t20.5 -19.5t12.5 -9.5t7.5 -2.5t4.5 2t2.5 9t1.5 21t0.5 39l2 586q0 45 6 64.5t31 24.5q9 2 14.5 2.5t9.5 0.5q11 0 11 7t-18 7q-31 0 -54 -1.5t-31 -1.5
q-4 0 -14.5 0.5t-25 1t-31 1t-33.5 0.5q-20 0 -20 -7t8 -7q6 0 20.5 -1t28.5 -4q23 -6 30.5 -26t8.5 -69l11 -508q-12 12 -37 39.5l-58 63.5l-70.5 77l-74.5 81l-112.5 121l-98.5 106l-72.5 78.5t-34.5 37.5q-8 8 -18.5 20t-16.5 12t-8.5 -10.5t-2.5 -39.5l-1 -573
q0 -68 -5.5 -95t-24.5 -32q-11 -4 -23 -5t-18 -1q-8 0 -8 -6q0 -8 16 -8q34 0 61.5 1.5t34.5 1.5t35 -1.5t71 -1.5q18 0 18 8q0 6 -8 6q-7 0 -21.5 1t-28.5 5q-10 3 -17 10t-11.5 20.5t-7 34t-3.5 51.5zM554 830q12 0 25 8.5t25 20t21 23t12 17.5q4 8 4 13q0 6 -7 6
q-5 0 -12 -11q-1 -2 -5.5 -6.5t-12 -9.5t-18.5 -9t-25 -4q-12 0 -29.5 6t-28.5 11l-44.5 21t-39.5 10q-12 0 -25 -8t-25 -19.5t-21.5 -23.5t-14.5 -20q-3 -5 -5 -8t-2 -7q0 -6 6 -6t14 9q3 3 7.5 9t12 12t18 10.5t23.5 4.5q23 0 38.5 -8.5t29.5 -14.5l32.5 -15.5t46.5 -10.5
z" />
    <glyph glyph-name="Oacute" unicode="&#xd3;" horiz-adv-x="915" 
d="M64 376q0 -68 22 -137.5t69 -126.5t120.5 -93t176.5 -36q90 0 164 32.5t126 88t80.5 130t28.5 158.5q0 87 -30 156.5t-82.5 118t-124.5 74.5t-156 26q-69 0 -125 -17.5t-100 -47.5t-75.5 -69.5t-52.5 -83t-31 -88.5t-10 -85zM159 404q0 82 22 143.5t61 103t92.5 62
t116.5 20.5q59 0 114 -24t97 -70.5t67.5 -115.5t25.5 -159q0 -109 -30.5 -176.5t-74 -104.5t-90.5 -49.5t-81 -12.5q-68 0 -126 27t-101.5 77t-68 121t-24.5 158zM585 933q-6 9 -10 9t-9.5 -2.5t-18.5 -10.5q-3 -2 -19.5 -11.5l-38 -23l-43.5 -27.5t-35 -23q-7 -4 -7 -8
q0 -6 5 -6q3 0 15 5t30.5 11.5t39.5 12.5t42.5 11t39.5 7q13 2 20.5 1t9.5 -1q3 0 5.5 2.5t-1.5 9.5l-14 25.5z" />
    <glyph glyph-name="Ocircumflex" unicode="&#xd4;" horiz-adv-x="915" 
d="M64 376q0 -68 22 -137.5t69 -126.5t120.5 -93t176.5 -36q90 0 164 32.5t126 88t80.5 130t28.5 158.5q0 87 -30 156.5t-82.5 118t-124.5 74.5t-156 26q-69 0 -125 -17.5t-100 -47.5t-75.5 -69.5t-52.5 -83t-31 -88.5t-10 -85zM159 404q0 82 22 143.5t61 103t92.5 62
t116.5 20.5q59 0 114 -24t97 -70.5t67.5 -115.5t25.5 -159q0 -109 -30.5 -176.5t-74 -104.5t-90.5 -49.5t-81 -12.5q-68 0 -126 27t-101.5 77t-68 121t-24.5 158zM584 845q2 2 3.5 4.5t1.5 4.5t-12 10l-20 15.5l-32 24l-31.5 23.5t-17.5 13q-6 5 -9.5 7.5t-6.5 2.5
q-5 0 -16 -10q-4 -4 -20.5 -19l-35.5 -33l-35.5 -33t-20.5 -19q-2 -3 -4 -5.5t-2 -5.5q0 -8 7 -8t18 10q9 7 20 16.5t22.5 18l22.5 16t20 12.5q10 5 16 5q2 0 10 -4l15 -11l24 -18t25 -21t20 -19q4 -5 8 -5q3 0 9 6z" />
    <glyph glyph-name="Odieresis" unicode="&#xd6;" horiz-adv-x="915" 
d="M64 376q0 -68 22 -137.5t69 -126.5t120.5 -93t176.5 -36q90 0 164 32.5t126 88t80.5 130t28.5 158.5q0 87 -30 156.5t-82.5 118t-124.5 74.5t-156 26q-69 0 -125 -17.5t-100 -47.5t-75.5 -69.5t-52.5 -83t-31 -88.5t-10 -85zM159 404q0 82 22 143.5t61 103t92.5 62
t116.5 20.5q59 0 114 -24t97 -70.5t67.5 -115.5t25.5 -159q0 -109 -30.5 -176.5t-74 -104.5t-90.5 -49.5t-81 -12.5q-68 0 -126 27t-101.5 77t-68 121t-24.5 158zM557 830q20 0 32 13t12 33q0 19 -12.5 29.5t-30.5 10.5q-23 0 -33 -14.5t-10 -28.5t9.5 -28.5t32.5 -14.5z
M356 830q20 0 32 13t12 33q0 19 -12.5 29.5t-30.5 10.5q-23 0 -33 -14.5t-10 -28.5t9.5 -28.5t32.5 -14.5z" />
    <glyph glyph-name="Ograve" unicode="&#xd2;" horiz-adv-x="915" 
d="M64 376q0 -68 22 -137.5t69 -126.5t120.5 -93t176.5 -36q90 0 164 32.5t126 88t80.5 130t28.5 158.5q0 87 -30 156.5t-82.5 118t-124.5 74.5t-156 26q-69 0 -125 -17.5t-100 -47.5t-75.5 -69.5t-52.5 -83t-31 -88.5t-10 -85zM159 404q0 82 22 143.5t61 103t92.5 62
t116.5 20.5q59 0 114 -24t97 -70.5t67.5 -115.5t25.5 -159q0 -109 -30.5 -176.5t-74 -104.5t-90.5 -49.5t-81 -12.5q-68 0 -126 27t-101.5 77t-68 121t-24.5 158zM508 830q9 0 9 5q0 3 -5.5 6t-13.5 8l-31.5 21.5t-30 22l-23.5 18.5t-13 11q-7 7 -9 11.5t-6 4.5
q-3 0 -6.5 -1.5t-9.5 -3.5q-9 -4 -26.5 -9l-33.5 -10q-11 -3 -11 -8q0 -6 29 -17q4 -2 17.5 -6.5t32.5 -11.5t40 -14l39.5 -13t32.5 -10t19 -4z" />
    <glyph glyph-name="Otilde" unicode="&#xd5;" horiz-adv-x="915" 
d="M64 376q0 -68 22 -137.5t69 -126.5t120.5 -93t176.5 -36q90 0 164 32.5t126 88t80.5 130t28.5 158.5q0 87 -30 156.5t-82.5 118t-124.5 74.5t-156 26q-69 0 -125 -17.5t-100 -47.5t-75.5 -69.5t-52.5 -83t-31 -88.5t-10 -85zM159 404q0 82 22 143.5t61 103t92.5 62
t116.5 20.5q59 0 114 -24t97 -70.5t67.5 -115.5t25.5 -159q0 -109 -30.5 -176.5t-74 -104.5t-90.5 -49.5t-81 -12.5q-68 0 -126 27t-101.5 77t-68 121t-24.5 158zM528 830q12 0 25 8.5t25 20t21 23t12 17.5q4 8 4 13q0 6 -7 6q-5 0 -12 -11q-1 -2 -5.5 -6.5t-12 -9.5
t-18.5 -9t-25 -4q-12 0 -29.5 6t-28.5 11l-44.5 21t-39.5 10q-12 0 -25 -8t-25 -19.5t-21.5 -23.5t-14.5 -20q-3 -5 -5 -8t-2 -7q0 -6 6 -6t14 9q3 3 7.5 9t12 12t18 10.5t23.5 4.5q23 0 38.5 -8.5t29.5 -14.5l32.5 -15.5t46.5 -10.5z" />
    <glyph glyph-name="Scaron" unicode="&#x160;" horiz-adv-x="570" 
d="M248 -17q41 0 80 9.5t71 32.5q26 18 42.5 40.5t26 45.5t13 44t3.5 36q0 30 -6 57.5t-22.5 55t-45 57.5t-72.5 65l-28 22q-36 28 -59.5 50t-37.5 41t-19.5 37.5t-5.5 39.5q0 55 35.5 85.5t87.5 30.5q34 0 57 -6.5t37.5 -15.5t21.5 -18t9 -13q5 -8 8.5 -24.5t4.5 -25.5
q1 -6 2 -9.5t6 -3.5q7 0 7 23q0 51 2 76.5t2 29.5q0 7 -10 7q-6 0 -13.5 1t-21.5 4q-19 5 -41.5 7.5t-51.5 2.5q-48 0 -86 -13t-65 -37t-41.5 -57t-14.5 -73q0 -26 5.5 -50.5t20 -51t39.5 -54.5t65 -61l45 -37q32 -27 54 -48.5t35.5 -42t19.5 -42t6 -47.5q0 -24 -9 -48
t-26.5 -42.5t-44.5 -30.5t-63 -12q-25 0 -49 5.5t-44.5 17.5t-34.5 31.5t-20 47.5q-2 11 -2.5 20.5t-0.5 16.5q0 11 -7 11t-8 -16q-1 -12 -3 -40t-2 -66q0 -20 2 -26.5t13 -11.5q31 -15 65 -21t69 -6zM178 920q-2 -2 -3.5 -4.5t-1.5 -4.5t12 -10l20 -15.5l32 -24l31.5 -23.5
t17.5 -13q11 -10 15 -10q6 0 17 10q4 4 20.5 19l35.5 33l35.5 33t20.5 19q2 3 4 5.5t2 5.5q0 8 -7 8t-18 -10l-20 -17t-22.5 -17.5l-22.5 -16.5t-20 -12q-10 -5 -16 -5q-2 0 -10 4q-5 2 -16 10t-23.5 18.5l-25 21.5t-19.5 19q-4 5 -8 5q-3 0 -9 -6z" />
    <glyph glyph-name="Uacute" unicode="&#xda;" horiz-adv-x="830" 
d="M120 317q0 -55 6.5 -96t18.5 -72.5t28 -54t34 -40.5q27 -25 57.5 -39.5t59.5 -21.5t52.5 -8.5t36.5 -1.5q22 0 47 2.5t51 10.5t53.5 22.5t54.5 38.5q30 27 48 61.5t28 74t13 81t3 82.5v107v95v59q0 23 0.5 36.5t1.5 25.5q2 26 9.5 39t27.5 18q9 2 14.5 2.5t10.5 0.5
q8 0 8 6q0 8 -16 8q-11 0 -24.5 -0.5l-26 -1t-21.5 -1t-12 -0.5q-2 0 -12.5 0.5t-25.5 1t-33 1t-35 0.5q-16 0 -16 -8q0 -6 8 -6q7 0 17.5 -0.5t16.5 -2.5q25 -5 33 -18t10 -39q1 -12 1.5 -25.5t0.5 -36.5v-59v-95v-125q0 -78 -11.5 -140t-46.5 -105q-27 -32 -69 -52
t-88 -20q-43 0 -78.5 10t-72.5 45q-16 15 -30 35.5t-24 49.5t-15.5 68.5t-5.5 93.5v140v95v59q0 23 0.5 36.5t1.5 25.5q2 26 9.5 40t27.5 17q9 2 14.5 2.5t10.5 0.5q8 0 8 6q0 8 -16 8q-11 0 -26.5 -0.5l-30.5 -1t-27 -1t-15 -0.5t-15.5 0.5t-29 1t-35 1t-35.5 0.5
q-16 0 -16 -8q0 -6 8 -6q7 0 17.5 -0.5t16.5 -2.5q25 -5 33 -18t10 -39q1 -12 1.5 -25.5t0.5 -36.5v-59v-95v-146zM562 933q-6 9 -10 9t-9.5 -2.5t-18.5 -10.5q-3 -2 -19.5 -11.5l-38 -23l-43.5 -27.5t-35 -23q-7 -4 -7 -8q0 -6 5 -6q3 0 15 5t30.5 11.5t39.5 12.5t42.5 11
t39.5 7q13 2 20.5 1t9.5 -1q3 0 5.5 2.5t-1.5 9.5l-14 25.5z" />
    <glyph glyph-name="Ucircumflex" unicode="&#xdb;" horiz-adv-x="830" 
d="M120 317q0 -55 6.5 -96t18.5 -72.5t28 -54t34 -40.5q27 -25 57.5 -39.5t59.5 -21.5t52.5 -8.5t36.5 -1.5q22 0 47 2.5t51 10.5t53.5 22.5t54.5 38.5q30 27 48 61.5t28 74t13 81t3 82.5v107v95v59q0 23 0.5 36.5t1.5 25.5q2 26 9.5 39t27.5 18q9 2 14.5 2.5t10.5 0.5
q8 0 8 6q0 8 -16 8q-11 0 -24.5 -0.5l-26 -1t-21.5 -1t-12 -0.5q-2 0 -12.5 0.5t-25.5 1t-33 1t-35 0.5q-16 0 -16 -8q0 -6 8 -6q7 0 17.5 -0.5t16.5 -2.5q25 -5 33 -18t10 -39q1 -12 1.5 -25.5t0.5 -36.5v-59v-95v-125q0 -78 -11.5 -140t-46.5 -105q-27 -32 -69 -52
t-88 -20q-43 0 -78.5 10t-72.5 45q-16 15 -30 35.5t-24 49.5t-15.5 68.5t-5.5 93.5v140v95v59q0 23 0.5 36.5t1.5 25.5q2 26 9.5 40t27.5 17q9 2 14.5 2.5t10.5 0.5q8 0 8 6q0 8 -16 8q-11 0 -26.5 -0.5l-30.5 -1t-27 -1t-15 -0.5t-15.5 0.5t-29 1t-35 1t-35.5 0.5
q-16 0 -16 -8q0 -6 8 -6q7 0 17.5 -0.5t16.5 -2.5q25 -5 33 -18t10 -39q1 -12 1.5 -25.5t0.5 -36.5v-59v-95v-146zM556 845q2 2 3.5 4.5t1.5 4.5t-12 10l-20 15.5l-32 24l-31.5 23.5t-17.5 13q-6 5 -9.5 7.5t-6.5 2.5q-5 0 -16 -10q-4 -4 -20.5 -19l-35.5 -33l-35.5 -33
t-20.5 -19q-2 -3 -4 -5.5t-2 -5.5q0 -8 7 -8t18 10q9 7 20 16.5t22.5 18l22.5 16t20 12.5q10 5 16 5q2 0 10 -4l15 -11l24 -18t25 -21t20 -19q4 -5 8 -5q3 0 9 6z" />
    <glyph glyph-name="Udieresis" unicode="&#xdc;" horiz-adv-x="830" 
d="M120 317q0 -55 6.5 -96t18.5 -72.5t28 -54t34 -40.5q27 -25 57.5 -39.5t59.5 -21.5t52.5 -8.5t36.5 -1.5q22 0 47 2.5t51 10.5t53.5 22.5t54.5 38.5q30 27 48 61.5t28 74t13 81t3 82.5v107v95v59q0 23 0.5 36.5t1.5 25.5q2 26 9.5 39t27.5 18q9 2 14.5 2.5t10.5 0.5
q8 0 8 6q0 8 -16 8q-11 0 -24.5 -0.5l-26 -1t-21.5 -1t-12 -0.5q-2 0 -12.5 0.5t-25.5 1t-33 1t-35 0.5q-16 0 -16 -8q0 -6 8 -6q7 0 17.5 -0.5t16.5 -2.5q25 -5 33 -18t10 -39q1 -12 1.5 -25.5t0.5 -36.5v-59v-95v-125q0 -78 -11.5 -140t-46.5 -105q-27 -32 -69 -52
t-88 -20q-43 0 -78.5 10t-72.5 45q-16 15 -30 35.5t-24 49.5t-15.5 68.5t-5.5 93.5v140v95v59q0 23 0.5 36.5t1.5 25.5q2 26 9.5 40t27.5 17q9 2 14.5 2.5t10.5 0.5q8 0 8 6q0 8 -16 8q-11 0 -26.5 -0.5l-30.5 -1t-27 -1t-15 -0.5t-15.5 0.5t-29 1t-35 1t-35.5 0.5
q-16 0 -16 -8q0 -6 8 -6q7 0 17.5 -0.5t16.5 -2.5q25 -5 33 -18t10 -39q1 -12 1.5 -25.5t0.5 -36.5v-59v-95v-146zM534 830q20 0 32 13t12 33q0 19 -12.5 29.5t-30.5 10.5q-23 0 -33 -14.5t-10 -28.5t9.5 -28.5t32.5 -14.5zM333 830q20 0 32 13t12 33q0 19 -12.5 29.5
t-30.5 10.5q-23 0 -33 -14.5t-10 -28.5t9.5 -28.5t32.5 -14.5z" />
    <glyph glyph-name="Ugrave" unicode="&#xd9;" horiz-adv-x="830" 
d="M120 317q0 -55 6.5 -96t18.5 -72.5t28 -54t34 -40.5q27 -25 57.5 -39.5t59.5 -21.5t52.5 -8.5t36.5 -1.5q22 0 47 2.5t51 10.5t53.5 22.5t54.5 38.5q30 27 48 61.5t28 74t13 81t3 82.5v107v95v59q0 23 0.5 36.5t1.5 25.5q2 26 9.5 39t27.5 18q9 2 14.5 2.5t10.5 0.5
q8 0 8 6q0 8 -16 8q-11 0 -24.5 -0.5l-26 -1t-21.5 -1t-12 -0.5q-2 0 -12.5 0.5t-25.5 1t-33 1t-35 0.5q-16 0 -16 -8q0 -6 8 -6q7 0 17.5 -0.5t16.5 -2.5q25 -5 33 -18t10 -39q1 -12 1.5 -25.5t0.5 -36.5v-59v-95v-125q0 -78 -11.5 -140t-46.5 -105q-27 -32 -69 -52
t-88 -20q-43 0 -78.5 10t-72.5 45q-16 15 -30 35.5t-24 49.5t-15.5 68.5t-5.5 93.5v140v95v59q0 23 0.5 36.5t1.5 25.5q2 26 9.5 40t27.5 17q9 2 14.5 2.5t10.5 0.5q8 0 8 6q0 8 -16 8q-11 0 -26.5 -0.5l-30.5 -1t-27 -1t-15 -0.5t-15.5 0.5t-29 1t-35 1t-35.5 0.5
q-16 0 -16 -8q0 -6 8 -6q7 0 17.5 -0.5t16.5 -2.5q25 -5 33 -18t10 -39q1 -12 1.5 -25.5t0.5 -36.5v-59v-95v-146zM470 830q9 0 9 5q0 3 -5.5 6t-13.5 8l-31.5 21.5t-30 22l-23.5 18.5t-13 11q-7 7 -9 11.5t-6 4.5q-3 0 -6.5 -1.5t-9.5 -3.5q-9 -4 -26.5 -9l-33.5 -10
q-11 -3 -11 -8q0 -6 29 -17q4 -2 17.5 -6.5t32.5 -11.5t40 -14l39.5 -13t33 -10t18.5 -4z" />
    <glyph glyph-name="Yacute" unicode="&#xdd;" horiz-adv-x="654" 
d="M289 170q0 -12 -0.5 -40t-2.5 -60q-2 -22 -9 -37t-22 -18q-7 -2 -15 -3t-15 -1q-8 0 -8 -6q0 -8 16 -8q11 0 27 0.5l31 1t26.5 1t13.5 0.5t13.5 -0.5t29 -1t38.5 -1t42 -0.5q16 0 16 8q0 6 -8 6q-7 0 -20.5 1t-24.5 3q-23 3 -31 18t-10 37q-2 32 -2.5 60t-0.5 40v86
q0 25 2 49t13 51q4 11 18 36l32.5 57l39.5 67.5l41 67l36 56t24 34.5q17 20 27.5 31t25.5 20q12 8 25 11t21 3q13 0 13 8q0 6 -13 6q-7 0 -22.5 -0.5l-31 -1t-28.5 -1t-15 -0.5q-6 0 -26 1.5t-40 1.5q-16 0 -16 -6q0 -5 15 -10q9 -2 12.5 -9.5t3.5 -18.5q0 -10 -3.5 -22.5
t-13.5 -28.5l-18 -30l-30 -51.5l-35.5 -62.5l-35.5 -62.5l-29.5 -53t-17.5 -34.5q-5 7 -19 31.5l-33 57l-40.5 69.5l-40.5 69.5l-33 57l-18 31.5q-6 11 -9.5 20.5t-3.5 18.5q0 11 13 18q7 3 11 4.5t4 4.5t-2.5 5t-10.5 2q-29 0 -54 -1.5t-30 -1.5q-2 0 -15 0.5t-29.5 1
l-32 1t-22.5 0.5q-13 0 -13 -7t10 -7q7 0 19.5 -4t23.5 -12q14 -9 31.5 -27.5t36.5 -46.5q9 -13 25 -38.5l35 -56l38.5 -63l36.5 -60t28 -47t13 -23.5q5 -11 9 -21t7 -22t5 -27t2 -35v-86zM484 933q-6 9 -10 9t-9.5 -2.5t-18.5 -10.5q-3 -2 -19.5 -11.5l-38 -23l-43.5 -27.5
t-35 -23q-7 -4 -7 -8q0 -6 5 -6q3 0 15 5t30.5 11.5t39.5 12.5t42.5 11t39.5 7q13 2 20.5 1t9.5 -1q3 0 5.5 2.5t-1.5 9.5l-14 25.5z" />
    <glyph glyph-name="Ydieresis" unicode="&#x178;" horiz-adv-x="654" 
d="M289 170q0 -12 -0.5 -40t-2.5 -60q-2 -22 -9 -37t-22 -18q-7 -2 -15 -3t-15 -1q-8 0 -8 -6q0 -8 16 -8q11 0 27 0.5l31 1t26.5 1t13.5 0.5t13.5 -0.5t29 -1t38.5 -1t42 -0.5q16 0 16 8q0 6 -8 6q-7 0 -20.5 1t-24.5 3q-23 3 -31 18t-10 37q-2 32 -2.5 60t-0.5 40v86
q0 25 2 49t13 51q4 11 18 36l32.5 57l39.5 67.5l41 67l36 56t24 34.5q17 20 27.5 31t25.5 20q12 8 25 11t21 3q13 0 13 8q0 6 -13 6q-7 0 -22.5 -0.5l-31 -1t-28.5 -1t-15 -0.5q-6 0 -26 1.5t-40 1.5q-16 0 -16 -6q0 -5 15 -10q9 -2 12.5 -9.5t3.5 -18.5q0 -10 -3.5 -22.5
t-13.5 -28.5l-18 -30l-30 -51.5l-35.5 -62.5l-35.5 -62.5l-29.5 -53t-17.5 -34.5q-5 7 -19 31.5l-33 57l-40.5 69.5l-40.5 69.5l-33 57l-18 31.5q-6 11 -9.5 20.5t-3.5 18.5q0 11 13 18q7 3 11 4.5t4 4.5t-2.5 5t-10.5 2q-29 0 -54 -1.5t-30 -1.5q-2 0 -15 0.5t-29.5 1
l-32 1t-22.5 0.5q-13 0 -13 -7t10 -7q7 0 19.5 -4t23.5 -12q14 -9 31.5 -27.5t36.5 -46.5q9 -13 25 -38.5l35 -56l38.5 -63l36.5 -60t28 -47t13 -23.5q5 -11 9 -21t7 -22t5 -27t2 -35v-86zM451 830q20 0 32 13t12 33q0 19 -12.5 29.5t-30.5 10.5q-23 0 -33 -14.5t-10 -28.5
t9.5 -28.5t32.5 -14.5zM250 830q20 0 32 13t12 33q0 19 -12.5 29.5t-30.5 10.5q-23 0 -33 -14.5t-10 -28.5t9.5 -28.5t32.5 -14.5z" />
    <glyph glyph-name="Zcaron" unicode="&#x17d;" horiz-adv-x="692" 
d="M184 40l227 345l221 345q3 5 3.5 7t0.5 5q0 8 -20 8h-279h-63t-111 3q-20 1 -27.5 4t-14.5 3t-10 -19l-5.5 -31.5t-6.5 -41.5l-5.5 -38.5t-2.5 -21.5q0 -13 6 -13q4 0 6.5 3.5t4.5 14.5q2 17 16 41t41 38q12 6 29 10t36 6.5t39.5 3t39.5 0.5h217l-216 -338.5l-223 -337.5
q-9 -14 -11.5 -19t-2.5 -9q0 -8 18 -8q132 0 258 -2.5t252 -2.5q9 0 13.5 0.5t7.5 3.5t5 8t4 14l5.5 24t6.5 31.5t5.5 32t2.5 27.5q0 14 -1.5 18.5t-6.5 4.5q-6 0 -9 -16q-2 -11 -7.5 -27.5t-12.5 -26.5q-8 -11 -19 -20t-28.5 -15.5t-44.5 -10t-66 -3.5h-272zM224 920
q-2 -2 -3.5 -4.5t-1.5 -4.5t12 -10l20 -15.5l32 -24l31.5 -23.5t17.5 -13q11 -10 15 -10q6 0 17 10q4 4 20.5 19l35.5 33l35.5 33t20.5 19q2 3 4 5.5t2 5.5q0 8 -7 8t-18 -10l-20 -17t-22.5 -17.5l-22.5 -16.5t-20 -12q-10 -5 -16 -5q-2 0 -10 4q-5 2 -16 10t-23.5 18.5
l-25 21.5t-19.5 19q-4 5 -8 5q-3 0 -9 -6z" />
    <glyph glyph-name="aacute" unicode="&#xe1;" horiz-adv-x="624" 
d="M82 91q-13 -32 -28.5 -53t-45.5 -25q-5 -1 -13 -1.5t-13 -0.5q-8 0 -8 -7t17 -7q13 0 27.5 0.5t27 1t22 1t12.5 0.5q4 0 13.5 -0.5t21.5 -1l24 -1t20 -0.5q13 0 13 7t-9 7h-8q-11 0 -20.5 5t-9.5 18q0 23 13 57l50 136q3 7 9 7h203q5 0 8 -5l79 -195q5 -11 0.5 -16
t-8.5 -7q-3 -2 -4.5 -2.5t-1.5 -3.5q0 -4 9 -4.5t22 -1.5q23 -1 45.5 -1.5t41.5 -0.5h33h19q8 0 14 1.5t6 5.5t-3.5 5.5t-7.5 1.5q-7 0 -16 1t-19 4q-7 2 -15 6t-17.5 14t-20 27t-22.5 46l-33.5 80.5l-41.5 102.5l-44.5 109.5l-41.5 102l-32.5 79.5t-17.5 42
q-7 14 -10.5 22.5t-10.5 8.5q-5 0 -9 -6t-12 -27zM209 269q-5 0 -3 6l82 233q7 19 15 0l87 -233q1 -6 -3 -6h-178zM440 818q-6 9 -10 9t-9.5 -2.5t-18.5 -10.5q-3 -2 -19.5 -11.5l-38 -23l-43.5 -27.5t-35 -23q-7 -4 -7 -8q0 -6 5 -6q3 0 15 5t30.5 11.5t39.5 12.5t42.5 11
t39.5 7q13 2 20.5 1t9.5 -1q3 0 5.5 2.5t-1.5 9.5l-14 25.5z" />
    <glyph glyph-name="acircumflex" unicode="&#xe2;" horiz-adv-x="624" 
d="M82 91q-13 -32 -28.5 -53t-45.5 -25q-5 -1 -13 -1.5t-13 -0.5q-8 0 -8 -7t17 -7q13 0 27.5 0.5t27 1t22 1t12.5 0.5q4 0 13.5 -0.5t21.5 -1l24 -1t20 -0.5q13 0 13 7t-9 7h-8q-11 0 -20.5 5t-9.5 18q0 23 13 57l50 136q3 7 9 7h203q5 0 8 -5l79 -195q5 -11 0.5 -16
t-8.5 -7q-3 -2 -4.5 -2.5t-1.5 -3.5q0 -4 9 -4.5t22 -1.5q23 -1 45.5 -1.5t41.5 -0.5h33h19q8 0 14 1.5t6 5.5t-3.5 5.5t-7.5 1.5q-7 0 -16 1t-19 4q-7 2 -15 6t-17.5 14t-20 27t-22.5 46l-33.5 80.5l-41.5 102.5l-44.5 109.5l-41.5 102l-32.5 79.5t-17.5 42
q-7 14 -10.5 22.5t-10.5 8.5q-5 0 -9 -6t-12 -27zM209 269q-5 0 -3 6l82 233q7 19 15 0l87 -233q1 -6 -3 -6h-178zM439 730q2 2 3.5 4.5t1.5 4.5t-12 10l-20 15.5l-32 24l-31.5 23.5t-17.5 13q-6 5 -9.5 7.5t-6.5 2.5q-5 0 -16 -10q-4 -4 -20.5 -19l-35.5 -33l-35.5 -33
t-20.5 -19q-2 -3 -4 -5.5t-2 -5.5q0 -8 7 -8t18 10q9 7 20 16.5t22.5 18l22.5 16t20 12.5q10 5 16 5q2 0 10 -4l15 -11l24 -18t25 -21t20 -19q4 -5 8 -5q3 0 9 6z" />
    <glyph glyph-name="adieresis" unicode="&#xe4;" horiz-adv-x="624" 
d="M82 91q-13 -32 -28.5 -53t-45.5 -25q-5 -1 -13 -1.5t-13 -0.5q-8 0 -8 -7t17 -7q13 0 27.5 0.5t27 1t22 1t12.5 0.5q4 0 13.5 -0.5t21.5 -1l24 -1t20 -0.5q13 0 13 7t-9 7h-8q-11 0 -20.5 5t-9.5 18q0 23 13 57l50 136q3 7 9 7h203q5 0 8 -5l79 -195q5 -11 0.5 -16
t-8.5 -7q-3 -2 -4.5 -2.5t-1.5 -3.5q0 -4 9 -4.5t22 -1.5q23 -1 45.5 -1.5t41.5 -0.5h33h19q8 0 14 1.5t6 5.5t-3.5 5.5t-7.5 1.5q-7 0 -16 1t-19 4q-7 2 -15 6t-17.5 14t-20 27t-22.5 46l-33.5 80.5l-41.5 102.5l-44.5 109.5l-41.5 102l-32.5 79.5t-17.5 42
q-7 14 -10.5 22.5t-10.5 8.5q-5 0 -9 -6t-12 -27zM209 269q-5 0 -3 6l82 233q7 19 15 0l87 -233q1 -6 -3 -6h-178zM412 715q20 0 32 13t12 33q0 19 -12.5 29.5t-30.5 10.5q-23 0 -33 -14.5t-10 -28.5t9.5 -28.5t32.5 -14.5zM211 715q20 0 32 13t12 33q0 19 -12.5 29.5
t-30.5 10.5q-23 0 -33 -14.5t-10 -28.5t9.5 -28.5t32.5 -14.5z" />
    <glyph glyph-name="agrave" unicode="&#xe0;" horiz-adv-x="624" 
d="M82 91q-13 -32 -28.5 -53t-45.5 -25q-5 -1 -13 -1.5t-13 -0.5q-8 0 -8 -7t17 -7q13 0 27.5 0.5t27 1t22 1t12.5 0.5q4 0 13.5 -0.5t21.5 -1l24 -1t20 -0.5q13 0 13 7t-9 7h-8q-11 0 -20.5 5t-9.5 18q0 23 13 57l50 136q3 7 9 7h203q5 0 8 -5l79 -195q5 -11 0.5 -16
t-8.5 -7q-3 -2 -4.5 -2.5t-1.5 -3.5q0 -4 9 -4.5t22 -1.5q23 -1 45.5 -1.5t41.5 -0.5h33h19q8 0 14 1.5t6 5.5t-3.5 5.5t-7.5 1.5q-7 0 -16 1t-19 4q-7 2 -15 6t-17.5 14t-20 27t-22.5 46l-33.5 80.5l-41.5 102.5l-44.5 109.5l-41.5 102l-32.5 79.5t-17.5 42
q-7 14 -10.5 22.5t-10.5 8.5q-5 0 -9 -6t-12 -27zM209 269q-5 0 -3 6l82 233q7 19 15 0l87 -233q1 -6 -3 -6h-178zM363 715q9 0 9 5q0 3 -5.5 6t-13.5 8l-31.5 21.5t-30 22l-23.5 18.5t-13 11q-7 7 -9 11.5t-6 4.5q-3 0 -6.5 -1.5t-9.5 -3.5q-9 -4 -26.5 -9l-33.5 -10
q-11 -3 -11 -8q0 -6 29 -17q4 -2 17.5 -6.5t32.5 -11.5t40 -14l39.5 -13t32.5 -10t19 -4z" />
    <glyph glyph-name="aring" unicode="&#xe5;" horiz-adv-x="624" 
d="M82 91q-13 -32 -28.5 -53t-45.5 -25q-5 -1 -13 -1.5t-13 -0.5q-8 0 -8 -7t17 -7q13 0 27.5 0.5t27 1t22 1t12.5 0.5q4 0 13.5 -0.5t21.5 -1l24 -1t20 -0.5q13 0 13 7t-9 7h-8q-11 0 -20.5 5t-9.5 18q0 23 13 57l50 136q3 7 9 7h203q5 0 8 -5l79 -195q5 -11 0.5 -16
t-8.5 -7q-3 -2 -4.5 -2.5t-1.5 -3.5q0 -4 9 -4.5t22 -1.5q23 -1 45.5 -1.5t41.5 -0.5h33h19q8 0 14 1.5t6 5.5t-3.5 5.5t-7.5 1.5q-7 0 -16 1t-19 4q-7 2 -15 6t-17.5 14t-20 27t-22.5 46l-33.5 80.5l-41.5 102.5l-44.5 109.5l-41.5 102l-32.5 79.5t-17.5 42
q-7 14 -10.5 22.5t-10.5 8.5q-5 0 -9 -6t-12 -27zM209 269q-5 0 -3 6l82 233q7 19 15 0l87 -233q1 -6 -3 -6h-178zM291 705q22 0 44 6t39.5 17.5t28 27.5t10.5 37q0 26 -22 41.5t-60 15.5q-26 0 -47.5 -7t-37.5 -19t-24.5 -27.5t-8.5 -32.5q0 -26 20 -42.5t58 -16.5z
M307 729q-18 0 -34 12.5t-16 35.5q0 13 5.5 22t14 15t18.5 9t19 3q27 0 39.5 -14t12.5 -32q0 -21 -17 -36t-42 -15z" />
    <glyph glyph-name="atilde" unicode="&#xe3;" horiz-adv-x="624" 
d="M82 91q-13 -32 -28.5 -53t-45.5 -25q-5 -1 -13 -1.5t-13 -0.5q-8 0 -8 -7t17 -7q13 0 27.5 0.5t27 1t22 1t12.5 0.5q4 0 13.5 -0.5t21.5 -1l24 -1t20 -0.5q13 0 13 7t-9 7h-8q-11 0 -20.5 5t-9.5 18q0 23 13 57l50 136q3 7 9 7h203q5 0 8 -5l79 -195q5 -11 0.5 -16
t-8.5 -7q-3 -2 -4.5 -2.5t-1.5 -3.5q0 -4 9 -4.5t22 -1.5q23 -1 45.5 -1.5t41.5 -0.5h33h19q8 0 14 1.5t6 5.5t-3.5 5.5t-7.5 1.5q-7 0 -16 1t-19 4q-7 2 -15 6t-17.5 14t-20 27t-22.5 46l-33.5 80.5l-41.5 102.5l-44.5 109.5l-41.5 102l-32.5 79.5t-17.5 42
q-7 14 -10.5 22.5t-10.5 8.5q-5 0 -9 -6t-12 -27zM209 269q-5 0 -3 6l82 233q7 19 15 0l87 -233q1 -6 -3 -6h-178zM383 715q12 0 25 8.5t25 20t21 23t12 17.5q4 8 4 13q0 6 -7 6q-5 0 -12 -11q-1 -2 -5.5 -6.5t-12 -9.5t-18.5 -9t-25 -4q-12 0 -29.5 6t-28.5 11l-44.5 21
t-39.5 10q-12 0 -25 -8t-25 -19.5t-21.5 -23.5t-14.5 -20q-3 -5 -5 -8t-2 -7q0 -6 6 -6t14 9q3 3 7.5 9t12 12t18 10.5t23.5 4.5q23 0 38.5 -8.5t29.5 -14.5l32.5 -15.5t46.5 -10.5z" />
    <glyph glyph-name="ccedilla" unicode="&#xe7;" horiz-adv-x="708" 
d="M418 -13q8 -1 16 -1h18q43 0 87.5 4t71.5 15q11 5 14.5 9t7.5 16q3 11 7 28.5t7 34.5t5 30.5t2 15.5q0 5 -2.5 8.5t-5.5 3.5q-5 0 -6 -2.5t-3 -9.5q-2 -12 -11 -34.5t-23 -36.5q-26 -26 -60.5 -33t-84.5 -7q-71 0 -129 25t-100 67.5t-65 98.5t-23 117q0 65 15 121t64 101
q12 11 28.5 21.5t40 19t55.5 13.5t74 5q59 0 104.5 -13.5t68.5 -33.5q17 -14 27 -37t10 -48q0 -18 7 -18q9 0 10 18q0 4 0.5 14.5t0.5 22.5q0 13 0.5 26t0.5 24q2 23 3 33t1 15q0 9 -11 9q-22 1 -43.5 5.5t-46.5 8.5q-32 5 -67 7t-61 2q-51 0 -91.5 -7t-73 -19.5t-58 -29
t-45.5 -35.5q-29 -29 -48.5 -60.5t-30.5 -62.5t-15.5 -59.5t-4.5 -49.5q0 -30 4.5 -63t16.5 -65.5t33 -64t53 -59.5q42 -36 95 -58t124 -30l-64 -52q-13 -10 -13 -14q0 -5 15 -9q44 -13 58 -32t14 -41q0 -14 -6.5 -24.5t-17 -18t-24 -12.5t-26.5 -6q-8 -1 -14 -2.5t-6 -8.5
q0 -8 13 -8q14 0 36 4.5t42 13.5q13 5 25.5 13t22.5 18.5t16.5 23t6.5 27.5q0 31 -26.5 48.5t-73.5 22.5q3 3 9.5 9l15 14l17.5 16.5z" />
    <glyph glyph-name="eacute" unicode="&#xe9;" horiz-adv-x="551" 
d="M155 244q0 -62 -0.5 -110t-4.5 -74q-3 -19 -6.5 -31t-16.5 -14q-6 -1 -13.5 -2.5t-13.5 -1.5q-7 0 -7 -7t14 -7q11 0 24.5 0.5t26.5 1.5q14 1 25 1h13h27q18 0 46 -2q27 -1 65 -2t88 -1q13 0 21.5 0.5t13.5 2.5t8.5 6.5t5.5 12.5q2 7 4 19.5l4 26t3 24t1 12.5q0 5 -1 9
t-5 4q-6 0 -9 -13q-4 -26 -13.5 -38.5t-26.5 -20.5q-17 -7 -44 -8t-44 -1q-33 0 -53 2.5t-31.5 10t-15.5 21t-5 34.5v25v43v44v33v71q0 6 6 6h24t39 -0.5t41 -1.5t29 -2q26 -3 34.5 -10t10.5 -16q3 -8 3.5 -15t0.5 -13q0 -8 6 -8q5 0 6.5 5.5t1.5 10.5t1 23.5t3 31.5
q2 21 4.5 32t2.5 15q0 7 -5 7q-2 0 -13 -11q-7 -7 -17 -8.5t-26 -3.5q-8 -1 -30 -1.5t-47 -0.5h-46h-24q-5 0 -5 9v231q0 9 5 9h22t39.5 -0.5t40.5 -1t25 -1.5q18 -2 29 -4.5t18 -5.5t10.5 -7t5.5 -9q3 -8 4 -16.5t1 -13.5q0 -11 7 -11q3 0 5 3t3 6q1 4 1.5 12t1.5 17
t1.5 16.5t0.5 10.5q2 18 4.5 26.5t2.5 13.5q0 8 -4 8q-3 0 -6 -1.5t-6 -2.5q-5 -1 -16 -2.5t-24 -2.5h-22h-40h-49h-47h-36h-16q-2 0 -12.5 0.5t-25.5 0.5t-32 0.5t-32 0.5q-14 0 -14 -7t7 -7q6 0 15.5 -0.5t14.5 -1.5q22 -3 28 -14t8 -33q1 -10 1.5 -21.5t0.5 -31.5v-50
v-80v-150zM403 818q-6 9 -10 9t-9.5 -2.5t-18.5 -10.5q-3 -2 -19.5 -11.5l-38 -23l-43.5 -27.5t-35 -23q-7 -4 -7 -8q0 -6 5 -6q3 0 15 5t30.5 11.5t39.5 12.5t42.5 11t39.5 7q13 2 20.5 1t9.5 -1q3 0 5.5 2.5t-1.5 9.5l-14 25.5z" />
    <glyph glyph-name="ecircumflex" unicode="&#xea;" horiz-adv-x="551" 
d="M155 244q0 -62 -0.5 -110t-4.5 -74q-3 -19 -6.5 -31t-16.5 -14q-6 -1 -13.5 -2.5t-13.5 -1.5q-7 0 -7 -7t14 -7q11 0 24.5 0.5t26.5 1.5q14 1 25 1h13h27q18 0 46 -2q27 -1 65 -2t88 -1q13 0 21.5 0.5t13.5 2.5t8.5 6.5t5.5 12.5q2 7 4 19.5l4 26t3 24t1 12.5q0 5 -1 9
t-5 4q-6 0 -9 -13q-4 -26 -13.5 -38.5t-26.5 -20.5q-17 -7 -44 -8t-44 -1q-33 0 -53 2.5t-31.5 10t-15.5 21t-5 34.5v25v43v44v33v71q0 6 6 6h24t39 -0.5t41 -1.5t29 -2q26 -3 34.5 -10t10.5 -16q3 -8 3.5 -15t0.5 -13q0 -8 6 -8q5 0 6.5 5.5t1.5 10.5t1 23.5t3 31.5
q2 21 4.5 32t2.5 15q0 7 -5 7q-2 0 -13 -11q-7 -7 -17 -8.5t-26 -3.5q-8 -1 -30 -1.5t-47 -0.5h-46h-24q-5 0 -5 9v231q0 9 5 9h22t39.5 -0.5t40.5 -1t25 -1.5q18 -2 29 -4.5t18 -5.5t10.5 -7t5.5 -9q3 -8 4 -16.5t1 -13.5q0 -11 7 -11q3 0 5 3t3 6q1 4 1.5 12t1.5 17
t1.5 16.5t0.5 10.5q2 18 4.5 26.5t2.5 13.5q0 8 -4 8q-3 0 -6 -1.5t-6 -2.5q-5 -1 -16 -2.5t-24 -2.5h-22h-40h-49h-47h-36h-16q-2 0 -12.5 0.5t-25.5 0.5t-32 0.5t-32 0.5q-14 0 -14 -7t7 -7q6 0 15.5 -0.5t14.5 -1.5q22 -3 28 -14t8 -33q1 -10 1.5 -21.5t0.5 -31.5v-50
v-80v-150zM412 730q2 2 3.5 4.5t1.5 4.5t-12 10l-20 15.5l-32 24l-31.5 23.5t-17.5 13q-6 5 -9.5 7.5t-6.5 2.5q-5 0 -16 -10q-4 -4 -20.5 -19l-35.5 -33l-35.5 -33t-20.5 -19q-2 -3 -4 -5.5t-2 -5.5q0 -8 7 -8t18 10q9 7 20 16.5t22.5 18l22.5 16t20 12.5q10 5 16 5
q2 0 10 -4l15 -11l24 -18t25 -21t20 -19q4 -5 8 -5q3 0 9 6z" />
    <glyph glyph-name="edieresis" unicode="&#xeb;" horiz-adv-x="551" 
d="M155 244q0 -62 -0.5 -110t-4.5 -74q-3 -19 -6.5 -31t-16.5 -14q-6 -1 -13.5 -2.5t-13.5 -1.5q-7 0 -7 -7t14 -7q11 0 24.5 0.5t26.5 1.5q14 1 25 1h13h27q18 0 46 -2q27 -1 65 -2t88 -1q13 0 21.5 0.5t13.5 2.5t8.5 6.5t5.5 12.5q2 7 4 19.5l4 26t3 24t1 12.5q0 5 -1 9
t-5 4q-6 0 -9 -13q-4 -26 -13.5 -38.5t-26.5 -20.5q-17 -7 -44 -8t-44 -1q-33 0 -53 2.5t-31.5 10t-15.5 21t-5 34.5v25v43v44v33v71q0 6 6 6h24t39 -0.5t41 -1.5t29 -2q26 -3 34.5 -10t10.5 -16q3 -8 3.5 -15t0.5 -13q0 -8 6 -8q5 0 6.5 5.5t1.5 10.5t1 23.5t3 31.5
q2 21 4.5 32t2.5 15q0 7 -5 7q-2 0 -13 -11q-7 -7 -17 -8.5t-26 -3.5q-8 -1 -30 -1.5t-47 -0.5h-46h-24q-5 0 -5 9v231q0 9 5 9h22t39.5 -0.5t40.5 -1t25 -1.5q18 -2 29 -4.5t18 -5.5t10.5 -7t5.5 -9q3 -8 4 -16.5t1 -13.5q0 -11 7 -11q3 0 5 3t3 6q1 4 1.5 12t1.5 17
t1.5 16.5t0.5 10.5q2 18 4.5 26.5t2.5 13.5q0 8 -4 8q-3 0 -6 -1.5t-6 -2.5q-5 -1 -16 -2.5t-24 -2.5h-22h-40h-49h-47h-36h-16q-2 0 -12.5 0.5t-25.5 0.5t-32 0.5t-32 0.5q-14 0 -14 -7t7 -7q6 0 15.5 -0.5t14.5 -1.5q22 -3 28 -14t8 -33q1 -10 1.5 -21.5t0.5 -31.5v-50
v-80v-150zM375 715q20 0 32 13t12 33q0 19 -12.5 29.5t-30.5 10.5q-23 0 -33 -14.5t-10 -28.5t9.5 -28.5t32.5 -14.5zM174 715q20 0 32 13t12 33q0 19 -12.5 29.5t-30.5 10.5q-23 0 -33 -14.5t-10 -28.5t9.5 -28.5t32.5 -14.5z" />
    <glyph glyph-name="egrave" unicode="&#xe8;" horiz-adv-x="551" 
d="M155 244q0 -62 -0.5 -110t-4.5 -74q-3 -19 -6.5 -31t-16.5 -14q-6 -1 -13.5 -2.5t-13.5 -1.5q-7 0 -7 -7t14 -7q11 0 24.5 0.5t26.5 1.5q14 1 25 1h13h27q18 0 46 -2q27 -1 65 -2t88 -1q13 0 21.5 0.5t13.5 2.5t8.5 6.5t5.5 12.5q2 7 4 19.5l4 26t3 24t1 12.5q0 5 -1 9
t-5 4q-6 0 -9 -13q-4 -26 -13.5 -38.5t-26.5 -20.5q-17 -7 -44 -8t-44 -1q-33 0 -53 2.5t-31.5 10t-15.5 21t-5 34.5v25v43v44v33v71q0 6 6 6h24t39 -0.5t41 -1.5t29 -2q26 -3 34.5 -10t10.5 -16q3 -8 3.5 -15t0.5 -13q0 -8 6 -8q5 0 6.5 5.5t1.5 10.5t1 23.5t3 31.5
q2 21 4.5 32t2.5 15q0 7 -5 7q-2 0 -13 -11q-7 -7 -17 -8.5t-26 -3.5q-8 -1 -30 -1.5t-47 -0.5h-46h-24q-5 0 -5 9v231q0 9 5 9h22t39.5 -0.5t40.5 -1t25 -1.5q18 -2 29 -4.5t18 -5.5t10.5 -7t5.5 -9q3 -8 4 -16.5t1 -13.5q0 -11 7 -11q3 0 5 3t3 6q1 4 1.5 12t1.5 17
t1.5 16.5t0.5 10.5q2 18 4.5 26.5t2.5 13.5q0 8 -4 8q-3 0 -6 -1.5t-6 -2.5q-5 -1 -16 -2.5t-24 -2.5h-22h-40h-49h-47h-36h-16q-2 0 -12.5 0.5t-25.5 0.5t-32 0.5t-32 0.5q-14 0 -14 -7t7 -7q6 0 15.5 -0.5t14.5 -1.5q22 -3 28 -14t8 -33q1 -10 1.5 -21.5t0.5 -31.5v-50
v-80v-150zM346 715q9 0 9 5q0 3 -5.5 6t-13.5 8l-31.5 21.5t-30 22l-23.5 18.5t-13 11q-7 7 -9 11.5t-6 4.5q-3 0 -6.5 -1.5t-9.5 -3.5q-9 -4 -26.5 -9l-33.5 -10q-11 -3 -11 -8q0 -6 29 -17q4 -2 17.5 -6.5t32.5 -11.5t40 -14l39.5 -13t32.5 -10t19 -4z" />
    <glyph glyph-name="iacute" unicode="&#xed;" horiz-adv-x="389" 
d="M235 394v80v50q0 20 0.5 31.5t0.5 21.5q2 23 7.5 33t23.5 14q8 2 12 2h10q7 0 7 7t-14 7q-10 0 -24.5 -0.5t-28.5 -0.5q-13 0 -23.5 -0.5t-11.5 -0.5q-2 0 -12 0.5t-24 0.5q-13 0 -27.5 0.5t-25.5 0.5q-14 0 -14 -7t7 -7q5 0 12 -0.5t15 -2.5q14 -3 20 -13.5t8 -32.5
q1 -10 1.5 -21.5t0.5 -31.5v-50v-80v-150q0 -62 -1 -110t-4 -74q-2 -19 -6 -30.5t-17 -14.5q-6 -2 -13.5 -3t-13.5 -1q-7 0 -7 -7t14 -7q10 0 24 0.5l27.5 1t23.5 1t12 0.5q1 0 11.5 -0.5t26.5 -1t35 -1t37 -0.5q14 0 14 7t-7 7q-6 0 -18 1t-22 3q-20 3 -25 14.5t-7 30.5
q-3 26 -3.5 74t-0.5 110v150zM322 818q-6 9 -10 9t-9.5 -2.5t-18.5 -10.5q-3 -2 -19.5 -11.5l-38 -23l-43.5 -27.5t-35 -23q-7 -4 -7 -8q0 -6 5 -6q3 0 15 5t30.5 11.5t39.5 12.5t42.5 11t39.5 7q13 2 20.5 1t9.5 -1q3 0 5.5 2.5t-1.5 9.5l-14 25.5z" />
    <glyph glyph-name="icircumflex" unicode="&#xee;" horiz-adv-x="389" 
d="M235 394v80v50q0 20 0.5 31.5t0.5 21.5q2 23 7.5 33t23.5 14q8 2 12 2h10q7 0 7 7t-14 7q-10 0 -24.5 -0.5t-28.5 -0.5q-13 0 -23.5 -0.5t-11.5 -0.5q-2 0 -12 0.5t-24 0.5q-13 0 -27.5 0.5t-25.5 0.5q-14 0 -14 -7t7 -7q5 0 12 -0.5t15 -2.5q14 -3 20 -13.5t8 -32.5
q1 -10 1.5 -21.5t0.5 -31.5v-50v-80v-150q0 -62 -1 -110t-4 -74q-2 -19 -6 -30.5t-17 -14.5q-6 -2 -13.5 -3t-13.5 -1q-7 0 -7 -7t14 -7q10 0 24 0.5l27.5 1t23.5 1t12 0.5q1 0 11.5 -0.5t26.5 -1t35 -1t37 -0.5q14 0 14 7t-7 7q-6 0 -18 1t-22 3q-20 3 -25 14.5t-7 30.5
q-3 26 -3.5 74t-0.5 110v150zM321 730q2 2 3.5 4.5t1.5 4.5t-12 10l-20 15.5l-32 24l-31.5 23.5t-17.5 13q-6 5 -9.5 7.5t-6.5 2.5q-5 0 -16 -10q-4 -4 -20.5 -19l-35.5 -33l-35.5 -33t-20.5 -19q-2 -3 -4 -5.5t-2 -5.5q0 -8 7 -8t18 10q9 7 20 16.5t22.5 18l22.5 16
t20 12.5q10 5 16 5q2 0 10 -4l15 -11l24 -18t25 -21t20 -19q4 -5 8 -5q3 0 9 6z" />
    <glyph glyph-name="idieresis" unicode="&#xef;" horiz-adv-x="389" 
d="M235 394v80v50q0 20 0.5 31.5t0.5 21.5q2 23 7.5 33t23.5 14q8 2 12 2h10q7 0 7 7t-14 7q-10 0 -24.5 -0.5t-28.5 -0.5q-13 0 -23.5 -0.5t-11.5 -0.5q-2 0 -12 0.5t-24 0.5q-13 0 -27.5 0.5t-25.5 0.5q-14 0 -14 -7t7 -7q5 0 12 -0.5t15 -2.5q14 -3 20 -13.5t8 -32.5
q1 -10 1.5 -21.5t0.5 -31.5v-50v-80v-150q0 -62 -1 -110t-4 -74q-2 -19 -6 -30.5t-17 -14.5q-6 -2 -13.5 -3t-13.5 -1q-7 0 -7 -7t14 -7q10 0 24 0.5l27.5 1t23.5 1t12 0.5q1 0 11.5 -0.5t26.5 -1t35 -1t37 -0.5q14 0 14 7t-7 7q-6 0 -18 1t-22 3q-20 3 -25 14.5t-7 30.5
q-3 26 -3.5 74t-0.5 110v150zM294 715q20 0 32 13t12 33q0 19 -12.5 29.5t-30.5 10.5q-23 0 -33 -14.5t-10 -28.5t9.5 -28.5t32.5 -14.5zM93 715q20 0 32 13t12 33q0 19 -12.5 29.5t-30.5 10.5q-23 0 -33 -14.5t-10 -28.5t9.5 -28.5t32.5 -14.5z" />
    <glyph glyph-name="igrave" unicode="&#xec;" horiz-adv-x="389" 
d="M235 394v80v50q0 20 0.5 31.5t0.5 21.5q2 23 7.5 33t23.5 14q8 2 12 2h10q7 0 7 7t-14 7q-10 0 -24.5 -0.5t-28.5 -0.5q-13 0 -23.5 -0.5t-11.5 -0.5q-2 0 -12 0.5t-24 0.5q-13 0 -27.5 0.5t-25.5 0.5q-14 0 -14 -7t7 -7q5 0 12 -0.5t15 -2.5q14 -3 20 -13.5t8 -32.5
q1 -10 1.5 -21.5t0.5 -31.5v-50v-80v-150q0 -62 -1 -110t-4 -74q-2 -19 -6 -30.5t-17 -14.5q-6 -2 -13.5 -3t-13.5 -1q-7 0 -7 -7t14 -7q10 0 24 0.5l27.5 1t23.5 1t12 0.5q1 0 11.5 -0.5t26.5 -1t35 -1t37 -0.5q14 0 14 7t-7 7q-6 0 -18 1t-22 3q-20 3 -25 14.5t-7 30.5
q-3 26 -3.5 74t-0.5 110v150zM245 715q9 0 9 5q0 3 -5.5 6t-13.5 8l-31.5 21.5t-30 22l-23.5 18.5t-13 11q-7 7 -9 11.5t-6 4.5q-3 0 -6.5 -1.5t-9.5 -3.5q-9 -4 -26.5 -9l-33.5 -10q-11 -3 -11 -8q0 -6 29 -17q4 -2 17.5 -6.5t32.5 -11.5t40 -14l39.5 -13t32.5 -10t19 -4z
" />
    <glyph glyph-name="ntilde" unicode="&#xf1;" horiz-adv-x="833" 
d="M182 514l32.5 -35l53.5 -56.5l67.5 -71l74.5 -78.5l74 -75.5l72 -73l56.5 -56l26.5 -25.5l29.5 -27t19 -15.5t11.5 -7.5t7 -2q2 0 3.5 1.5t2 8t1 18.5t0.5 33l2 498q0 19 1 32t4 21.5t9 13.5t17 7q8 2 13 2h8q5 0 7.5 3t2.5 5q0 6 -16 6q-27 0 -47 -1t-28 -1t-35 1t-57 1
q-17 0 -17 -6q0 -2 1 -5t6 -3t18 -1t25 -3q20 -4 26 -21t7 -58l9 -426l-31.5 33l-50 53l-61 64.5l-65.5 68.5l-99 102l-86 90l-63 66.5l-30 31.5l-16.5 16.5t-17.5 9.5q-5 0 -8.5 -8.5t-3.5 -34.5v-487q0 -29 -1 -48.5t-3.5 -31.5t-7.5 -18t-13 -8q-10 -3 -20.5 -4t-15.5 -1
q-7 0 -7 -7t14 -7q30 0 54.5 1.5t30.5 1.5t30.5 -1.5t62.5 -1.5q16 0 16 7t-7 7q-6 0 -19 1t-25 4q-9 2 -15 7.5t-10 17t-6 29t-3 43.5zM487 715q12 0 25 8.5t25 20t21 23t12 17.5q4 8 4 13q0 6 -7 6q-5 0 -12 -11q-1 -2 -5.5 -6.5t-12 -9.5t-18.5 -9t-25 -4q-12 0 -29.5 6
t-28.5 11l-44.5 21t-39.5 10q-12 0 -25 -8t-25 -19.5t-21.5 -23.5t-14.5 -20q-3 -5 -5 -8t-2 -7q0 -6 6 -6t14 9q3 3 7.5 9t12 12t18 10.5t23.5 4.5q23 0 38.5 -8.5t29.5 -14.5l32.5 -15.5t46.5 -10.5z" />
    <glyph glyph-name="oacute" unicode="&#xf3;" horiz-adv-x="808" 
d="M55 320q0 -57 20 -116.5t62 -108t107 -79t155 -30.5q79 0 144.5 27.5t111.5 74.5t71.5 110.5t25.5 134.5q0 74 -26.5 133t-73 100.5t-110.5 63.5t-138 22q-91 0 -157 -32.5t-108.5 -82t-63 -108t-20.5 -109.5zM146 343q0 69 19 121t52.5 86.5t80 52t101.5 17.5
q52 0 99.5 -20t84 -59t58 -97.5t21.5 -134.5q0 -92 -26 -148.5t-63.5 -87.5t-78 -41.5t-70.5 -10.5q-60 0 -110.5 22.5t-88 64.5t-58.5 101.5t-21 133.5zM532 818q-6 9 -10 9t-9.5 -2.5t-18.5 -10.5q-3 -2 -19.5 -11.5l-38 -23l-43.5 -27.5t-35 -23q-7 -4 -7 -8q0 -6 5 -6
q3 0 15 5t30.5 11.5t39.5 12.5t42.5 11t39.5 7q13 2 20.5 1t9.5 -1q3 0 5.5 2.5t-1.5 9.5l-14 25.5z" />
    <glyph glyph-name="ocircumflex" unicode="&#xf4;" horiz-adv-x="808" 
d="M55 320q0 -57 20 -116.5t62 -108t107 -79t155 -30.5q79 0 144.5 27.5t111.5 74.5t71.5 110.5t25.5 134.5q0 74 -26.5 133t-73 100.5t-110.5 63.5t-138 22q-91 0 -157 -32.5t-108.5 -82t-63 -108t-20.5 -109.5zM146 343q0 69 19 121t52.5 86.5t80 52t101.5 17.5
q52 0 99.5 -20t84 -59t58 -97.5t21.5 -134.5q0 -92 -26 -148.5t-63.5 -87.5t-78 -41.5t-70.5 -10.5q-60 0 -110.5 22.5t-88 64.5t-58.5 101.5t-21 133.5zM531 730q2 2 3.5 4.5t1.5 4.5t-12 10l-20 15.5l-32 24l-31.5 23.5t-17.5 13q-6 5 -9.5 7.5t-6.5 2.5q-5 0 -16 -10
q-4 -4 -20.5 -19l-35.5 -33l-35.5 -33t-20.5 -19q-2 -3 -4 -5.5t-2 -5.5q0 -8 7 -8t18 10q9 7 20 16.5t22.5 18l22.5 16t20 12.5q10 5 16 5q2 0 10 -4l15 -11l24 -18t25 -21t20 -19q4 -5 8 -5q3 0 9 6z" />
    <glyph glyph-name="odieresis" unicode="&#xf6;" horiz-adv-x="808" 
d="M55 320q0 -57 20 -116.5t62 -108t107 -79t155 -30.5q79 0 144.5 27.5t111.5 74.5t71.5 110.5t25.5 134.5q0 74 -26.5 133t-73 100.5t-110.5 63.5t-138 22q-91 0 -157 -32.5t-108.5 -82t-63 -108t-20.5 -109.5zM146 343q0 69 19 121t52.5 86.5t80 52t101.5 17.5
q52 0 99.5 -20t84 -59t58 -97.5t21.5 -134.5q0 -92 -26 -148.5t-63.5 -87.5t-78 -41.5t-70.5 -10.5q-60 0 -110.5 22.5t-88 64.5t-58.5 101.5t-21 133.5zM504 715q20 0 32 13t12 33q0 19 -12.5 29.5t-30.5 10.5q-23 0 -33 -14.5t-10 -28.5t9.5 -28.5t32.5 -14.5zM303 715
q20 0 32 13t12 33q0 19 -12.5 29.5t-30.5 10.5q-23 0 -33 -14.5t-10 -28.5t9.5 -28.5t32.5 -14.5z" />
    <glyph glyph-name="ograve" unicode="&#xf2;" horiz-adv-x="808" 
d="M55 320q0 -57 20 -116.5t62 -108t107 -79t155 -30.5q79 0 144.5 27.5t111.5 74.5t71.5 110.5t25.5 134.5q0 74 -26.5 133t-73 100.5t-110.5 63.5t-138 22q-91 0 -157 -32.5t-108.5 -82t-63 -108t-20.5 -109.5zM146 343q0 69 19 121t52.5 86.5t80 52t101.5 17.5
q52 0 99.5 -20t84 -59t58 -97.5t21.5 -134.5q0 -92 -26 -148.5t-63.5 -87.5t-78 -41.5t-70.5 -10.5q-60 0 -110.5 22.5t-88 64.5t-58.5 101.5t-21 133.5zM455 715q9 0 9 5q0 3 -5.5 6t-13.5 8l-31.5 21.5t-30 22l-23.5 18.5t-13 11q-7 7 -9 11.5t-6 4.5q-3 0 -6.5 -1.5
t-9.5 -3.5q-9 -4 -26.5 -9l-33.5 -10q-11 -3 -11 -8q0 -6 29 -17q4 -2 17.5 -6.5t32.5 -11.5t40 -14l39.5 -13t32.5 -10t19 -4z" />
    <glyph glyph-name="otilde" unicode="&#xf5;" horiz-adv-x="808" 
d="M55 320q0 -57 20 -116.5t62 -108t107 -79t155 -30.5q79 0 144.5 27.5t111.5 74.5t71.5 110.5t25.5 134.5q0 74 -26.5 133t-73 100.5t-110.5 63.5t-138 22q-91 0 -157 -32.5t-108.5 -82t-63 -108t-20.5 -109.5zM146 343q0 69 19 121t52.5 86.5t80 52t101.5 17.5
q52 0 99.5 -20t84 -59t58 -97.5t21.5 -134.5q0 -92 -26 -148.5t-63.5 -87.5t-78 -41.5t-70.5 -10.5q-60 0 -110.5 22.5t-88 64.5t-58.5 101.5t-21 133.5zM484 715q12 0 25 8.5t25 20t21 23t12 17.5q4 8 4 13q0 6 -7 6q-5 0 -12 -11q-1 -2 -5.5 -6.5t-12 -9.5t-18.5 -9
t-25 -4q-12 0 -29.5 6t-28.5 11l-44.5 21t-39.5 10q-12 0 -25 -8t-25 -19.5t-21.5 -23.5t-14.5 -20q-3 -5 -5 -8t-2 -7q0 -6 6 -6t14 9q3 3 7.5 9t12 12t18 10.5t23.5 4.5q23 0 38.5 -8.5t29.5 -14.5l32.5 -15.5t46.5 -10.5z" />
    <glyph glyph-name="scaron" unicode="&#x161;" horiz-adv-x="524" 
d="M209 -14q36 0 74 6t66 24q47 31 64.5 69t17.5 76q0 27 -7.5 52.5t-24.5 50t-44.5 50t-67.5 52.5l-25 17q-33 22 -54.5 39.5t-35 34t-19 33.5t-5.5 37q0 45 34.5 68.5t82.5 23.5q30 0 50.5 -5t34 -12t20.5 -14t9 -11q4 -7 8 -20.5t5 -21.5q1 -5 2 -8t6 -3q7 0 7 19
q0 44 2 65.5t2 24.5q0 6 -9 6q-5 0 -11.5 0.5t-19.5 3.5q-16 4 -40.5 7t-50.5 3q-44 0 -79.5 -11t-61.5 -31.5t-40 -50.5t-14 -67q0 -44 27.5 -86.5t98.5 -95.5l40 -30l50 -39t34.5 -33.5t20 -34.5t6.5 -41q0 -48 -33 -80.5t-99 -32.5q-22 0 -44.5 4.5t-42 14.5t-33.5 26
t-19 39q-2 9 -2.5 17.5t-0.5 13.5q0 10 -8 10q-7 0 -7 -14l-3 -34.5t-2 -55.5q0 -17 2 -22t11 -10q27 -13 62 -18t66 -5zM145 805q-2 -2 -3.5 -4.5t-1.5 -4.5t12 -10l20 -15.5l32 -24l31.5 -23.5t17.5 -13q11 -10 15 -10q6 0 17 10q4 4 20.5 19l35.5 33l35.5 33t20.5 19
q2 3 4 5.5t2 5.5q0 8 -7 8t-18 -10l-20 -17t-22.5 -17.5l-22.5 -16.5t-20 -12q-10 -5 -16 -5q-2 0 -10 4q-5 2 -16 10t-23.5 18.5l-25 21.5t-19.5 19q-4 5 -8 5q-3 0 -9 -6z" />
    <glyph glyph-name="uacute" unicode="&#xfa;" horiz-adv-x="732" 
d="M110 269q0 -47 6 -82t16.5 -61t24.5 -45.5t30 -34.5q23 -22 50.5 -34t53.5 -18t47 -7t32 -1q19 0 41.5 2t46 8.5t48 18.5t48.5 33q26 22 42 52t25 63.5t12 69t3 70.5v91v80v50v31q0 12 1 22q2 21 7.5 32t23.5 15q8 2 12 2h10q7 0 7 7t-14 7q-20 0 -44.5 -1t-29.5 -1
q-2 0 -11.5 0.5t-23.5 0.5q-13 0 -29 0.5t-31 0.5q-14 0 -14 -7t7 -7q6 0 15.5 -0.5t14.5 -1.5q22 -3 28 -15t7 -32q0 -10 0.5 -21.5t1 -31t0.5 -50.5v-80v-107q0 -66 -9.5 -117.5t-40.5 -88.5q-23 -27 -59 -43.5t-77 -16.5q-38 0 -68.5 8.5t-62.5 37.5q-14 13 -26 29.5
t-20.5 41t-13.5 58t-5 79.5v119v80v50q0 20 0.5 31.5t1.5 21.5q2 21 7.5 32.5t22.5 14.5q8 2 12 2h10q8 0 8 7t-15 7q-10 0 -24 -0.5t-28 -0.5q-13 0 -23.5 -0.5t-13.5 -0.5t-13.5 0.5t-25.5 0.5q-14 0 -30.5 0.5t-31.5 0.5q-14 0 -14 -7t7 -7q6 0 15.5 -0.5t14.5 -1.5
q22 -3 28 -15t8 -32q1 -10 1.5 -21.5t0.5 -31.5v-50v-80v-125zM494 818q-6 9 -10 9t-9.5 -2.5t-18.5 -10.5q-3 -2 -19.5 -11.5l-38 -23l-43.5 -27.5t-35 -23q-7 -4 -7 -8q0 -6 5 -6q3 0 15 5t30.5 11.5t39.5 12.5t42.5 11t39.5 7q13 2 20.5 1t9.5 -1q3 0 5.5 2.5t-1.5 9.5
l-14 25.5z" />
    <glyph glyph-name="ucircumflex" unicode="&#xfb;" horiz-adv-x="732" 
d="M110 269q0 -47 6 -82t16.5 -61t24.5 -45.5t30 -34.5q23 -22 50.5 -34t53.5 -18t47 -7t32 -1q19 0 41.5 2t46 8.5t48 18.5t48.5 33q26 22 42 52t25 63.5t12 69t3 70.5v91v80v50v31q0 12 1 22q2 21 7.5 32t23.5 15q8 2 12 2h10q7 0 7 7t-14 7q-20 0 -44.5 -1t-29.5 -1
q-2 0 -11.5 0.5t-23.5 0.5q-13 0 -29 0.5t-31 0.5q-14 0 -14 -7t7 -7q6 0 15.5 -0.5t14.5 -1.5q22 -3 28 -15t7 -32q0 -10 0.5 -21.5t1 -31t0.5 -50.5v-80v-107q0 -66 -9.5 -117.5t-40.5 -88.5q-23 -27 -59 -43.5t-77 -16.5q-38 0 -68.5 8.5t-62.5 37.5q-14 13 -26 29.5
t-20.5 41t-13.5 58t-5 79.5v119v80v50q0 20 0.5 31.5t1.5 21.5q2 21 7.5 32.5t22.5 14.5q8 2 12 2h10q8 0 8 7t-15 7q-10 0 -24 -0.5t-28 -0.5q-13 0 -23.5 -0.5t-13.5 -0.5t-13.5 0.5t-25.5 0.5q-14 0 -30.5 0.5t-31.5 0.5q-14 0 -14 -7t7 -7q6 0 15.5 -0.5t14.5 -1.5
q22 -3 28 -15t8 -32q1 -10 1.5 -21.5t0.5 -31.5v-50v-80v-125zM493 730q2 2 3.5 4.5t1.5 4.5t-12 10l-20 15.5l-32 24l-31.5 23.5t-17.5 13q-6 5 -9.5 7.5t-6.5 2.5q-5 0 -16 -10q-4 -4 -20.5 -19l-35.5 -33l-35.5 -33t-20.5 -19q-2 -3 -4 -5.5t-2 -5.5q0 -8 7 -8t18 10
q9 7 20 16.5t22.5 18l22.5 16t20 12.5q10 5 16 5q2 0 10 -4l15 -11l24 -18t25 -21t20 -19q4 -5 8 -5q3 0 9 6z" />
    <glyph glyph-name="udieresis" unicode="&#xfc;" horiz-adv-x="732" 
d="M110 269q0 -47 6 -82t16.5 -61t24.5 -45.5t30 -34.5q23 -22 50.5 -34t53.5 -18t47 -7t32 -1q19 0 41.5 2t46 8.5t48 18.5t48.5 33q26 22 42 52t25 63.5t12 69t3 70.5v91v80v50v31q0 12 1 22q2 21 7.5 32t23.5 15q8 2 12 2h10q7 0 7 7t-14 7q-20 0 -44.5 -1t-29.5 -1
q-2 0 -11.5 0.5t-23.5 0.5q-13 0 -29 0.5t-31 0.5q-14 0 -14 -7t7 -7q6 0 15.5 -0.5t14.5 -1.5q22 -3 28 -15t7 -32q0 -10 0.5 -21.5t1 -31t0.5 -50.5v-80v-107q0 -66 -9.5 -117.5t-40.5 -88.5q-23 -27 -59 -43.5t-77 -16.5q-38 0 -68.5 8.5t-62.5 37.5q-14 13 -26 29.5
t-20.5 41t-13.5 58t-5 79.5v119v80v50q0 20 0.5 31.5t1.5 21.5q2 21 7.5 32.5t22.5 14.5q8 2 12 2h10q8 0 8 7t-15 7q-10 0 -24 -0.5t-28 -0.5q-13 0 -23.5 -0.5t-13.5 -0.5t-13.5 0.5t-25.5 0.5q-14 0 -30.5 0.5t-31.5 0.5q-14 0 -14 -7t7 -7q6 0 15.5 -0.5t14.5 -1.5
q22 -3 28 -15t8 -32q1 -10 1.5 -21.5t0.5 -31.5v-50v-80v-125zM485 715q20 0 32 13t12 33q0 19 -12.5 29.5t-30.5 10.5q-23 0 -33 -14.5t-10 -28.5t9.5 -28.5t32.5 -14.5zM284 715q20 0 32 13t12 33q0 19 -12.5 29.5t-30.5 10.5q-23 0 -33 -14.5t-10 -28.5t9.5 -28.5
t32.5 -14.5z" />
    <glyph glyph-name="ugrave" unicode="&#xf9;" horiz-adv-x="732" 
d="M110 269q0 -47 6 -82t16.5 -61t24.5 -45.5t30 -34.5q23 -22 50.5 -34t53.5 -18t47 -7t32 -1q19 0 41.5 2t46 8.5t48 18.5t48.5 33q26 22 42 52t25 63.5t12 69t3 70.5v91v80v50v31q0 12 1 22q2 21 7.5 32t23.5 15q8 2 12 2h10q7 0 7 7t-14 7q-20 0 -44.5 -1t-29.5 -1
q-2 0 -11.5 0.5t-23.5 0.5q-13 0 -29 0.5t-31 0.5q-14 0 -14 -7t7 -7q6 0 15.5 -0.5t14.5 -1.5q22 -3 28 -15t7 -32q0 -10 0.5 -21.5t1 -31t0.5 -50.5v-80v-107q0 -66 -9.5 -117.5t-40.5 -88.5q-23 -27 -59 -43.5t-77 -16.5q-38 0 -68.5 8.5t-62.5 37.5q-14 13 -26 29.5
t-20.5 41t-13.5 58t-5 79.5v119v80v50q0 20 0.5 31.5t1.5 21.5q2 21 7.5 32.5t22.5 14.5q8 2 12 2h10q8 0 8 7t-15 7q-10 0 -24 -0.5t-28 -0.5q-13 0 -23.5 -0.5t-13.5 -0.5t-13.5 0.5t-25.5 0.5q-14 0 -30.5 0.5t-31.5 0.5q-14 0 -14 -7t7 -7q6 0 15.5 -0.5t14.5 -1.5
q22 -3 28 -15t8 -32q1 -10 1.5 -21.5t0.5 -31.5v-50v-80v-125zM436 715q9 0 9 5q0 3 -5.5 6t-13.5 8l-31.5 21.5t-30 22l-23.5 18.5t-13 11q-7 7 -9 11.5t-6 4.5q-3 0 -6.5 -1.5t-9.5 -3.5q-9 -4 -26.5 -9l-33.5 -10q-11 -3 -11 -8q0 -6 29 -17q4 -2 17.5 -6.5t32.5 -11.5
t40 -14l39.5 -13t32.5 -10t19 -4z" />
    <glyph glyph-name="yacute" unicode="&#xfd;" horiz-adv-x="576" 
d="M255 145v-35t-2 -50q-2 -19 -7 -30.5t-19 -14.5q-6 -2 -13 -3t-13 -1q-7 0 -7 -7t14 -7q10 0 24 0.5l27.5 1t23 1t11.5 0.5t12.5 -0.5t26.5 -1t35 -1t37 -0.5q14 0 14 7t-7 7q-6 0 -18.5 1t-21.5 3q-20 3 -26 14.5t-8 30.5q-2 26 -2.5 50t-0.5 35v73v41q0 21 11 44
q4 9 16.5 30l29 48.5l35.5 57.5l36.5 57l32 47.5t21.5 29.5q14 17 22.5 25.5t21.5 16.5q11 6 22 8.5t19 2.5q5 0 8 3t3 6q0 5 -11 5q-6 0 -19.5 -0.5t-27.5 -0.5t-25.5 -0.5t-13.5 -0.5q-5 0 -24.5 1t-36.5 1q-14 0 -14 -5q0 -7 13 -10q14 -4 14 -22q0 -8 -3.5 -19
t-11.5 -25l-15 -25.5l-25.5 -43l-31 -51.5l-31 -52l-26 -45t-15.5 -29l-160 265q-5 8 -8.5 16t-3.5 17t11 14q14 5 14 9q0 3 -2 4.5t-10 1.5q-26 0 -48.5 -1t-27.5 -1q-2 0 -13 0.5t-26 0.5q-14 0 -28 0.5t-20 0.5q-11 0 -11 -6q0 -8 9 -8q5 0 16 -3t21 -9q12 -8 27 -23
t31 -39l21 -33l31 -48.5l34.5 -54l32.5 -51.5l25 -40.5t12 -19.5q10 -18 14.5 -35.5t4.5 -51.5v-73zM416 818q-6 9 -10 9t-9.5 -2.5t-18.5 -10.5q-3 -2 -19.5 -11.5l-38 -23l-43.5 -27.5t-35 -23q-7 -4 -7 -8q0 -6 5 -6q3 0 15 5t30.5 11.5t39.5 12.5t42.5 11t39.5 7
q13 2 20.5 1t9.5 -1q3 0 5.5 2.5t-1.5 9.5l-14 25.5z" />
    <glyph glyph-name="ydieresis" unicode="&#xff;" horiz-adv-x="576" 
d="M255 145v-35t-2 -50q-2 -19 -7 -30.5t-19 -14.5q-6 -2 -13 -3t-13 -1q-7 0 -7 -7t14 -7q10 0 24 0.5l27.5 1t23 1t11.5 0.5t12.5 -0.5t26.5 -1t35 -1t37 -0.5q14 0 14 7t-7 7q-6 0 -18.5 1t-21.5 3q-20 3 -26 14.5t-8 30.5q-2 26 -2.5 50t-0.5 35v73v41q0 21 11 44
q4 9 16.5 30l29 48.5l35.5 57.5l36.5 57l32 47.5t21.5 29.5q14 17 22.5 25.5t21.5 16.5q11 6 22 8.5t19 2.5q5 0 8 3t3 6q0 5 -11 5q-6 0 -19.5 -0.5t-27.5 -0.5t-25.5 -0.5t-13.5 -0.5q-5 0 -24.5 1t-36.5 1q-14 0 -14 -5q0 -7 13 -10q14 -4 14 -22q0 -8 -3.5 -19
t-11.5 -25l-15 -25.5l-25.5 -43l-31 -51.5l-31 -52l-26 -45t-15.5 -29l-160 265q-5 8 -8.5 16t-3.5 17t11 14q14 5 14 9q0 3 -2 4.5t-10 1.5q-26 0 -48.5 -1t-27.5 -1q-2 0 -13 0.5t-26 0.5q-14 0 -28 0.5t-20 0.5q-11 0 -11 -6q0 -8 9 -8q5 0 16 -3t21 -9q12 -8 27 -23
t31 -39l21 -33l31 -48.5l34.5 -54l32.5 -51.5l25 -40.5t12 -19.5q10 -18 14.5 -35.5t4.5 -51.5v-73zM397 715q20 0 32 13t12 33q0 19 -12.5 29.5t-30.5 10.5q-23 0 -33 -14.5t-10 -28.5t9.5 -28.5t32.5 -14.5zM196 715q20 0 32 13t12 33q0 19 -12.5 29.5t-30.5 10.5
q-23 0 -33 -14.5t-10 -28.5t9.5 -28.5t32.5 -14.5z" />
    <glyph glyph-name="zcaron" unicode="&#x17e;" horiz-adv-x="609" 
d="M172 37l196 288.5l193 290.5q3 4 4 8t1 7q0 7 -18 7h-246h-56t-98 2q-17 1 -24 3.5t-13 2.5q-7 0 -8 -16q-2 -10 -5 -27.5l-6 -35t-5 -32t-2 -18.5q0 -11 5 -11q4 0 7 2.5t5 12.5q2 15 14.5 35t35.5 32q21 11 56 12.5t69 1.5h186l-187 -284l-196 -285q-8 -12 -10 -17.5
t-2 -8.5q0 -7 16 -7q116 0 227.5 -2t222.5 -2q15 0 18.5 3t7.5 19l5 20.5t6 26.5t5 27.5t2 23.5q0 12 -1.5 15.5t-5.5 3.5q-7 0 -10 -13q-2 -9 -6.5 -23.5t-11.5 -22.5q-8 -9 -17 -16t-24 -12.5t-38 -8t-58 -2.5h-234zM198 805q-2 -2 -3.5 -4.5t-1.5 -4.5t12 -10l20 -15.5
l32 -24l31.5 -23.5t17.5 -13q11 -10 15 -10q6 0 17 10q4 4 20.5 19l35.5 33l35.5 33t20.5 19q2 3 4 5.5t2 5.5q0 8 -7 8t-18 -10l-20 -17t-22.5 -17.5l-22.5 -16.5t-20 -12q-10 -5 -16 -5q-2 0 -10 4q-5 2 -16 10t-23.5 18.5l-25 21.5t-19.5 19q-4 5 -8 5q-3 0 -9 -6z" />
    <glyph glyph-name="exclamsmall" unicode="&#xf721;" horiz-adv-x="320" 
d="M143 206q2 -29 4.5 -40.5t10.5 -11.5t9.5 10.5t2.5 21.5q0 6 2 39.5t4.5 81l5.5 101.5t5 100.5t4 79.5t2 37q4 56 9.5 91.5t5.5 40.5q0 10 -6 10q-5 0 -15 -5q-21 -11 -42 -30.5t-32 -37.5q-5 -8 -5 -14q0 -4 1 -8.5t3 -10.5q3 -12 5.5 -40.5t4.5 -60l3.5 -57t1.5 -31.5z
M160 -17q23 0 37.5 15.5t14.5 38.5q0 22 -14.5 35t-36.5 13q-27 0 -39 -17.5t-12 -33.5q0 -17 12 -34t38 -17z" />
    <glyph glyph-name="ampersandsmall" unicode="&#xf726;" horiz-adv-x="713" 
d="M270 -14q51 0 90.5 11.5t68 26.5t46 30t25.5 23q38 -28 63 -44t45 -24t38.5 -10t44.5 -2h90q6 0 11 2t5 4q0 6 -13 6q-25 0 -56.5 11t-53.5 23q-20 11 -50.5 29.5t-76.5 54.5q15 17 31 41t29.5 50.5t22 54.5t8.5 54q0 7 -2.5 11.5t-13.5 5.5q-39 5 -66 5.5t-44 0.5
q-5 0 -10 -1.5t-5 -4.5q0 -6 11 -6t23.5 -2.5t21.5 -10.5q11 -10 14 -21t3 -21q0 -39 -13.5 -78t-33.5 -63l-35 29.5l-51 43.5l-51 45t-36 34q-36 36 -62.5 65.5t-44.5 55t-26.5 49t-8.5 48.5q0 30 10 50.5t26 33.5t36 18.5t41 5.5q30 0 52.5 -10.5t37.5 -25.5
q17 -17 24 -35.5t7 -35.5q0 -10 0.5 -13t4.5 -3q3 0 5 2.5t4 12.5q1 5 2.5 17t2.5 26.5t1.5 29t0.5 24.5q0 8 -2 12.5t-10 9.5q-19 10 -48 15.5t-64 5.5q-46 0 -82.5 -15t-62 -38t-39 -50.5t-13.5 -52.5q0 -29 9.5 -57t35.5 -61q-27 -15 -52.5 -35t-45 -45.5t-31.5 -56.5
t-12 -68q0 -28 12.5 -60.5t39.5 -60.5t69.5 -47t102.5 -19zM302 33q-39 0 -72 13t-57 37t-37.5 57t-13.5 73q0 51 21.5 86t57.5 57q10 -13 24.5 -30l30 -33.5l30 -31.5l23.5 -24t29 -27l44 -39l49 -41.5l45 -35.5q-23 -23 -66 -42t-108 -19z" />
    <glyph glyph-name="zerooldstyle" unicode="&#xf730;" horiz-adv-x="618" 
d="M61 301q0 -49 12 -104.5t40 -103t74 -79t114 -31.5q61 0 108.5 27t80.5 75t50.5 113t17.5 142q0 49 -12 104.5t-40 102.5t-74.5 78t-115.5 31q-62 0 -109.5 -27t-79.5 -74t-49 -112.5t-17 -141.5zM141 336q0 67 11 120.5t31.5 91t49.5 57.5t64 20q47 0 81 -29.5t56.5 -76
t33 -103.5t10.5 -112q0 -66 -11.5 -120t-32.5 -91.5t-50 -58t-64 -20.5q-48 0 -81.5 29.5t-55.5 76t-32 103.5t-10 113z" />
    <glyph glyph-name="oneoldstyle" unicode="&#xf731;" horiz-adv-x="470" 
d="M293 374q0 115 2.5 184.5t2.5 75.5q0 8 -2 14.5t-8 6.5q-5 0 -11 -3.5t-13 -8.5l-193 -129q-7 -5 -7 -10q0 -3 2 -6t4 -3q5 0 12 4q9 4 25.5 12.5t33.5 16t32.5 13.5t22.5 6q12 0 15 -8t3 -23q0 -42 0.5 -76.5t0.5 -75.5v-123v-63q0 -24 -0.5 -41.5t-1 -32t-1.5 -30.5
q-2 -23 -9.5 -36.5t-32.5 -18.5q-7 -2 -19 -3l-24 -2t-22.5 -1.5t-14.5 -0.5q-8 0 -8 -8q0 -7 16 -7q24 0 50 0.5t48.5 1t37.5 1t17 0.5t14 -0.5t31.5 -1t45 -1t53.5 -0.5q17 0 17 7q0 8 -8 8q-3 0 -12 0.5t-19 1.5l-19.5 2t-15.5 2q-24 5 -30.5 19t-9.5 37q-2 16 -3 30.5
t-1.5 32t-0.5 41.5v63v133z" />
    <glyph glyph-name="twooldstyle" unicode="&#xf732;" horiz-adv-x="555" 
d="M417 0q32 0 45.5 5t19.5 23q4 12 9 30.5t9.5 37t8 34.5t3.5 22q0 4 -1 9t-5 5q-8 0 -12 -14q-9 -37 -35.5 -59.5t-81.5 -27.5q-14 -1 -40 -2t-53 -1.5t-49.5 -1t-28.5 -0.5h-72q-8 0 -2 5l74.5 49t78 56t74 64t62.5 73.5t43 84.5t16 97q0 37 -14 67.5t-42.5 52.5
t-71 34.5t-99.5 12.5q-61 0 -104.5 -11t-71.5 -22q-7 -4 -8.5 -6.5t-1.5 -6.5q0 -11 1 -29l2 -35.5t2 -31.5t1 -17q1 -12 8 -12q9 0 9 14q0 55 37 87q22 20 45.5 27t59.5 7q25 0 53.5 -4.5t52.5 -20t39.5 -45t15.5 -78.5q0 -70 -33 -130.5t-84 -113.5t-113 -101l-121 -92
q-6 -5 -12 -11t-6 -11t4.5 -9t9.5 -4h379z" />
    <glyph glyph-name="threeoldstyle" unicode="&#xf733;" horiz-adv-x="541" 
d="M391 171q0 -38 -12.5 -65.5t-35 -45t-53 -26t-65.5 -8.5q-37 0 -62 8t-41.5 22.5t-24.5 34.5t-11 45q-1 12 -7 12q-7 0 -8 -13q-2 -14 -4 -45.5t-2 -61.5q0 -8 2.5 -13t12.5 -11q7 -4 20.5 -7.5t29.5 -6.5t33 -5t31 -2q62 0 113.5 18t89 48t58 70t20.5 85q0 37 -16 65.5
t-40 49t-51.5 33t-49.5 17.5v5q10 4 31.5 17t42.5 32.5t37 46t16 58.5q0 16 -8 38t-28.5 42t-57 34t-93.5 14q-52 0 -90.5 -9.5t-59.5 -19.5q-8 -5 -10 -8.5t-2 -9.5q0 -15 1.5 -40t4.5 -45q1 -10 7 -10q2 0 4.5 1.5t2.5 8.5q0 50 32.5 73t83.5 23q41 0 66.5 -12t40 -29.5
t19.5 -36.5t5 -32q0 -38 -16 -64.5t-39 -44.5t-48 -27.5t-42 -12.5q-9 -2 -15 -3.5t-6 -6.5t5 -7t19 -4q23 -4 52.5 -15t55.5 -30.5t44 -50t18 -73.5z" />
    <glyph glyph-name="fouroldstyle" unicode="&#xf734;" horiz-adv-x="575" 
d="M411 503v41t0.5 42t0.5 35v20q0 15 -9 15q-8 0 -19 -16q-7 -10 -34.5 -44.5l-64 -80.5l-78 -96.5l-76 -93.5l-58 -72t-24.5 -30q-3 -4 -6 -9t-3 -10q0 -11 19 -11h283q0 -23 0.5 -57.5t-2.5 -65.5q-2 -21 -9 -36.5t-30 -19.5q-11 -2 -24 -2h-18q-7 0 -7 -8q0 -7 14 -7
q38 0 69 1.5t36 1.5q2 0 13 -0.5t27.5 -1t35.5 -1t38 -0.5q14 0 14 7q0 8 -8 8q-7 0 -18.5 0.5t-21.5 2.5q-22 5 -29.5 19.5t-9.5 35.5q-3 31 -2 65.5t1 57.5h83q8 0 11.5 2.5t7.5 9.5q3 8 5.5 22t2.5 18q0 10 -5 10q-3 0 -11 -4.5t-26 -4.5h-68v257zM342 246h-234
q4 6 22 28l42.5 52l52.5 64l52.5 64l42 52t20.5 28h2v-288z" />
    <glyph glyph-name="fiveoldstyle" unicode="&#xf735;" horiz-adv-x="540" 
d="M178 579h179q28 0 44.5 -4.5t25.5 -12.5t11.5 -19.5t2.5 -24.5q0 -12 5 -12q6 0 8 10q7 52 9.5 82.5t2.5 37.5q0 6 -1.5 7.5t-4.5 1.5q-2 0 -7 -1t-13 -2q-17 -3 -55 -3h-224q-17 0 -18 -13l-20 -226q-2 -16 25 -17q27 -2 68.5 -12.5t79.5 -34.5t65.5 -63t27.5 -96
q0 -49 -15 -79t-38.5 -46t-53.5 -21.5t-60 -5.5q-26 0 -49.5 4.5t-41.5 18t-28.5 37.5t-10.5 62q0 16 -7 16q-6 0 -9 -17q-2 -11 -3 -26.5t-1 -32.5v-32v-28q0 -7 3 -13.5t15 -13.5q18 -10 42.5 -13.5t45.5 -3.5q72 0 125.5 18.5t89 50t53 73.5t17.5 88q0 63 -29.5 105.5
t-73.5 69t-96.5 40.5t-97.5 21z" />
    <glyph glyph-name="sixoldstyle" unicode="&#xf736;" horiz-adv-x="558" 
d="M416 153q0 -38 -10 -64t-27.5 -42t-41 -23t-50.5 -7q-39 0 -67.5 17t-47 45.5t-27.5 65.5t-9 78q0 82 21 146.5t54.5 114.5t76 86.5t86.5 60.5q7 4 12 8t5 9q0 8 -7 8t-19 -6q-66 -29 -122 -74.5t-97 -101.5t-64.5 -120t-23.5 -131q0 -63 15.5 -108t43.5 -74.5t67 -43.5
t86 -14q51 0 87.5 14.5t68.5 46.5q30 30 47.5 63.5t17.5 87.5q0 31 -10.5 62t-33 56t-56.5 40.5t-81 15.5q-38 0 -64.5 -11t-40.5 -21q-8 -6 -8 -12q0 -7 3 -7q2 0 6 1.5t6 2.5q16 8 33.5 10.5t34.5 2.5q21 0 44.5 -10.5t44 -32.5t34 -56.5t13.5 -82.5z" />
    <glyph glyph-name="sevenoldstyle" unicode="&#xf737;" horiz-adv-x="550" 
d="M167 638q-47 0 -66 4t-24 4q-10 0 -10 -12q0 -3 -2 -20.5t-5 -39.5t-5 -43.5t-2 -31.5q0 -14 6 -14t8 12q2 18 12 36.5t25 29.5q17 13 42 17t46 4h234q-54 -84 -99.5 -167t-82 -157t-62.5 -136t-40 -104q-5 -13 -5 -29q0 -8 8 -8q7 0 22.5 5.5t31 13.5t27.5 17t12 15
q0 7 -1 13t1 17q3 27 17.5 71.5t36 97t47 109t52 108.5t51.5 95t44 68q4 5 5 9.5t1 6.5q0 9 -17 9h-308z" />
    <glyph glyph-name="eightoldstyle" unicode="&#xf738;" horiz-adv-x="583" 
d="M74 149q0 -39 17 -69.5t45.5 -52t67 -33t82.5 -11.5q50 0 90.5 15t69.5 41t45 59.5t16 71.5q0 39 -16.5 69.5t-41.5 53t-53 38.5t-51 27q19 9 42.5 23t44 34.5t34 47.5t13.5 61q0 31 -13 56t-36 41.5t-54.5 25.5t-67.5 9q-51 0 -88.5 -15t-61.5 -37.5t-36 -50t-12 -51.5
q0 -28 10 -51.5t27.5 -43t41.5 -36t51 -31.5q-32 -12 -62 -29.5t-53 -41.5t-37 -54t-14 -66zM293 15q-33 0 -60 11.5t-46.5 31t-30 45.5t-10.5 54q0 32 10 58t27 47t40 36.5t49 27.5l61 -31t52.5 -36.5t36.5 -46.5t14 -61q0 -28 -10.5 -53t-29 -43.5t-45 -29t-58.5 -10.5z
M297 627q54 0 85 -32t31 -81q0 -33 -10.5 -56.5t-25.5 -40.5t-32.5 -28t-30.5 -18q-29 14 -54 28.5t-43.5 32t-29.5 38.5t-11 48q0 18 7 37.5t22 35t37.5 26t54.5 10.5z" />
    <glyph glyph-name="nineoldstyle" unicode="&#xf739;" horiz-adv-x="590" 
d="M152 483q0 38 10 64.5t28 43t42 23.5t51 7q39 0 68 -17.5t47.5 -46.5t27.5 -66.5t9 -78.5q0 -83 -21 -148t-55 -115.5t-77 -86.5t-87 -61q-7 -4 -12.5 -7.5t-5.5 -8.5q0 -10 8 -10q5 0 19 7q66 29 123 74.5t98.5 102t65 121t23.5 132.5q0 63 -15.5 109t-43.5 76
t-67.5 44.5t-87.5 14.5q-51 0 -88.5 -15t-69.5 -47q-30 -30 -47.5 -64t-17.5 -89q0 -31 10.5 -62t33 -56.5t57 -41.5t82.5 -16q38 0 65 11t41 21q8 6 8 11q0 7 -4 7q-2 0 -6 -1t-6 -2q-16 -8 -33 -10t-35 -2q-21 0 -45 10.5t-45 32.5t-34.5 57t-13.5 83z" />
    <glyph glyph-name="questionsmall" unicode="&#xf73f;" horiz-adv-x="488" 
d="M223 733q34 0 56.5 -13.5t36 -33t19 -42t5.5 -40.5q0 -25 -4 -48.5t-14 -48t-27 -52.5t-43 -61q-17 -21 -34.5 -40.5t-34.5 -42.5q-22 -28 -22 -50q0 -14 7 -27t22 -32q9 -11 22 -23t20 -12q3 0 7 3t4 6q0 5 -9 17q-11 14 -15 27t-4 24q0 6 1 13t5.5 16t12.5 21t22 30
q36 45 67.5 79t54.5 65.5t36.5 65t13.5 77.5q0 27 -9.5 54.5t-31.5 50t-56.5 37t-83.5 14.5q-58 0 -100.5 -13t-65.5 -27q-8 -5 -9.5 -8t-1.5 -8v-33t0.5 -35t1.5 -30.5t2 -18.5q1 -10 8 -10q6 0 8 17q2 26 9.5 48.5t25.5 44.5q12 15 36.5 27t61.5 12zM224 -17
q23 0 37.5 15.5t14.5 38.5q0 22 -14.5 35t-36.5 13q-27 0 -39 -17.5t-12 -33.5q0 -17 12 -34t38 -17z" />
    <glyph glyph-name="Asmall" unicode="&#xf761;" horiz-adv-x="624" 
d="M82 91q-13 -32 -28.5 -53t-45.5 -25q-5 -1 -13 -1.5t-13 -0.5q-8 0 -8 -7t17 -7q13 0 27.5 0.5t27 1t22 1t12.5 0.5q4 0 13.5 -0.5t21.5 -1l24 -1t20 -0.5q13 0 13 7t-9 7h-8q-11 0 -20.5 5t-9.5 18q0 23 13 57l50 136q3 7 9 7h203q5 0 8 -5l79 -195q5 -11 0.5 -16
t-8.5 -7q-3 -2 -4.5 -2.5t-1.5 -3.5q0 -4 9 -4.5t22 -1.5q23 -1 45.5 -1.5t41.5 -0.5h33h19q8 0 14 1.5t6 5.5t-3.5 5.5t-7.5 1.5q-7 0 -16 1t-19 4q-7 2 -15 6t-17.5 14t-20 27t-22.5 46l-33.5 80.5l-41.5 102.5l-44.5 109.5l-41.5 102l-32.5 79.5t-17.5 42
q-7 14 -10.5 22.5t-10.5 8.5q-5 0 -9 -6t-12 -27zM209 269q-5 0 -3 6l82 233q7 19 15 0l87 -233q1 -6 -3 -6h-178z" />
    <glyph glyph-name="Bsmall" unicode="&#xf762;" horiz-adv-x="614" 
d="M155 244q0 -62 -0.5 -110t-4.5 -74q-3 -19 -6.5 -32t-16.5 -15q-6 -1 -13.5 -2.5t-13.5 -1.5q-7 0 -7 -5q0 -7 14 -7q10 0 24.5 0.5l28 1t24 1t12.5 0.5q3 0 19.5 -0.5t37.5 -1.5q21 -2 42.5 -2.5t33.5 -0.5q56 0 97.5 16t69 42.5t41 60.5t13.5 70t-15 65.5t-37.5 51.5
t-50 37t-52.5 23l33 30.5t28.5 33.5t20 39t7.5 46q0 17 -8 39.5t-29 42.5t-57 34t-91 14q-31 0 -59 -1t-44 -1q-2 0 -12.5 0.5t-25.5 0.5t-32 0.5t-32 0.5q-14 0 -14 -7q0 -5 7 -5q6 0 15.5 -0.5t14.5 -1.5q22 -3 28 -15t8 -34q1 -10 1.5 -21.5t0.5 -31.5v-50v-80v-150z
M231 600q0 6 11 9q11 2 24 3t21 1q33 0 56.5 -12.5t38.5 -32t22 -44t7 -48.5q0 -31 -10 -53t-24 -38q-14 -15 -31.5 -18.5t-54.5 -3.5q-25 0 -37.5 1.5t-16.5 2.5q-6 1 -6 9v224zM231 329q0 6 5 6h15h20q11 0 20.5 -0.5t13.5 -1.5q16 -3 36 -5.5t43 -16.5q26 -17 42.5 -37.5
t25.5 -42t12.5 -41.5t3.5 -34q0 -41 -12 -66.5t-31 -40t-41.5 -19.5t-44.5 -5q-12 0 -35.5 2t-41.5 10q-10 5 -15.5 10t-8.5 11.5t-4 17t-2 25.5q0 5 -0.5 24.5t-0.5 45.5v56v55v47z" />
    <glyph glyph-name="Csmall" unicode="&#xf763;" horiz-adv-x="708" 
d="M452 -14q43 0 87.5 4t71.5 15q11 5 14.5 9t7.5 16q3 11 7 28.5t7 34.5t5 30.5t2 15.5q0 5 -2.5 8.5t-5.5 3.5q-5 0 -6 -2.5t-3 -9.5q-2 -12 -11 -34.5t-23 -36.5q-26 -26 -60.5 -33t-84.5 -7q-71 0 -129 25t-100 67.5t-65 98.5t-23 117q0 65 15 121t64 101
q12 11 28.5 21.5t40 19t55.5 13.5t74 5q59 0 104.5 -13.5t68.5 -33.5q17 -14 27 -37t10 -48q0 -18 7 -18q9 0 10 18q0 4 0.5 14.5t0.5 22.5q0 13 0.5 26t0.5 24q2 23 3 33t1 15q0 9 -11 9q-22 1 -43.5 4.5t-46.5 8.5q-32 5 -67 7.5t-61 2.5q-51 0 -91.5 -7t-73 -19.5
t-58 -29t-45.5 -35.5q-29 -29 -48.5 -60.5t-30.5 -62.5t-15.5 -59.5t-4.5 -49.5q0 -30 4.5 -63t16.5 -65.5t33 -64t53 -59.5q52 -45 121 -68t169 -23z" />
    <glyph glyph-name="Dsmall" unicode="&#xf764;" horiz-adv-x="809" 
d="M155 244q0 -62 -0.5 -110t-4.5 -74q-3 -19 -6.5 -30.5t-16.5 -14.5q-6 -2 -13.5 -3t-13.5 -1q-7 0 -7 -7t14 -7q11 0 25 0.5t28 1.5q14 0 24 0.5t12 0.5q3 0 23 -1.5l49 -3.5t61.5 -3.5t61.5 -1.5q56 0 99.5 10t76 24.5t55 31.5t36.5 32q18 19 35.5 43.5t30.5 54.5
t21 65.5t8 75.5q0 76 -26.5 129.5t-59.5 86.5q-39 39 -86.5 59.5t-96 28.5t-93 8.5t-77.5 0.5q-20 0 -39 -0.5t-36 -0.5q-16 0 -27.5 -0.5t-15.5 -0.5q-2 0 -12.5 0.5t-25.5 0.5t-32 0.5t-32 0.5q-14 0 -14 -7t7 -7q6 0 15.5 -0.5t14.5 -1.5q22 -3 28 -14t8 -33
q1 -10 1.5 -21.5t0.5 -31.5v-50v-80v-150zM235 586q0 13 11 17q6 2 23 4t30 2q39 0 77 -3t74 -13t69.5 -29t64.5 -50q13 -14 28 -33.5t27 -46t20 -60t8 -73.5q0 -29 -4.5 -58.5t-13 -56t-21.5 -49t-30 -38.5q-40 -38 -92.5 -57.5t-113.5 -19.5q-39 0 -65 3t-42.5 8t-25.5 11
t-13 12q-5 7 -7 26t-3 35q0 6 -0.5 23t-0.5 41v56v65v284z" />
    <glyph glyph-name="Esmall" unicode="&#xf765;" horiz-adv-x="551" 
d="M155 244q0 -62 -0.5 -110t-4.5 -74q-3 -19 -6.5 -31t-16.5 -14q-6 -1 -13.5 -2.5t-13.5 -1.5q-7 0 -7 -7t14 -7q11 0 24.5 0.5t26.5 1.5q14 1 25 1h13h27q18 0 46 -2q27 -1 65 -2t88 -1q13 0 21.5 0.5t13.5 2.5t8.5 6.5t5.5 12.5q2 7 4 19.5l4 26t3 24t1 12.5q0 5 -1 9
t-5 4q-6 0 -9 -13q-4 -26 -13.5 -38.5t-26.5 -20.5q-17 -7 -44 -8t-44 -1q-33 0 -53 2.5t-31.5 10t-15.5 21t-5 34.5v25v43v44v33v71q0 6 6 6h24t39 -0.5t41 -1.5t29 -2q26 -3 34.5 -10t10.5 -16q3 -8 3.5 -15t0.5 -13q0 -8 6 -8q5 0 6.5 5.5t1.5 10.5t1 23.5t3 31.5
q2 21 4.5 32t2.5 15q0 7 -5 7q-2 0 -13 -11q-7 -7 -17 -8.5t-26 -3.5q-8 -1 -30 -1.5t-47 -0.5h-46h-24q-5 0 -5 9v231q0 9 5 9h22t39.5 -0.5t40.5 -1t25 -1.5q18 -2 29 -4.5t18 -5.5t10.5 -7t5.5 -9q3 -8 4 -16.5t1 -13.5q0 -11 7 -11q3 0 5 3t3 6q1 4 1.5 12t1.5 17
t1.5 16.5t0.5 10.5q2 18 4.5 26.5t2.5 13.5q0 8 -4 8q-3 0 -6 -1.5t-6 -2.5q-5 -1 -16 -2.5t-24 -2.5h-22h-40h-49h-47h-36h-16q-2 0 -12.5 0.5t-25.5 0.5t-32 0.5t-32 0.5q-14 0 -14 -7t7 -7q6 0 15.5 -0.5t14.5 -1.5q22 -3 28 -14t8 -33q1 -10 1.5 -21.5t0.5 -31.5v-50
v-80v-150z" />
    <glyph glyph-name="Fsmall" unicode="&#xf766;" 
d="M155 244q0 -62 -0.5 -110t-4.5 -74q-3 -19 -6.5 -31t-16.5 -14q-6 -1 -13.5 -2.5t-13.5 -1.5q-7 0 -7 -7t14 -7q10 0 24 0.5l27.5 1t23.5 1t12 0.5q1 0 11.5 -0.5t26.5 -1t35 -1t37 -0.5q14 0 14 7t-7 7q-6 0 -18 1t-22 3q-18 3 -24 14.5t-8 30.5q-3 25 -3.5 73t-0.5 111
v68q0 8 6 8h25h43t44 -0.5t29 -1.5q20 -3 31 -10.5t14 -16.5q3 -8 4 -16t2 -15q0 -8 6 -8q5 0 6.5 5.5t1.5 11.5q0 5 0.5 24.5t2.5 32.5q2 21 5 32t3 15q0 7 -5 7q-4 0 -11 -9q-6 -8 -15.5 -10.5t-25.5 -4.5q-9 -1 -19 -1h-21l-120 -1q-5 0 -5.5 2t-0.5 6v232q0 9 7 9
l144 -2q26 0 41 -8.5t19 -16.5t6 -17.5t2 -14.5q0 -10 7 -10q3 0 5 3t3 6q1 4 1.5 12t1 17t1 16.5t0.5 10.5q2 18 4.5 26.5t2.5 13.5q0 8 -6 8q-2 0 -5 -2t-7 -3q-6 -2 -16.5 -2.5t-23.5 -1.5h-23h-41h-51h-51h-41h-21q-2 0 -12 0.5t-25 0.5q-14 0 -31 0.5t-32 0.5
q-14 0 -14 -7t7 -7q6 0 15.5 -0.5t14.5 -1.5q22 -3 28 -14t8 -33q1 -10 1.5 -21.5t0.5 -31.5v-50v-80v-150z" />
    <glyph glyph-name="Gsmall" unicode="&#xf767;" horiz-adv-x="759" 
d="M569 67q0 -12 -5 -16.5t-13 -9.5q-17 -10 -44.5 -13t-50.5 -3q-61 0 -116.5 20t-108.5 69q-12 11 -28 32t-30.5 51t-24.5 68.5t-10 83.5q0 75 24.5 130t62.5 84q50 38 97 46.5t87 8.5q86 0 136 -21t67 -45q11 -15 15 -31.5t5 -24.5q0 -13 6 -13q5 0 7.5 3.5t2.5 14.5
q0 32 1 53t1.5 34.5t1.5 20.5t1 12q0 8 -11 8q-17 0 -37 3t-34 6l-20 3.5t-32.5 5t-40 4t-42.5 1.5q-51 0 -112.5 -9t-121.5 -45q-29 -18 -56 -44.5t-47 -61.5t-32 -78.5t-12 -94.5q0 -40 9 -76.5t23.5 -67.5t33.5 -56t39 -42q37 -31 77.5 -49t79.5 -27.5t73.5 -12
t59.5 -2.5q19 0 43 2t49 6.5t49.5 11.5t45.5 18q8 4 10 10.5t2 35.5v95v47q0 21 1 41q2 23 8.5 33.5t24.5 13.5q8 2 12 2h10q7 0 7 7t-14 7q-10 0 -24 -0.5t-28 -0.5q-13 0 -23 -0.5t-11 -0.5q-2 0 -13 0.5t-26 0.5t-32.5 0.5t-32.5 0.5q-14 0 -14 -7t7 -7q6 0 15.5 -0.5
t14.5 -1.5q13 -3 21 -7t11.5 -13t4.5 -24.5t1 -41.5v-147z" />
    <glyph glyph-name="Hsmall" unicode="&#xf768;" horiz-adv-x="847" 
d="M692 394v80v50q0 20 0.5 31.5t1.5 21.5q2 23 7.5 33t22.5 14q8 2 12 2h10q8 0 8 7t-15 7q-10 0 -24 -0.5t-28 -0.5q-13 0 -23 -0.5t-12 -0.5t-12 0.5t-25 0.5t-31.5 0.5t-31.5 0.5q-14 0 -14 -7t7 -7q6 0 15.5 -0.5t14.5 -1.5q22 -3 27.5 -14t7.5 -33q0 -10 0.5 -21.5
t1 -31.5t0.5 -52v-80v-18q0 -5 -5 -5h-367q-5 0 -5 5v18v80v52t0.5 31.5t0.5 21.5q2 23 7.5 33t23.5 14q8 2 12 2h10q7 0 7 7t-14 7q-10 0 -24.5 -0.5t-28.5 -0.5q-13 0 -23 -0.5t-11 -0.5q-2 0 -12.5 0.5t-25.5 0.5q-14 0 -31 0.5t-32 0.5q-14 0 -14 -7t7 -7q6 0 15.5 -0.5
t14.5 -1.5q22 -3 28 -14t8 -33q1 -10 1.5 -21.5t0.5 -31.5v-50v-80v-150q0 -62 -0.5 -110t-4.5 -74q-3 -19 -6.5 -30.5t-16.5 -14.5q-6 -2 -13.5 -3t-13.5 -1q-7 0 -7 -7t14 -7q10 0 24.5 0.5l28 1t23.5 1t12 0.5q1 0 11.5 -0.5t26 -1t34.5 -1t37 -0.5q14 0 14 7t-7 7
q-6 0 -18 1t-22 3q-20 3 -25 14.5t-7 30.5q-3 26 -3.5 73t-0.5 109v85q0 5 5 5h367q5 0 5 -5v-85q0 -62 -0.5 -108.5t-3.5 -72.5q-2 -19 -6 -31t-18 -15q-6 -2 -13 -3t-13 -1q-7 0 -7 -7t14 -7q10 0 24 0.5l27.5 1t23.5 1t12 0.5t12.5 -0.5t26 -1t34 -1t36.5 -0.5q15 0 15 7
t-8 7q-5 0 -17.5 1t-21.5 3q-20 3 -25 14.5t-7 30.5q-3 26 -4 74t-1 110v150z" />
    <glyph glyph-name="Ismall" unicode="&#xf769;" horiz-adv-x="389" 
d="M235 394v80v50q0 20 0.5 31.5t0.5 21.5q2 23 7.5 33t23.5 14q8 2 12 2h10q7 0 7 7t-14 7q-10 0 -24.5 -0.5t-28.5 -0.5q-13 0 -23.5 -0.5t-11.5 -0.5q-2 0 -12 0.5t-24 0.5q-13 0 -27.5 0.5t-25.5 0.5q-14 0 -14 -7t7 -7q5 0 12 -0.5t15 -2.5q14 -3 20 -13.5t8 -32.5
q1 -10 1.5 -21.5t0.5 -31.5v-50v-80v-150q0 -62 -1 -110t-4 -74q-2 -19 -6 -30.5t-17 -14.5q-6 -2 -13.5 -3t-13.5 -1q-7 0 -7 -7t14 -7q10 0 24 0.5l27.5 1t23.5 1t12 0.5q1 0 11.5 -0.5t26.5 -1t35 -1t37 -0.5q14 0 14 7t-7 7q-6 0 -18 1t-22 3q-20 3 -25 14.5t-7 30.5
q-3 26 -3.5 74t-0.5 110v150z" />
    <glyph glyph-name="Jsmall" unicode="&#xf76a;" horiz-adv-x="369" 
d="M235 394v80v50q0 20 0.5 31.5t0.5 21.5q2 23 7.5 33t23.5 14q8 2 12 2h10q7 0 7 7t-14 7q-10 0 -24 -0.5t-28 -0.5q-13 0 -23 -0.5t-11 -0.5q-2 0 -12.5 0.5t-25.5 0.5t-32 0.5t-32 0.5q-14 0 -14 -7t7 -7q6 0 15.5 -0.5t14.5 -1.5q22 -3 28 -14t8 -33q1 -10 1.5 -21.5
t0.5 -31.5v-50v-80v-246q0 -82 -5 -134.5t-15.5 -86.5t-26.5 -56t-37 -43q-6 -5 -14.5 -11.5t-16.5 -11.5q-11 -7 -11 -14q0 -3 2 -4t4 -1t3.5 0.5t2.5 0.5l17 10t19 12q54 35 84.5 66.5t44.5 63.5q10 22 15.5 45t8.5 51.5t4 65.5t1 89v204z" />
    <glyph glyph-name="Ksmall" unicode="&#xf76b;" horiz-adv-x="666" 
d="M155 244q0 -62 -0.5 -110t-4.5 -74q-3 -19 -6.5 -30.5t-16.5 -14.5q-6 -2 -13.5 -3t-13.5 -1q-7 0 -7 -7t14 -7q10 0 24 0.5l27 1t23 1t13 0.5t13 -0.5t25 -1t32 -1t33 -0.5q14 0 14 7t-7 7q-6 0 -15.5 1t-18.5 3q-20 3 -26 14.5t-8 30.5q-3 26 -3.5 74t-0.5 110v83h4
q10 -13 31.5 -36l47.5 -51l55 -58l55.5 -56.5l47 -46.5t30.5 -28l26 -20t24.5 -15.5t26 -11t30.5 -5.5q15 -2 28 -2h33h45q11 0 15 2t4 5q0 7 -11 7q-5 0 -21 2.5t-33 9.5q-16 6 -27 12.5t-24 16t-30 25l-45 40.5q-9 8 -29 27.5l-45 44l-52 52l-51 51.5l-41.5 42l-23.5 24
l19.5 19.5l33.5 33.5l41 40l42 40l34.5 33t20.5 19q29 28 47 44t45 28q13 5 26 8.5t23 3.5q9 0 9 7q0 6 -13 6q-8 0 -21.5 -0.5t-27.5 -0.5q-13 0 -23.5 -0.5t-12.5 -0.5q-16 0 -34 1t-32 1q-10 0 -10 -6t8 -8q11 -2 11 -17q0 -11 -14.5 -26.5l-33.5 -34.5q-8 -9 -25.5 -26
l-39 -38.5l-44.5 -44.5l-43 -43l-34.5 -34.5t-17.5 -18.5h-4v51v80v50q0 20 0.5 31.5t1.5 21.5q2 23 8 33t23 14q8 2 12 2h10q7 0 7 7t-14 7q-10 0 -23.5 -0.5t-26.5 -0.5t-23.5 -0.5t-13.5 -0.5q-2 0 -12 0.5t-25 0.5q-14 0 -30.5 0.5t-31.5 0.5q-14 0 -14 -7t7 -7
q6 0 15.5 -0.5t14.5 -1.5q22 -3 28 -14t8 -33q1 -10 1.5 -21.5t0.5 -31.5v-50v-80v-150z" />
    <glyph glyph-name="Lsmall" unicode="&#xf76c;" 
d="M235 394v80v50q0 20 0.5 31.5t0.5 21.5q2 23 7.5 33.5t25.5 14.5q8 1 16 1.5t13 0.5q7 0 7 6q0 7 -14 7q-10 0 -26 -0.5t-31 -0.5t-27 -0.5t-13 -0.5q-2 0 -12 0.5t-25 0.5q-14 0 -31 0.5t-32 0.5q-14 0 -14 -7t7 -7q6 0 15.5 -0.5t14.5 -1.5q22 -3 28 -14t8 -33
q1 -10 1.5 -21.5t0.5 -31.5v-50v-80v-150q0 -62 -0.5 -110t-4.5 -74q-3 -19 -6.5 -30.5t-16.5 -14.5q-6 -2 -13.5 -3t-13.5 -1q-7 0 -7 -7t14 -7q11 0 24 0.5t27 1.5q13 1 23 1h13q20 0 43 -0.5t53 -1.5q61 -3 153 -3q18 0 28 1t15.5 3t8 6.5t4.5 12.5q3 9 5 22.5l4 26t3 23
t1 13.5q0 13 -6 13q-7 0 -9 -11q-2 -13 -7.5 -25.5t-13.5 -22.5q-16 -19 -43.5 -22.5t-62.5 -3.5q-52 0 -79 4.5t-38 15.5q-6 6 -9.5 19t-5.5 35.5t-2.5 56t-0.5 80.5v152z" />
    <glyph glyph-name="Msmall" unicode="&#xf76d;" horiz-adv-x="924" 
d="M754 629q-3 23 -13 23q-7 0 -14 -14l-256 -527l-266 528q-7 13 -18 13q-8 0 -10 -15l-64 -555q-3 -24 -7.5 -44t-26.5 -24q-10 -2 -15.5 -2.5t-10.5 -0.5q-9 0 -9 -6q0 -8 15 -8q9 0 20.5 0.5l22.5 1t19.5 1t11.5 0.5t11.5 -0.5t20 -1t25 -1t25.5 -0.5q16 0 16 8
q0 6 -7 6q-5 0 -14 1t-20 4q-21 5 -21 24v22t1 21l34 384h4l20.5 -43.5l31.5 -65.5l33.5 -69l26.5 -54q8 -17 22 -44l29 -56l29 -55l23 -42q13 -23 18.5 -31t11.5 -8t11.5 8.5t19.5 36.5l212 434h2l42 -430q2 -12 1 -20.5t-5 -9.5q-6 -2 -6 -7q0 -3 4.5 -5t20.5 -4
q12 -1 34 -2t45.5 -1.5t43 -1t27.5 -0.5t13 2t5 6q0 6 -7 6t-22.5 1t-34.5 7q-14 4 -22 14.5t-13 23t-7 26t-3 24.5z" />
    <glyph glyph-name="Nsmall" unicode="&#xf76e;" horiz-adv-x="833" 
d="M182 514l32.5 -35l53.5 -56.5l67.5 -71l74.5 -78.5l74 -75.5l72 -73l56.5 -56l26.5 -25.5l29.5 -27t19 -15.5t11.5 -7.5t7 -2q2 0 3.5 1.5t2 8t1 18.5t0.5 33l2 498q0 19 1 32t4 21.5t9 13.5t17 7q8 2 13 2h8q5 0 7.5 3t2.5 5q0 6 -16 6q-27 0 -47 -1t-28 -1t-35 1t-57 1
q-17 0 -17 -6q0 -2 1 -5t6 -3t18 -1t25 -3q20 -4 26 -21t7 -58l9 -426l-31.5 33l-50 53l-61 64.5l-65.5 68.5l-99 102l-86 90l-63 66.5l-30 31.5l-16.5 16.5t-17.5 9.5q-5 0 -8.5 -8.5t-3.5 -34.5v-487q0 -29 -1 -48.5t-3.5 -31.5t-7.5 -18t-13 -8q-10 -3 -20.5 -4t-15.5 -1
q-7 0 -7 -7t14 -7q30 0 54.5 1.5t30.5 1.5t30.5 -1.5t62.5 -1.5q16 0 16 7t-7 7q-6 0 -19 1t-25 4q-9 2 -15 7.5t-10 17t-6 29t-3 43.5z" />
    <glyph glyph-name="Osmall" unicode="&#xf76f;" horiz-adv-x="808" 
d="M55 320q0 -57 20 -116.5t62 -108t107 -79t155 -30.5q79 0 144.5 27.5t111.5 74.5t71.5 110.5t25.5 134.5q0 74 -26.5 133t-73 100.5t-110.5 63.5t-138 22q-91 0 -157 -32.5t-108.5 -82t-63 -108t-20.5 -109.5zM146 343q0 69 19 121t52.5 86.5t80 52t101.5 17.5
q52 0 99.5 -20t84 -59t58 -97.5t21.5 -134.5q0 -92 -26 -148.5t-63.5 -87.5t-78 -41.5t-70.5 -10.5q-60 0 -110.5 22.5t-88 64.5t-58.5 101.5t-21 133.5z" />
    <glyph glyph-name="Psmall" unicode="&#xf770;" horiz-adv-x="586" 
d="M155 244q0 -62 -0.5 -110t-4.5 -74q-3 -19 -6.5 -30.5t-16.5 -14.5q-6 -2 -13.5 -3t-13.5 -1q-7 0 -7 -7t14 -7q10 0 24.5 0.5l28 1t23.5 1t11 0.5t12 -0.5t26.5 -1t34.5 -1t37 -0.5q14 0 14 7t-7 7q-6 0 -18 1t-21 3q-20 3 -26.5 14.5t-8.5 30.5q-3 26 -3.5 74t-0.5 110
v346q0 15 7 16q7 2 22.5 4t26.5 2h20q14 0 30 -3.5t34 -12t35 -25.5q18 -17 28 -35.5t15 -36t6 -32.5t1 -25q0 -29 -12 -54t-34 -43.5t-51.5 -29t-65.5 -10.5q-14 0 -18.5 -2t-4.5 -7q0 -3 3 -5.5t6 -2.5q4 -1 12 -1h13q51 0 92.5 14.5t71.5 41t46.5 64t16.5 83.5
q0 35 -14.5 61.5t-29.5 40.5q-6 5 -17 13t-30.5 16t-49 13.5t-71.5 5.5q-15 0 -33.5 -0.5t-36.5 -0.5t-33 -0.5t-22 -0.5q-3 0 -13.5 0.5t-25.5 0.5q-14 0 -31 0.5t-32 0.5q-14 0 -14 -7t7 -7q6 0 15.5 -0.5t14.5 -1.5q22 -3 28 -14t8 -33q1 -10 1.5 -21.5t0.5 -31.5v-50
v-80v-150z" />
    <glyph glyph-name="Qsmall" unicode="&#xf771;" horiz-adv-x="810" 
d="M684 -67q107 -58 195 -85t169 -27q49 0 91.5 6t78.5 15t63.5 19.5t46.5 18.5q7 3 7 9q0 2 -1.5 4t-3.5 2q-4 0 -13 -3q-46 -17 -92.5 -25t-79.5 -8q-17 0 -49.5 2.5t-79.5 12t-107.5 29.5t-132.5 56l-180 89q22 13 49 38.5t50.5 61.5t39.5 82.5t16 102.5q0 74 -26.5 133
t-73 100.5t-110.5 63.5t-138 22q-91 0 -157 -32.5t-108.5 -82t-63 -108t-20.5 -109.5q0 -57 19.5 -116.5t61.5 -108t107.5 -79t156.5 -30.5q18 0 37 2t38 5t35.5 8t28.5 11zM144 343q0 70 19 122t52.5 86.5t80 51.5t101.5 17q52 0 100 -20t84.5 -59.5t58 -97.5t21.5 -134
q0 -61 -12 -106.5t-32 -77.5t-45.5 -52t-52 -31.5t-52 -16t-45.5 -4.5q-60 0 -110.5 22.5t-88 64.5t-58.5 101.5t-21 133.5z" />
    <glyph glyph-name="Rsmall" unicode="&#xf772;" horiz-adv-x="672" 
d="M155 244q0 -62 -0.5 -110t-4.5 -74q-3 -19 -6.5 -30.5t-16.5 -14.5q-6 -2 -13.5 -3t-13.5 -1q-7 0 -7 -7t14 -7q10 0 25 0.5t28.5 1t23.5 1l10 0.5q1 0 11.5 -0.5t26 -1t34 -1t36.5 -0.5q14 0 14 7t-7 7q-6 0 -18 1t-21 3q-20 3 -26.5 14.5t-8.5 30.5q-3 26 -3.5 73.5
t-0.5 109.5v20q0 7 6 7l112 -2q7 0 12 -5l17.5 -23l23 -30.5l26.5 -35l28 -35.5l64.5 -79t55.5 -46q17 -9 36.5 -13t57.5 -4h55q12 0 16.5 1.5t4.5 5.5q0 7 -8 7q-4 0 -11 0.5t-20 2.5q-17 2 -40 12.5t-58 46.5q-38 40 -84 96l-100 124q61 52 84.5 99.5t23.5 94.5
q0 22 -6.5 40.5t-16 33.5t-20 25.5t-18.5 16.5q-35 24 -78.5 30.5t-85.5 6.5q-10 0 -27.5 -0.5t-34.5 -0.5t-31 -0.5t-17 -0.5q-2 0 -13 0.5t-26 0.5t-32.5 0.5t-32.5 0.5q-14 0 -14 -7t7 -7q6 0 15.5 -0.5t14.5 -1.5q22 -3 28 -14t8 -33q1 -10 1.5 -21.5t0.5 -31.5v-50v-80
v-150zM231 595q0 6 7 10q7 2 25 3.5t38 1.5q71 0 111.5 -43.5t40.5 -123.5q0 -49 -15 -82t-38 -48q-16 -11 -33 -13t-33 -2q-15 0 -30 1t-28.5 3t-23.5 4t-15 5q-6 4 -6 11v273z" />
    <glyph glyph-name="Ssmall" unicode="&#xf773;" horiz-adv-x="524" 
d="M209 -14q36 0 74 6t66 24q47 31 64.5 69t17.5 76q0 27 -7.5 52.5t-24.5 50t-44.5 50t-67.5 52.5l-25 17q-33 22 -54.5 39.5t-35 34t-19 33.5t-5.5 37q0 45 34.5 68.5t82.5 23.5q30 0 50.5 -5t34 -12t20.5 -14t9 -11q4 -7 8 -20.5t5 -21.5q1 -5 2 -8t6 -3q7 0 7 19
q0 44 2 65.5t2 24.5q0 6 -9 6q-5 0 -11.5 0.5t-19.5 3.5q-16 4 -40.5 7t-50.5 3q-44 0 -79.5 -11t-61.5 -31.5t-40 -50.5t-14 -67q0 -44 27.5 -86.5t98.5 -95.5l40 -30l50 -39t34.5 -33.5t20 -34.5t6.5 -41q0 -48 -33 -80.5t-99 -32.5q-22 0 -44.5 4.5t-42 14.5t-33.5 26
t-19 39q-2 9 -2.5 17.5t-0.5 13.5q0 10 -8 10q-7 0 -7 -14l-3 -34.5t-2 -55.5q0 -17 2 -22t11 -10q27 -13 62 -18t66 -5z" />
    <glyph glyph-name="Tsmall" unicode="&#xf774;" horiz-adv-x="610" 
d="M347 601l110 -2q31 -1 51.5 -4.5t32 -10t16.5 -14.5t6 -18l1 -9q1 -9 2.5 -12t4.5 -3q8 0 8 11q0 4 0.5 16t1 26.5l1 29.5t0.5 25t-4 10q-3 0 -9 -1t-16 -3q-11 -2 -26 -3t-37 -1h-332q-8 0 -29 1t-40 3q-18 2 -26 6t-13 4q-2 0 -4.5 -6t-4.5 -10q0 -3 -3 -16.5l-6.5 -29
l-6.5 -29.5t-3 -17q0 -4 2 -5.5t4 -1.5q7 0 9 8l4 10.5t10 16.5q10 15 28.5 20.5t60.5 6.5l127 2v-357q0 -62 -0.5 -110t-3.5 -74q-2 -19 -7 -31t-19 -15q-6 -2 -13 -3t-13 -1q-7 0 -7 -6q0 -7 14 -7q10 0 24.5 0.5l29 1t25 1t12.5 0.5t12.5 -0.5t26 -1t34 -1t36.5 -0.5
q14 0 14 7t-7 7q-6 0 -18.5 1t-21.5 3q-20 3 -26 14.5t-8 30.5q-3 26 -3.5 74t-0.5 110v357z" />
    <glyph glyph-name="Usmall" unicode="&#xf775;" horiz-adv-x="732" 
d="M110 269q0 -47 6 -82t16.5 -61t24.5 -45.5t30 -34.5q23 -22 50.5 -34t53.5 -18t47 -7t32 -1q19 0 41.5 2t46 8.5t48 18.5t48.5 33q26 22 42 52t25 63.5t12 69t3 70.5v91v80v50v31q0 12 1 22q2 21 7.5 32t23.5 15q8 2 12 2h10q7 0 7 7t-14 7q-20 0 -44.5 -1t-29.5 -1
q-2 0 -11.5 0.5t-23.5 0.5q-13 0 -29 0.5t-31 0.5q-14 0 -14 -7t7 -7q6 0 15.5 -0.5t14.5 -1.5q22 -3 28 -15t7 -32q0 -10 0.5 -21.5t1 -31t0.5 -50.5v-80v-107q0 -66 -9.5 -117.5t-40.5 -88.5q-23 -27 -59 -43.5t-77 -16.5q-38 0 -68.5 8.5t-62.5 37.5q-14 13 -26 29.5
t-20.5 41t-13.5 58t-5 79.5v119v80v50q0 20 0.5 31.5t1.5 21.5q2 21 7.5 32.5t22.5 14.5q8 2 12 2h10q8 0 8 7t-15 7q-10 0 -24 -0.5t-28 -0.5q-13 0 -23.5 -0.5t-13.5 -0.5t-13.5 0.5t-25.5 0.5q-14 0 -30.5 0.5t-31.5 0.5q-14 0 -14 -7t7 -7q6 0 15.5 -0.5t14.5 -1.5
q22 -3 28 -15t8 -32q1 -10 1.5 -21.5t0.5 -31.5v-50v-80v-125z" />
    <glyph glyph-name="Vsmall" unicode="&#xf776;" horiz-adv-x="653" 
d="M182 536l-17 44.5t-7 26.5q0 5 1.5 8.5t8.5 6.5q6 2 15 3t17 1q9 0 9 8q0 6 -24 6q-26 0 -50.5 -1t-31.5 -1q-4 0 -15 0.5t-25 0.5t-30.5 0.5t-32.5 0.5q-23 0 -23 -6q0 -2 1.5 -5t5.5 -3t13.5 -0.5t20.5 -2.5q11 -3 19 -6.5t15 -10t13 -18t14 -29.5l216 -521
q13 -31 19 -41.5t14 -10.5q7 0 13.5 13l24.5 51q15 32 43.5 98l69.5 160l33 76.5l29 68.5l22.5 53.5l13.5 31.5q9 22 16 35.5t13 22t10.5 13t9.5 7.5q12 8 24.5 9t17.5 1q10 0 10 8q0 6 -14 6q-20 0 -42.5 -1t-26.5 -1q-8 0 -34 1t-52 1q-20 0 -20 -7t10 -7q8 0 15 -0.5
t15 -2.5q7 -2 9.5 -7.5t2.5 -10.5t-2.5 -13.5l-5.5 -18.5q-5 -15 -17 -47.5l-28 -75l-35.5 -90.5l-38.5 -94.5l-36 -88t-30 -69.5z" />
    <glyph glyph-name="Wsmall" unicode="&#xf777;" horiz-adv-x="968" 
d="M530 597q-8 22 -13.5 31t-10.5 9q-4 0 -9 -6.5t-15 -32.5l-184 -475h-2q-3 9 -11.5 38l-20 69.5l-25 86l-25 87l-20.5 74.5t-13 46q-8 29 -12.5 50t-4.5 29t3.5 12t8.5 6q8 4 17 4.5t14 0.5q3 0 6 2t3 6q0 6 -16 6q-33 0 -59.5 -1t-32.5 -1q-7 0 -38 1t-66 1
q-14 0 -14 -6q0 -8 8 -8q5 0 18 -1t22 -4t15 -7t11.5 -11t10 -18t9.5 -28l156 -504q7 -22 12 -35t8.5 -20t7 -9.5t6.5 -2.5q8 0 14 9t17 36l22.5 57l32 82l36.5 94.5l36.5 94.5l31.5 81t22 55l172 -465q9 -25 15.5 -34.5t13.5 -9.5q4 0 7 2.5t7 10.5t9.5 22l14.5 38
t21.5 60.5l27 80l30.5 91l31 92l28 83.5t23 66q13 35 25 59t32 31q8 2 18 3t12 1q5 0 6.5 3t1.5 6q0 5 -12 5q-10 0 -21.5 -0.5t-22.5 -0.5q-10 0 -17.5 -0.5t-9.5 -0.5q-6 0 -31 1t-59 1q-15 0 -15 -6q0 -2 2 -5t6 -3q30 0 38.5 -7t8.5 -18q0 -8 -1.5 -18.5t-8.5 -34.5
l-19 -64.5l-24 -78.5l-26.5 -84l-25.5 -81l-22 -69t-15 -48h-4z" />
    <glyph glyph-name="Xsmall" unicode="&#xf778;" horiz-adv-x="611" 
d="M108 82q-21 -32 -36.5 -46.5t-35.5 -19.5q-22 -5 -33 -5q-7 0 -7 -8q0 -6 8 -6q11 0 24 0.5t24.5 1t20 1t11.5 0.5t14 -0.5t24.5 -1l27 -1t21.5 -0.5q11 0 11 6q0 8 -8 8q-6 0 -16 2q-14 3 -14 14q0 7 2.5 17t8.5 21l135 223l76.5 -126.5l72.5 -124.5q6 -11 2.5 -17
t-7.5 -7q-5 -2 -5 -7q0 -3 5 -4.5t22 -2.5q36 -2 69 -2h75q12 0 12 7t-7 7q-10 0 -30 5t-29.5 14t-20.5 23q-5 6 -19.5 28l-33.5 53l-40.5 66l-41 66l-33.5 54t-18 29l141 206q19 28 33 44.5t33 22.5q8 2 16.5 3t13.5 1t7 3t2 5q0 6 -14 6q-23 0 -45.5 -1t-28.5 -1t-29.5 1
t-48.5 1q-15 0 -15 -6q0 -8 8 -8h10q7 0 14 -2q15 -5 15 -14q0 -8 -2 -14.5t-7 -15.5q-3 -7 -19.5 -33.5l-37 -58.5l-40.5 -62l-30 -44q-35 55 -61.5 102.5l-54.5 98.5q-4 7 -6.5 14.5t-2.5 13.5q0 5 2.5 8.5t8.5 4.5q5 2 12 2h12q8 0 8 8q0 3 -3 4.5t-12 1.5
q-11 0 -25 -0.5t-27 -0.5q-12 0 -21.5 -0.5t-12.5 -0.5t-15.5 0.5t-29.5 0.5q-16 0 -32.5 0.5t-25.5 0.5q-15 0 -15 -6q0 -2 2 -5t6 -3t15 -1.5t22 -4.5q23 -7 37.5 -24t29.5 -42l140 -228z" />
    <glyph glyph-name="Ysmall" unicode="&#xf779;" horiz-adv-x="576" 
d="M255 145v-35t-2 -50q-2 -19 -7 -30.5t-19 -14.5q-6 -2 -13 -3t-13 -1q-7 0 -7 -7t14 -7q10 0 24 0.5l27.5 1t23 1t11.5 0.5t12.5 -0.5t26.5 -1t35 -1t37 -0.5q14 0 14 7t-7 7q-6 0 -18.5 1t-21.5 3q-20 3 -26 14.5t-8 30.5q-2 26 -2.5 50t-0.5 35v73v41q0 21 11 44
q4 9 16.5 30l29 48.5l35.5 57.5l36.5 57l32 47.5t21.5 29.5q14 17 22.5 25.5t21.5 16.5q11 6 22 8.5t19 2.5q5 0 8 3t3 6q0 5 -11 5q-6 0 -19.5 -0.5t-27.5 -0.5t-25.5 -0.5t-13.5 -0.5q-5 0 -24.5 1t-36.5 1q-14 0 -14 -5q0 -7 13 -10q14 -4 14 -22q0 -8 -3.5 -19
t-11.5 -25l-15 -25.5l-25.5 -43l-31 -51.5l-31 -52l-26 -45t-15.5 -29l-160 265q-5 8 -8.5 16t-3.5 17t11 14q14 5 14 9q0 3 -2 4.5t-10 1.5q-26 0 -48.5 -1t-27.5 -1q-2 0 -13 0.5t-26 0.5q-14 0 -28 0.5t-20 0.5q-11 0 -11 -6q0 -8 9 -8q5 0 16 -3t21 -9q12 -8 27 -23
t31 -39l21 -33l31 -48.5l34.5 -54l32.5 -51.5l25 -40.5t12 -19.5q10 -18 14.5 -35.5t4.5 -51.5v-73z" />
    <glyph glyph-name="Zsmall" unicode="&#xf77a;" horiz-adv-x="609" 
d="M172 37l196 288.5l193 290.5q3 4 4 8t1 7q0 7 -18 7h-246h-56t-98 2q-17 1 -24 3.5t-13 2.5q-7 0 -8 -16q-2 -10 -5 -27.5l-6 -35t-5 -32t-2 -18.5q0 -11 5 -11q4 0 7 2.5t5 12.5q2 15 14.5 35t35.5 32q21 11 56 12.5t69 1.5h186l-187 -284l-196 -285q-8 -12 -10 -17.5
t-2 -8.5q0 -7 16 -7q116 0 227.5 -2t222.5 -2q15 0 18.5 3t7.5 19l5 20.5t6 26.5t5 27.5t2 23.5q0 12 -1.5 15.5t-5.5 3.5q-7 0 -10 -13q-2 -9 -6.5 -23.5t-11.5 -22.5q-8 -9 -17 -16t-24 -12.5t-38 -8t-58 -2.5h-234z" />
    <glyph glyph-name="exclamdownsmall" unicode="&#xf7a1;" horiz-adv-x="320" 
d="M162 767q-23 0 -37.5 -15.5t-14.5 -38.5q0 -22 14.5 -35t36.5 -13q27 0 39 17.5t12 33.5q0 17 -12 34t-38 17zM173 544q-2 29 -4.5 40.5t-10.5 11.5t-9.5 -10.5t-2.5 -21.5q-1 -6 -2.5 -39.5t-4 -81l-5.5 -101.5t-5 -100.5t-4 -79t-2 -37.5q-4 -56 -9.5 -91.5t-5.5 -40.5
q0 -10 6 -10q5 0 15 5q21 11 42 30.5t32 37.5q5 8 5 14q0 4 -1 8.5t-3 10.5q-3 12 -5.5 40.5t-4.5 60l-3.5 57t-1.5 31.5z" />
    <glyph glyph-name="Lslashsmall" unicode="&#xf6f9;" 
d="M235 322l142 67q6 3 4 8l-11 25q-2 5 -7 3l-128 -63v32v80v50q0 20 0.5 31.5t0.5 21.5q2 23 7.5 33t25.5 14q8 1 16 1.5t13 0.5q7 0 7 7t-14 7q-10 0 -25.5 -0.5t-30.5 -0.5t-26.5 -0.5t-12.5 -0.5q-2 0 -12.5 0.5t-25.5 0.5t-32 0.5t-32 0.5q-14 0 -14 -7t7 -7
q6 0 15.5 -0.5t14.5 -1.5q22 -3 28 -14t8 -33q1 -10 1.5 -21.5t0.5 -31.5v-50v-80v-65l-92 -45q-4 -2 -1 -7l10 -24q2 -3 4 -3h4l75 40v-46q0 -62 -0.5 -110t-4.5 -74q-3 -19 -6.5 -31t-16.5 -15q-6 -2 -13.5 -3t-13.5 -1q-7 0 -7 -6q0 -7 14 -7q11 0 24 1t27 1q14 1 24 1
h14q20 0 43 -0.5t52 -1.5q58 -3 151 -3q18 0 28 1t15.5 3t8 6.5t4.5 12.5q3 9 5 22.5l4 26t3 23t1 13.5q0 13 -7 13q-6 0 -8 -11q-2 -13 -8.5 -27t-14.5 -24q-16 -19 -42.5 -21t-61.5 -2q-52 0 -78 4.5t-37 15.5q-13 12 -16 58.5t-3 132.5v80z" />
    <glyph glyph-name="Scaronsmall" unicode="&#xf6fd;" horiz-adv-x="524" 
d="M209 -14q36 0 74 6t66 24q47 31 64.5 69t17.5 76q0 27 -7.5 52.5t-24.5 50t-44.5 50t-67.5 52.5l-25 17q-33 22 -54.5 39.5t-35 34t-19 33.5t-5.5 37q0 45 34.5 68.5t82.5 23.5q30 0 50.5 -5t34 -12t20.5 -14t9 -11q4 -7 8 -20.5t5 -21.5q1 -5 2 -8t6 -3q7 0 7 19
q0 44 2 65.5t2 24.5q0 6 -9 6q-5 0 -11.5 0.5t-19.5 3.5q-16 4 -40.5 7t-50.5 3q-44 0 -79.5 -11t-61.5 -31.5t-40 -50.5t-14 -67q0 -44 27.5 -86.5t98.5 -95.5l40 -30l50 -39t34.5 -33.5t20 -34.5t6.5 -41q0 -48 -33 -80.5t-99 -32.5q-22 0 -44.5 4.5t-42 14.5t-33.5 26
t-19 39q-2 9 -2.5 17.5t-0.5 13.5q0 10 -8 10q-7 0 -7 -14l-3 -34.5t-2 -55.5q0 -17 2 -22t11 -10q27 -13 62 -18t66 -5zM145 805q-2 -2 -3.5 -4.5t-1.5 -4.5t12 -10l20 -15.5l32 -24l31.5 -23.5t17.5 -13q11 -10 15 -10q6 0 17 10q4 4 20.5 19l35.5 33l35.5 33t20.5 19
q2 3 4 5.5t2 5.5q0 8 -7 8t-18 -10l-20 -17t-22.5 -17.5l-22.5 -16.5t-20 -12q-10 -5 -16 -5q-2 0 -10 4q-5 2 -16 10t-23.5 18.5l-25 21.5t-19.5 19q-4 5 -8 5q-3 0 -9 -6z" />
    <glyph glyph-name="Zcaronsmall" unicode="&#xf6ff;" horiz-adv-x="609" 
d="M172 37l196 288.5l193 290.5q3 4 4 8t1 7q0 7 -18 7h-246h-56t-98 2q-17 1 -24 3.5t-13 2.5q-7 0 -8 -16q-2 -10 -5 -27.5l-6 -35t-5 -32t-2 -18.5q0 -11 5 -11q4 0 7 2.5t5 12.5q2 15 14.5 35t35.5 32q21 11 56 12.5t69 1.5h186l-187 -284l-196 -285q-8 -12 -10 -17.5
t-2 -8.5q0 -7 16 -7q116 0 227.5 -2t222.5 -2q15 0 18.5 3t7.5 19l5 20.5t6 26.5t5 27.5t2 23.5q0 12 -1.5 15.5t-5.5 3.5q-7 0 -10 -13q-2 -9 -6.5 -23.5t-11.5 -22.5q-8 -9 -17 -16t-24 -12.5t-38 -8t-58 -2.5h-234zM198 805q-2 -2 -3.5 -4.5t-1.5 -4.5t12 -10l20 -15.5
l32 -24l31.5 -23.5t17.5 -13q11 -10 15 -10q6 0 17 10q4 4 20.5 19l35.5 33l35.5 33t20.5 19q2 3 4 5.5t2 5.5q0 8 -7 8t-18 -10l-20 -17t-22.5 -17.5l-22.5 -16.5t-20 -12q-10 -5 -16 -5q-2 0 -10 4q-5 2 -16 10t-23.5 18.5l-25 21.5t-19.5 19q-4 5 -8 5q-3 0 -9 -6z" />
    <glyph glyph-name="questiondownsmall" unicode="&#xf7bf;" horiz-adv-x="488" 
d="M265 17q-34 0 -56.5 13t-36 32.5t-19 41.5t-5.5 40q0 27 4 50.5t14 48.5t27 52.5t43 60.5q17 21 34.5 40.5t34.5 42.5q22 28 22 50q0 14 -7 27t-22 32q-9 11 -22 23t-20 12q-3 0 -7 -3t-4 -6q0 -5 9 -17q11 -14 15 -27t4 -24q0 -6 -1 -13t-5.5 -16t-12.5 -21t-22 -30
q-36 -45 -67.5 -79t-54.5 -65.5t-36.5 -65.5t-13.5 -77q0 -26 9.5 -54t31 -50.5t56 -37t84.5 -14.5q58 0 100.5 13t65.5 27q8 5 9.5 8t1.5 8v33t-0.5 35t-1.5 30.5t-2 18.5q-1 10 -8 10q-6 0 -8 -17q-2 -26 -9.5 -48.5t-25.5 -44.5q-12 -15 -36.5 -27t-61.5 -12zM263 767
q-23 0 -37.5 -15.5t-14.5 -38.5q0 -22 14.5 -35t36.5 -13q27 0 39 17.5t12 33.5q0 17 -12 34t-38 17z" />
    <glyph glyph-name="foursuperior" unicode="&#x2074;" horiz-adv-x="463" 
d="M325 472v285q0 10 -7 10t-16 -11q-5 -7 -26 -31l-49 -56.5l-59.5 -69l-58.5 -67l-45 -51t-19 -21.5q-2 -2 -6 -7t-4 -10q0 -8 14 -8h220v-16v-22q0 -11 -0.5 -23.5t-0.5 -22.5q-1 -14 -6.5 -22t-22.5 -10q-8 -1 -16.5 -1.5t-12.5 -0.5q-3 0 -5.5 -3t-2.5 -5q0 -6 8 -6
q27 0 51.5 1t27.5 1q2 0 11 -0.5t22 -0.5t28 -0.5t29 -0.5q10 0 10 7t-6 7q-5 0 -13.5 0.5t-15.5 1.5q-16 2 -21 10t-7 22q-1 10 -1 22v24v22v16h68q10 0 13 8q2 8 4 17.5t2 11.5q0 7 -6 7q-2 0 -9 -3.5t-21 -3.5h-51zM269 472h-174q4 5 18 21l32 37l38.5 44.5l38 44
l30.5 35.5t16 18h1v-200z" />
    <glyph glyph-name="Agravesmall" unicode="&#xf7e0;" horiz-adv-x="624" 
d="M82 91q-13 -32 -28.5 -53t-45.5 -25q-5 -1 -13 -1.5t-13 -0.5q-8 0 -8 -7t17 -7q13 0 27.5 0.5t27 1t22 1t12.5 0.5q4 0 13.5 -0.5t21.5 -1l24 -1t20 -0.5q13 0 13 7t-9 7h-8q-11 0 -20.5 5t-9.5 18q0 23 13 57l50 136q3 7 9 7h203q5 0 8 -5l79 -195q5 -11 0.5 -16
t-8.5 -7q-3 -2 -4.5 -2.5t-1.5 -3.5q0 -4 9 -4.5t22 -1.5q23 -1 45.5 -1.5t41.5 -0.5h33h19q8 0 14 1.5t6 5.5t-3.5 5.5t-7.5 1.5q-7 0 -16 1t-19 4q-7 2 -15 6t-17.5 14t-20 27t-22.5 46l-33.5 80.5l-41.5 102.5l-44.5 109.5l-41.5 102l-32.5 79.5t-17.5 42
q-7 14 -10.5 22.5t-10.5 8.5q-5 0 -9 -6t-12 -27zM209 269q-5 0 -3 6l82 233q7 19 15 0l87 -233q1 -6 -3 -6h-178zM363 715q9 0 9 5q0 3 -5.5 6t-13.5 8l-31.5 21.5t-30 22l-23.5 18.5t-13 11q-7 7 -9 11.5t-6 4.5q-3 0 -6.5 -1.5t-9.5 -3.5q-9 -4 -26.5 -9l-33.5 -10
q-11 -3 -11 -8q0 -6 29 -17q4 -2 17.5 -6.5t32.5 -11.5t40 -14l39.5 -13t32.5 -10t19 -4z" />
    <glyph glyph-name="Aacutesmall" unicode="&#xf7e1;" horiz-adv-x="624" 
d="M82 91q-13 -32 -28.5 -53t-45.5 -25q-5 -1 -13 -1.5t-13 -0.5q-8 0 -8 -7t17 -7q13 0 27.5 0.5t27 1t22 1t12.5 0.5q4 0 13.5 -0.5t21.5 -1l24 -1t20 -0.5q13 0 13 7t-9 7h-8q-11 0 -20.5 5t-9.5 18q0 23 13 57l50 136q3 7 9 7h203q5 0 8 -5l79 -195q5 -11 0.5 -16
t-8.5 -7q-3 -2 -4.5 -2.5t-1.5 -3.5q0 -4 9 -4.5t22 -1.5q23 -1 45.5 -1.5t41.5 -0.5h33h19q8 0 14 1.5t6 5.5t-3.5 5.5t-7.5 1.5q-7 0 -16 1t-19 4q-7 2 -15 6t-17.5 14t-20 27t-22.5 46l-33.5 80.5l-41.5 102.5l-44.5 109.5l-41.5 102l-32.5 79.5t-17.5 42
q-7 14 -10.5 22.5t-10.5 8.5q-5 0 -9 -6t-12 -27zM209 269q-5 0 -3 6l82 233q7 19 15 0l87 -233q1 -6 -3 -6h-178zM440 818q-6 9 -10 9t-9.5 -2.5t-18.5 -10.5q-3 -2 -19.5 -11.5l-38 -23l-43.5 -27.5t-35 -23q-7 -4 -7 -8q0 -6 5 -6q3 0 15 5t30.5 11.5t39.5 12.5t42.5 11
t39.5 7q13 2 20.5 1t9.5 -1q3 0 5.5 2.5t-1.5 9.5l-14 25.5z" />
    </font>
</defs>
</svg>
